<?xml version="1.0" encoding="UTF-8"?>
<svg width="274px" height="596px" viewBox="0 0 274 596" version="1.1" xmlns="http://www.w3.org/2000/svg" xmlns:xlink="http://www.w3.org/1999/xlink">
    <!-- Generator: Sketch 51.3 (57544) - http://www.bohemiancoding.com/sketch -->
    <title>Group 21</title>
    <desc>Created with Sketch.</desc>
    <defs>
        <linearGradient x1="50%" y1="0%" x2="50%" y2="100%" id="linearGradient-1">
            <stop stop-color="#F8F8F8" offset="0%"></stop>
            <stop stop-color="#F9F9F9" offset="48.0847263%"></stop>
            <stop stop-color="#F8F8F8" offset="100%"></stop>
        </linearGradient>
        <polyline id="path-2" points="1.05809081e-14 10.8751563 20.4687362 0 70.847389 0 114.663043 82.3427046 114.663043 105.057636 84.1450834 121.272 42.8585067 121.272 0 40.728039"></polyline>
    </defs>
    <g id="Page-1" stroke="none" stroke-width="1" fill="none" fill-rule="evenodd">
        <g id="brilinta" transform="translate(-591.000000, -6020.000000)">
            <g id="Group-21" transform="translate(591.000000, 6022.000000)">
                <g id="Group-14" transform="translate(0.000000, 36.000000)">
                    <g id="menu">
                        <g id="menuMobileIntelligent" transform="translate(18.614130, 115.320000)">
                            <g id="menuTemplate">
                                <rect id="Rectangle-2" fill="#F4F4F4" fill-rule="evenodd" x="0" y="0" width="238.26087" height="372.772349"></rect>
                                <text id="Menu" font-family="HelveticaNeue-Medium, Helvetica Neue" font-size="14.8913043" font-weight="400" fill="#4A4A4A">
                                    <tspan x="99.8238587" y="23.8868286">Menu</tspan>
                                </text>
                                <g id="Group" stroke-width="1" fill-rule="evenodd" transform="translate(17.869565, 8.910893)" stroke="#000000" stroke-linecap="round" stroke-linejoin="round">
                                    <path d="M14.8914235,0 L0,14.8516068" id="Stroke-1" stroke-width="1.48913043"></path>
                                    <path d="M0,0 L14.8914235,14.8516068" id="Stroke-2" stroke-width="1.48913043"></path>
                                </g>
                                <g id="Group-2" stroke-width="1" fill-rule="evenodd" transform="translate(173.483696, 7.425744)">
                                    <g id="Group">
                                        <rect id="Rectangle" fill="#00A4FF" x="0" y="0" width="59.5652174" height="25.2475296" rx="2.97826087"></rect>
                                        <text id="Save-Now-On-BRILINTA" font-family="HelveticaNeue-Light, Helvetica Neue" font-size="7.44565217" font-weight="300" line-spacing="10.423913" fill="#FFFFFF">
                                            <tspan x="13.3649457" y="9.19985178">Save Now </tspan>
                                            <tspan x="8.58855978" y="19.6237648">On BRILINTA</tspan>
                                        </text>
                                    </g>
                                </g>
                            </g>
                            <g id="navItemMobile" transform="translate(0.000000, 194.554493)">
                                <rect id="Rectangle-2" x="0" y="0" width="238.26087" height="29.7826087"></rect>
                                <text id="Page-Title" font-family="HelveticaNeue-Medium, Helvetica Neue" font-size="11.9130435" font-weight="400" fill="#4A4A4A">
                                    <tspan x="11.9130435" y="17.9565217">Patient Stories</tspan>
                                </text>
                            </g>
                            <g id="Group-3" stroke-width="1" fill-rule="evenodd" transform="translate(0.000000, 107.673288)">
                                <g id="navItemMobile">
                                    <rect id="Rectangle-2" x="0" y="0" width="238.26087" height="29.7826087"></rect>
                                    <text id="Page-Title" font-family="HelveticaNeue-Medium, Helvetica Neue" font-size="11.9130435" font-weight="400" fill="#4A4A4A">
                                        <tspan x="11.9130435" y="17.9565217">Why BRILINTA?</tspan>
                                    </text>
                                </g>
                            </g>
                            <g id="Group-2" stroke-width="1" fill-rule="evenodd" transform="translate(0.000000, 136.633690)">
                                <g id="navItemMobile">
                                    <rect id="Rectangle-2" x="0" y="0" width="238.26087" height="29.7826087"></rect>
                                    <text id="Page-Title" font-family="HelveticaNeue-Medium, Helvetica Neue" font-size="11.9130435" font-weight="400" fill="#4A4A4A">
                                        <tspan x="11.9130435" y="17.9565217">Taking BRILINTA</tspan>
                                    </text>
                                </g>
                            </g>
                            <g id="Group" stroke-width="1" fill-rule="evenodd" transform="translate(0.000000, 165.594091)">
                                <g id="navItemMobile">
                                    <rect id="Rectangle-2" x="0" y="0" width="238.26087" height="29.7826087"></rect>
                                    <text id="Page-Title" font-family="HelveticaNeue-Medium, Helvetica Neue" font-size="11.9130435" font-weight="400" fill="#4A4A4A">
                                        <tspan x="11.9130435" y="17.9565217">Savings &amp; Resources</tspan>
                                    </text>
                                </g>
                            </g>
                            <path d="M11.9130435,99.5049698 L226.347826,99.5049698" id="Line" stroke="#979797" stroke-width="1.48913043" stroke-linecap="square"></path>
                            <g id="menuIntelligentBtn" transform="translate(11.913043, 44.554464)">
                                <rect id="Rectangle-4" stroke="#CBCBCB" stroke-width="0.744565217" fill="#FFFFFF" fill-rule="evenodd" x="0.372282609" y="0.372282609" width="66.2663043" height="40.951087"></rect>
                                <text id="Title" font-family="HelveticaNeue-Medium, Helvetica Neue" font-size="7.44565217" font-weight="400" fill="#4A4A4A">
                                    <tspan x="8.67418478" y="13.701087">Risk of Having </tspan>
                                    <tspan x="9.50809783" y="22.701087">Another Heart </tspan>
                                    <tspan x="22.4039674" y="31.701087">Attack</tspan>
                                </text>
                            </g>
                            <g id="menuIntelligentBtn" transform="translate(159.336957, 44.554464)">
                                <rect id="Rectangle-4" stroke="#CBCBCB" stroke-width="0.744565217" fill="#FFFFFF" fill-rule="evenodd" x="0.372282609" y="0.372282609" width="66.2663043" height="40.951087"></rect>
                                <text id="Title" font-family="HelveticaNeue-Medium, Helvetica Neue" font-size="7.44565217" font-weight="400" fill="#4A4A4A">
                                    <tspan x="11.8534783" y="13.701087">Why Stay on </tspan>
                                    <tspan x="14.9508696" y="22.701087">BRILINTA?</tspan>
                                </text>
                            </g>
                            <g id="menuIntelligentBtn" transform="translate(85.625000, 44.554464)">
                                <rect id="Rectangle-4" stroke="#CBCBCB" stroke-width="0.744565217" fill="#FFFFFF" fill-rule="evenodd" x="0.372282609" y="0.372282609" width="66.2663043" height="40.951087"></rect>
                                <text id="Title" font-family="HelveticaNeue-Medium, Helvetica Neue" font-size="7.44565217" font-weight="400" fill="#4A4A4A">
                                    <tspan x="8.19394022" y="13.701087">How BRILINTA </tspan>
                                    <tspan x="22.6087228" y="22.701087">Works</tspan>
                                </text>
                            </g>
                            <g id="arrow" transform="translate(109.451087, 120.297053)" fill="#4A4A4A" fill-rule="evenodd">
                                <polygon id="Fill-1" points="2.97821429 4.4673913 0 1.6282628 0.337860666 0 2.97826087 2.51712639 5.61866107 0 5.95652174 1.6282628"></polygon>
                            </g>
                            <g id="arrow" transform="translate(109.451087, 149.257455)" fill="#4A4A4A" fill-rule="evenodd">
                                <polygon id="Fill-1" points="2.97821429 4.4673913 0 1.6282628 0.337860666 0 2.97826087 2.51712639 5.61866107 0 5.95652174 1.6282628"></polygon>
                            </g>
                            <g id="arrow" transform="translate(133.277174, 178.217856)" fill="#4A4A4A" fill-rule="evenodd">
                                <polygon id="Fill-1" points="2.97821429 4.4673913 0 1.6282628 0.337860666 0 2.97826087 2.51712639 5.61866107 0 5.95652174 1.6282628"></polygon>
                            </g>
                        </g>
                        <g id="iphone6">
                            <g fill="#FFFFFF" id="Apple-iPhone-6" stroke="#979797">
                                <path d="M273.165291,118.467168 L272.070587,118.467168 L272.070587,41.3285467 C272.070587,18.6533975 253.692526,0.27548913 231.012842,0.27548913 L42.9871582,0.27548913 C20.3127463,0.27548913 1.92941267,18.6577681 1.92941267,41.3285467 L1.92941267,70.640768 L0.83470949,70.640768 C0.52594477,70.640768 0.27548913,70.8897477 0.27548913,71.1941799 L0.27548913,92.0752563 C0.27548913,92.3782104 0.528899987,92.6286681 0.83470949,92.6286681 L1.92941267,92.6286681 L1.92941267,118.467168 L0.83470949,118.467168 C0.52515841,118.467168 0.27548913,118.71357 0.27548913,119.015257 L0.27548913,158.597757 C0.27548913,158.89738 0.528509339,159.145846 0.83470949,159.145846 L1.92941267,159.145846 L1.92941267,169.042213 L0.83470949,169.042213 C0.52515841,169.042213 0.27548913,169.288614 0.27548913,169.590302 L0.27548913,209.172801 C0.27548913,209.472424 0.528509339,209.72089 0.83470949,209.72089 L1.65392354,209.72089 L1.92941267,209.72089 L1.92941267,516.096397 C1.92941267,538.771546 20.3074739,557.149454 42.9871582,557.149454 L231.012842,557.149454 C253.687254,557.149454 272.070587,538.767176 272.070587,516.096397 L272.070587,159.145846 L273.165291,159.145846 C273.474842,159.145846 273.724511,158.899444 273.724511,158.597757 L273.724511,119.015257 C273.724511,118.715634 273.471491,118.467168 273.165291,118.467168 Z M18.3386413,488.998657 L18.3386413,67.3587374 L257.150489,67.3587374 L257.150489,489.001935 L18.3386413,488.998657 Z M136.724346,540.658842 C125.002175,540.658842 115.499159,531.183044 115.499159,519.49366 C115.499159,507.804276 125.002175,498.328479 136.724346,498.328479 C148.446517,498.328479 157.949533,507.804276 157.949533,519.49366 C157.949533,531.183044 148.446517,540.658842 136.724346,540.658842 Z M136.724346,537.908949 C146.924657,537.908949 155.193324,529.663966 155.193324,519.49366 C155.193324,509.323355 146.924657,501.078372 136.724346,501.078372 C126.524035,501.078372 118.255368,509.323355 118.255368,519.49366 C118.255368,529.663966 126.524035,537.908949 136.724346,537.908949 Z M93.722334,39.8559585 C91.1345308,39.8559585 89.0363821,37.7638195 89.0363821,35.1826394 C89.0363821,32.6014594 91.1345308,30.5093204 93.722334,30.5093204 C96.3101372,30.5093204 98.4082859,32.6014594 98.4082859,35.1826394 C98.4082859,37.7638195 96.3101372,39.8559585 93.722334,39.8559585 Z M137.275654,20.6154526 C135.601288,20.6154526 134.243626,19.2616793 134.243626,17.5913197 C134.243626,15.9209601 135.601288,14.5671869 137.275654,14.5671869 C138.95002,14.5671869 140.307682,15.9209601 140.307682,17.5913197 C140.307682,19.2616793 138.95002,20.6154526 137.275654,20.6154526 Z M117.425585,32.7082353 L157.125723,32.7082353 C158.496034,32.7082353 159.603457,33.8150083 159.603457,35.1826394 C159.603457,36.5550158 158.496817,37.6570435 157.125723,37.6570435 L117.425585,37.6570435 C116.055273,37.6570435 114.947851,36.5502705 114.947851,35.1826394 C114.947851,33.8102631 116.054491,32.7082353 117.425585,32.7082353 Z" stroke-width="0.550978261"></path>
                            </g>
                            <g id="Nav-Bar" transform="translate(18.614130, 67.634226)">
                                <g id="Nav-Bar-Background">
                                    <rect id="Background" fill-opacity="0.65" fill="url(#linearGradient-1)" x="0" y="0" width="238.26087" height="47.5669285"></rect>
                                    <rect id="Line" fill="#000000" opacity="0.4" x="0" y="47.5669285" width="238.26087" height="1"></rect>
                                </g>
                                <g id="Status-Bar">
                                    <rect id="Background" fill-opacity="0" fill="#FFFFFF" x="0" y="0" width="238.26087" height="15.4291461"></rect>
                                    <g id="Battery" transform="translate(195.076087, 2.257924)">
                                        <g id="Battery-Icon" transform="translate(20.847826, 1.881603)">
                                            <rect id="Battery" stroke="#000000" stroke-width="0.5" x="0.25" y="0.25" width="16.2527174" height="6.6500921" rx="1.11684783"></rect>
                                            <path d="M13.8967391,6.14745083 L13.8967391,1.00264127 L1.11700398,1.00264127 C1.04772697,1.00264127 0.994565217,1.05521509 0.994565217,1.12301299 L0.994565217,6.02707911 C0.994565217,6.09203854 1.05056646,6.14745083 1.11700398,6.14745083 L13.8967391,6.14745083 Z" id="Charge" stroke="#000000" stroke-width="0.5" fill="#000000"></path>
                                            <path d="M18.2418478,3.56170758 C18.2418478,4.22525011 17.7564455,4.77419108 17.125,4.86549134 L17.125,2.25792382 C17.7564455,2.34922409 18.2418478,2.89816505 18.2418478,3.56170758 Z" id="+" fill="#000000"></path>
                                        </g>
                                        <text id="89%" font-family="HelveticaNeue, Helvetica Neue" font-size="8.93478261" font-weight="normal" fill="#000000">
                                            <tspan x="0" y="9">89%</tspan>
                                        </text>
                                    </g>
                                    <path d="M187.204368,10.8146621 L187.204368,8.13660321 L188.479064,9.53986255 L187.204368,10.8146621 L187.204368,10.8146621 L187.204368,10.8146621 L187.204368,10.8146621 Z M188.537578,5.529306 L187.204368,6.88502797 L187.204368,4.31655899 L188.537578,5.529306 L188.537578,5.529306 L188.537578,5.529306 L188.537578,5.529306 Z M187.524619,7.53458427 L189.502885,5.529306 L186.551253,2.63424446 L186.481527,2.63424446 L186.481527,6.66076776 L184.478033,4.53755328 L183.907609,5.1399351 L186.318248,7.53458427 L183.907609,9.92887057 L184.478033,10.5312524 L186.481527,8.40803791 L186.481527,12.4341983 L186.609066,12.4341983 L189.531616,9.53187918 L187.524619,7.53458427 L187.524619,7.53458427 Z" id="Bluetooth-Icon" fill="#000000" opacity="0.45"></path>
                                    <path d="M39.4587933,5.60407414 C40.9030805,5.60407414 42.2193505,6.14189303 43.2286025,7.0237824 L43.9293478,6.24173657 C42.7340243,5.1928227 41.1728842,4.45939955 39.4587933,4.45939955 C37.7473074,4.45939955 36.1884001,5.1905957 34.9945652,6.23616908 L35.693822,7.01932841 C36.7023297,6.1400372 38.0163668,5.60407414 39.4587933,5.60407414 L39.4587933,5.60407414 Z M39.4587933,7.86150307 C40.3243981,7.86150307 41.115202,8.17922079 41.7251445,8.70256423 L42.4664535,7.87486503 C41.6596473,7.17484678 40.6102039,6.71757081 39.4587933,6.71757081 C38.3096156,6.71757081 37.2609164,7.17373329 36.4548546,7.87152454 L37.1950471,8.70033724 C37.8046174,8.17810729 38.594305,7.86150307 39.4587933,7.86150307 L39.4587933,7.86150307 Z M40.9834634,9.53026343 C40.5707568,9.18396596 40.0393365,8.94419301 39.4584212,8.94419301 C38.8786223,8.94419301 38.3479463,9.18359479 37.9352396,9.5284076 L39.4584212,11.233171 L40.9834634,9.53026343 L40.9834634,9.53026343 Z" id="Wifi" fill="#0C0000"></path>
                                    <g id="Signal" transform="translate(4.839674, 5.644810)">
                                        <ellipse id="Oval-1" fill="#000000" cx="2.04755435" cy="2.0697635" rx="2.04755435" ry="2.0697635"></ellipse>
                                        <ellipse id="Oval-1-copy" fill="#000000" cx="7.25951087" cy="2.0697635" rx="2.04755435" ry="2.0697635"></ellipse>
                                        <ellipse id="Oval-1-copy-2" fill="#000000" cx="12.4714674" cy="2.0697635" rx="2.04755435" ry="2.0697635"></ellipse>
                                        <ellipse id="Oval-1-copy-3" stroke="#000000" stroke-width="0.5" cx="17.6834239" cy="2.0697635" rx="1.79755435" ry="1.8197635"></ellipse>
                                        <ellipse id="Oval-1-copy-4" stroke="#000000" stroke-width="0.5" cx="22.8953804" cy="2.0697635" rx="1.79755435" ry="1.8197635"></ellipse>
                                    </g>
                                    <text id="9:57-AM" font-family="HelveticaNeue-Medium, Helvetica Neue" font-size="8.93478261" font-weight="400" letter-spacing="0.223369441" fill="#000000">
                                        <tspan x="101.648044" y="11.2579238">9:57 AM</tspan>
                                    </text>
                                </g>
                                <rect id="Url-Text-Field" fill="#E6E7E8" x="7.07336957" y="17.8375982" width="224.11413" height="21.5537645" rx="4.4673913"></rect>
                                <path d="M218.902174,25.4750646 C217.123905,25.6607602 215.737772,27.1618438 215.737772,28.9860971 C215.737772,30.9358599 217.321199,32.516455 219.274457,32.516455 C221.227714,32.516455 222.811141,30.9358599 222.811141,28.9860971 L223.927989,28.9860971 C223.927989,31.5515745 221.844532,33.6313049 219.274457,33.6313049 C216.704381,33.6313049 214.620924,31.5515745 214.620924,28.9860971 C214.620924,26.5457082 216.506162,24.5448527 218.902174,24.3555374 L218.902174,22.6686144 L222.252717,24.8983141 L218.902174,27.1280139 L218.902174,25.4750646 Z" id="Refresh" fill="#000000"></path>
                                <text id="brilinta.com" font-family="HelveticaNeue, Helvetica Neue" font-size="12.6576087" font-weight="normal" fill="#000000">
                                    <tspan x="86.1409837" y="32.8105312">brilinta.com</tspan>
                                </text>
                            </g>
                        </g>
                    </g>
                    <g id="hand" transform="translate(60.309783, 166.656000)">
                        <mask id="mask-3" fill="white">
                            <use xlink:href="#path-2"></use>
                        </mask>
                        <g id="Clip-2"></g>
                        <path d="M62.9256379,91.5087022 C62.9256379,91.5087022 56.7309187,89.077104 52.8574636,86.394183 C48.9890858,83.7111446 42.2936415,81.5467199 39.6384306,79.9555977 C36.9742187,78.3667295 35.9215211,73.4599971 32.7936248,70.4764731 C29.6687717,67.4938831 26.2273495,63.4039009 24.7371625,62.4674542 C23.2399642,61.5321875 19.1105453,60.0882515 18.3170998,59.9617036 C17.5247132,59.8371524 17.436046,56.2448102 21.0293321,54.9643753 C24.6205002,53.6799637 32.3196966,55.6847688 36.03781,59.4455172 C36.03781,59.4455172 25.264183,38.9338818 23.138991,34.4178449 C21.0165969,29.8925796 19.1922178,23.0291476 22.0561357,21.4063857 C24.9241556,19.7865321 27.2006876,21.8559535 28.5181494,24.3425032 C29.8356169,26.8289969 41.1077675,47.3482612 42.0973743,47.9123743 C42.7550797,48.2878345 41.9944671,46.693541 41.9944671,46.693541 C41.9944671,46.693541 36.9429909,38.357464 41.6573658,35.931431 C46.3717462,33.5054538 49.5007181,36.4909578 51.2312578,39.7571759 C51.2312578,39.7571759 54.3095006,37.1631842 57.3578701,38.1301633 C59.9576925,38.9528422 61.9553652,41.1454221 61.9553652,41.1454221 C61.9553652,41.1454221 63.3594153,39.557337 65.9425176,39.7520304 C68.1967895,39.9226737 75.6624661,43.8630199 80.1078075,50.7040238 C84.5490245,57.542069 84.26127,68.3562557 84.7109874,70.4028911 C85.1526791,72.4487156 87.352889,77.1063568 87.8426234,78.2134357 C88.3412195,79.3132158 77.1776498,95.9330916 62.9256379,91.5087022" id="Fill-4" fill-opacity="0.7417" fill="#FFFFFE" mask="url(#mask-3)"></path>
                        <path d="M77.4191654,90.5753664 C72.6121224,93.1137415 67.7731598,93.6633264 63.0319123,92.2038571 C62.7057297,92.0816031 56.592894,89.6885381 52.6606464,86.9945322 C50.4124739,85.4549908 47.1516819,84.0820336 44.2745443,82.867 C42.2924943,82.0298206 40.5799601,81.3092879 39.4513011,80.6384041 C37.8194097,79.672181 36.7826968,77.8026522 35.6866449,75.8222893 C34.7555235,74.1356556 33.7918006,72.397691 32.4088925,71.094341 C31.1023731,69.8572839 29.7397906,68.4391081 28.4836996,67.1195694 C26.8263621,65.3848192 25.2593215,63.7471015 24.4910342,63.2718262 C23.0765085,62.3964622 19.0432422,61.0226667 18.442032,60.9263115 C17.7801468,60.8264531 17.3056531,60.2696622 17.1663812,59.4317666 C16.923916,57.9857269 17.690325,55.1437404 20.9782291,53.9889539 C24.0857572,52.8887739 29.3683393,53.9125625 33.4465501,56.0674486 C30.2052339,49.9416549 24.0763267,38.3030749 22.5045066,34.994818 C20.4696301,30.702245 18.0418587,22.8825116 21.8473618,20.7511592 L21.8513476,20.7490495 C24.8427804,19.1693693 27.8151287,20.4762946 29.7426751,24.0766264 C30.8892392,26.2181384 35.5030659,34.515984 39.0152058,40.5698333 C38.9224492,39.6946636 38.9542178,38.8324849 39.1724499,38.0368155 C39.5220718,36.7655876 40.2986939,35.8096407 41.4705476,35.1908485 C45.5768766,33.0960817 49.3255842,34.2773721 51.935498,38.3881825 C53.2379366,37.5836304 55.6198244,36.4984954 58.0686817,37.266906 C59.9720565,37.8663228 61.5580811,39.0954688 62.4298021,39.8689869 C63.4014741,39.2010066 64.9697781,38.7257812 66.4417086,38.834539 C69.1398287,39.037176 76.8760308,43.2209912 81.4375565,50.1653328 C85.0753732,55.7186576 85.6635081,63.5831266 85.9752124,67.8132596 C86.0500639,68.8603377 86.1023314,69.650261 86.1944563,70.0611256 C86.5626765,71.7276676 88.2802363,75.4515025 89.0160618,77.0407038 L89.2706352,77.606977 C90.1076975,79.4473705 84.0038619,87.0982601 77.4191654,90.5753664 M19.1850967,59.0004774 C20.6354494,59.3745452 24.1677305,60.6625281 25.5821277,61.5328845 C26.5721073,62.1500556 28.0728437,63.7212306 29.980003,65.7125026 C31.207987,66.9986479 32.5469569,68.4013621 33.83054,69.6099113 C35.4402107,71.1362563 36.5297781,73.0997365 37.493501,74.8377012 C38.4499288,76.5668275 39.3524401,78.2000205 40.5096254,78.8812194 C41.51822,79.4758674 43.2482681,80.2100073 45.0834101,80.9876614 C48.0492012,82.2345839 51.4121524,83.6551413 53.8277486,85.3068492 C57.5718891,87.8691467 63.6561593,90.2518911 63.7203896,90.2763686 C67.8408001,91.5406956 72.1469138,91.0414703 76.451686,88.7682997 C82.6816343,85.4785189 86.7664917,79.6097188 87.2792162,78.1990434 L87.1411406,77.888598 C86.3135814,76.1041212 84.5959658,72.3802864 84.183975,70.4982274 C84.0712226,69.9916016 84.0084457,69.1437852 83.9140848,67.9648154 C83.6212751,63.9227406 83.0607553,56.3915234 79.7078103,51.2843886 C75.4905792,44.8589642 68.2993564,41.0246284 66.2871981,40.8761205 C65.4394028,40.810999 64.6567322,40.9678345 63.9532175,41.3392986 C63.4191389,41.6213804 63.1379007,41.9221714 63.1379007,41.9221714 L62.378988,42.7393259 L61.6104604,41.9341076 C61.589777,41.9145656 59.7416883,39.94288 57.4484036,39.2167179 C54.9618691,38.4352609 52.2848796,40.6307909 52.2690596,40.644226 L51.2947602,41.4506657 L50.7003084,40.3403261 C49.2527955,37.6366491 46.6481196,34.8534163 42.4838715,36.9736653 L42.4798858,36.9757749 C41.7743754,37.3483494 41.3572083,37.8631584 41.1591285,38.5770512 C40.4924749,40.9703328 42.4292954,44.8982703 43.228781,46.2101365 C43.5398536,46.8531897 44.246331,48.3207811 43.1442251,48.9027656 L42.6420044,49.1679703 L41.943219,48.8464159 C40.4507168,48.0020581 28.0439037,25.2630798 27.9231015,25.0374588 C27.1156332,23.5292289 25.3946635,21.1934075 22.9532914,22.4825673 C20.9110975,23.6244406 22.1260621,29.3984842 24.3656594,34.1211473 C26.4642407,38.5375231 37.1769166,58.7233588 37.2860634,58.9272227 L40.5025036,64.9874231 L35.6410576,60.123386 C32.1625533,56.6439203 24.8227343,54.8048481 21.6619548,55.9153765 C19.5084339,56.6869682 19.1350429,58.3769717 19.1850967,59.0004774" id="Fill-5" fill-opacity="0.7417" fill="#3880DC" mask="url(#mask-3)"></path>
                    </g>
                </g>
                <g id="registrationNum" transform="translate(125.000000, 0.000000)">
                    <g id="Group-16">
                        <circle id="Oval" stroke="#8190B1" stroke-width="2" fill="#EFF1F6" cx="12" cy="12" r="13"></circle>
                        <text id="x" font-family="HelveticaNeue-Medium, Helvetica Neue" font-size="14" font-weight="400" line-spacing="14" fill="#4A4A4A">
                            <tspan x="8" y="18">2</tspan>
                        </text>
                    </g>
                </g>
            </g>
        </g>
    </g>
</svg>