<?xml version="1.0" encoding="UTF-8"?>
<svg width="274px" height="596px" viewBox="0 0 274 596" version="1.1" xmlns="http://www.w3.org/2000/svg" xmlns:xlink="http://www.w3.org/1999/xlink">
    <!-- Generator: Sketch 51.3 (57544) - http://www.bohemiancoding.com/sketch -->
    <title>Group 17</title>
    <desc>Created with Sketch.</desc>
    <defs>
        <polygon id="path-1" points="0 32.8216504 119.79798 32.8216504 119.79798 0.0575889081 0 0.0575889081"></polygon>
        <linearGradient x1="50%" y1="0%" x2="50%" y2="100%" id="linearGradient-3">
            <stop stop-color="#F8F8F8" offset="0%"></stop>
            <stop stop-color="#F9F9F9" offset="48.0847263%"></stop>
            <stop stop-color="#F8F8F8" offset="100%"></stop>
        </linearGradient>
        <polyline id="path-4" points="1.05809081e-14 10.8751563 20.4687362 0 70.847389 0 114.663043 82.3427046 114.663043 105.057636 84.1450834 121.272 42.8585067 121.272 0 40.728039"></polyline>
    </defs>
    <g id="Page-1" stroke="none" stroke-width="1" fill="none" fill-rule="evenodd">
        <g id="brilinta" transform="translate(-271.000000, -6020.000000)">
            <g id="Group-17" transform="translate(271.000000, 6022.000000)">
                <g id="Group-22">
                    <g id="Group-13" transform="translate(0.000000, 36.000000)">
                        <g id="home">
                            <g id="homeMobile-v1" transform="translate(18.614130, 116.064000)">
                                <g id="Group-4" stroke-width="1" fill-rule="evenodd" transform="translate(11.913043, 326.069661)">
                                    <g id="calloutV2">
                                        <rect id="Rectangle" fill="#EEEEEE" x="0" y="0" width="214.434783" height="52.9579496"></rect>
                                        <text id="Why-BRILINTA-Works-B" font-family="HelveticaNeue-Medium, Helvetica Neue" font-size="14.8913043" font-weight="400" fill="#4A4A4A">
                                            <tspan x="33.1480435" y="31.3688208">Why BRILINTA Works </tspan>
                                            <tspan x="44.3165217" y="49.3688208">Better Than Plavix</tspan>
                                        </text>
                                    </g>
                                </g>
                                <g id="utilityNavMobile">
                                    <rect id="Rectangle" fill="#EAEAEA" fill-rule="evenodd" x="0" y="0" width="238.26087" height="23.826087"></rect>
                                    <text id="Important-Safety-Inf" font-family="HelveticaNeue-Light, Helvetica Neue" font-size="7.44565217" font-weight="300" line-spacing="10.423913" fill="#4A4A4A">
                                        <tspan x="3.30586957" y="8.48913043">Important Safety </tspan>
                                        <tspan x="11.8572011" y="18.9130435">Information</tspan>
                                    </text>
                                    <text id="Approved-Use" font-family="HelveticaNeue-Light, Helvetica Neue" font-size="7.44565217" font-weight="300" line-spacing="10.423913" fill="#4A4A4A">
                                        <tspan x="74.1326359" y="8.48913043">Approved </tspan>
                                        <tspan x="83.4471467" y="18.9130435">Use</tspan>
                                    </text>
                                    <text id="Prescribing-Informat" font-family="HelveticaNeue-Light, Helvetica Neue" font-size="7.44565217" font-weight="300" line-spacing="10.423913" fill="#4A4A4A">
                                        <tspan x="131.423207" y="8.48913043">Prescribing</tspan>
                                        <tspan x="131.359918" y="18.9130435">Information</tspan>
                                    </text>
                                    <text id="Medication-Guide" font-family="HelveticaNeue-Light, Helvetica Neue" font-size="7.44565217" font-weight="300" line-spacing="10.423913" fill="#4A4A4A">
                                        <tspan x="189.823179" y="8.48913043">Medication </tspan>
                                        <tspan x="197.84587" y="18.9130435">Guide</tspan>
                                    </text>
                                    <polyline id="Line" stroke="#C4C4C4" stroke-width="0.744565217" stroke-linecap="square" points="119.130435 2.97826087 119.130435 13.1519074 119.130435 20.8478261"></polyline>
                                    <polyline id="Line" stroke="#C4C4C4" stroke-width="0.744565217" stroke-linecap="square" points="178.695652 2.97826087 178.695652 13.1519074 178.695652 20.8478261"></polyline>
                                    <polyline id="Line" stroke="#C4C4C4" stroke-width="0.744565217" stroke-linecap="square" points="59.5652174 2.97826087 59.5652174 13.1519074 59.5652174 20.8478261"></polyline>
                                </g>
                                <g id="navMobile" transform="translate(0.000000, 24.209348)" fill-rule="evenodd" stroke-width="1">
                                    <g id="logo" transform="translate(39.461957, 0.744565)">
                                        <g id="Group-30">
                                            <path d="M23.8314067,25.8985173 L24.793369,25.8985173 L24.793369,26.6127405 L23.8314067,26.6127405 L23.8314067,29.6695839 C23.8314067,30.0410928 23.9341003,30.1075415 24.4292018,30.1075415 L24.793369,30.1075415 L24.793369,30.8217648 L24.186292,30.8217648 C23.3643485,30.8217648 23.0375064,30.650609 23.0375064,29.7456979 L23.0375064,26.6127405 L22.2155628,26.6127405 L22.2155628,25.8985173 L23.0375064,25.8985173 L23.0375064,24.4223484 L23.8314067,24.4223484 L23.8314067,25.8985173 Z" id="Fill-1" fill="#5A5A5A"></path>
                                            <mask id="mask-2" fill="white">
                                                <use xlink:href="#path-1"></use>
                                            </mask>
                                            <g id="Clip-4"></g>
                                            <path d="M25.6060505,30.8217447 L26.3999508,30.8217447 L26.3999508,25.8984971 L25.6060505,25.8984971 L25.6060505,30.8217447 Z M25.6060505,25.0129166 L26.3999508,25.0129166 L26.3999508,24.0224277 L25.6060505,24.0224277 L25.6060505,25.0129166 Z" id="Fill-3" fill="#5A5A5A" mask="url(#mask-2)"></path>
                                            <path d="M30.7991065,27.4793126 C30.6776516,26.8603326 30.2573979,26.498489 29.6035164,26.498489 C28.4547307,26.498489 28.0998454,27.4223278 28.0998454,28.4222807 C28.0998454,29.3269903 28.5015353,30.2220347 29.5101047,30.2220347 C30.2759618,30.2220347 30.7337381,29.7649479 30.8364317,29.0221316 L31.6490934,29.0221316 C31.471552,30.2220347 30.7337381,30.936258 29.5195841,30.936258 C28.0437589,30.936258 27.259338,29.8885829 27.259338,28.4222807 C27.259338,26.9461119 28.0064338,25.7842657 29.5381479,25.7842657 C30.6308471,25.7842657 31.5088771,26.3082039 31.6210501,27.4793126 L30.7991065,27.4793126 Z" id="Fill-5" fill="#5A5A5A" mask="url(#mask-2)"></path>
                                            <path d="M35.4132671,28.2792548 C35.1049889,28.5077982 34.5071938,28.5174635 33.9747671,28.6127067 C33.4518198,28.7079499 33.0035229,28.8982349 33.0035229,29.4982871 C33.0035229,30.0314879 33.4518198,30.2219743 33.9374419,30.2219743 C34.983534,30.2219743 35.4132671,29.5554733 35.4132671,29.1078505 L35.4132671,28.2792548 Z M36.7020715,30.8028974 C36.5620527,30.8886767 36.3845113,30.9361976 36.1325171,30.9361976 C35.7215453,30.9361976 35.4598742,30.7078556 35.4598742,30.1744534 C35.0210567,30.6981903 34.4325435,30.9361976 33.760098,30.9361976 C32.882068,30.9361976 32.1630155,30.536297 32.1630155,29.5554733 C32.1630155,28.4413495 32.9754796,28.2031408 33.7974232,28.0412475 C34.6754533,27.8698903 35.422549,27.9268751 35.422549,27.3173589 C35.422549,26.6128009 34.8527972,26.4984286 34.3484137,26.4984286 C33.6759683,26.4984286 33.1808668,26.7080441 33.1435416,27.4317313 L32.3498388,27.4317313 C32.3964459,26.212699 33.321083,25.7842053 34.3952183,25.7842053 C35.263769,25.7842053 36.2071674,25.9843569 36.2071674,27.1363365 L36.2071674,29.669443 C36.2071674,30.0506171 36.2071674,30.2219743 36.4593592,30.2219743 C36.5247276,30.2219743 36.5993779,30.2125104 36.7020715,30.1744534 L36.7020715,30.8028974 Z" id="Fill-6" fill="#5A5A5A" mask="url(#mask-2)"></path>
                                            <path d="M40.7092735,28.2603672 C40.7092735,27.3935132 40.3356269,26.4984688 39.3363394,26.4984688 C38.3182906,26.4984688 37.9073188,27.3459923 37.9073188,28.288759 C37.9073188,29.1743395 38.224879,30.1648284 39.270971,30.1648284 C40.3170631,30.1648284 40.7092735,29.1840047 40.7092735,28.2603672 Z M41.4938919,30.4030371 C41.4938919,32.0028408 40.7746419,32.8215699 39.2522097,32.8215699 C38.3463339,32.8215699 37.3002418,32.4504637 37.2534372,31.3743968 L38.0473376,31.3743968 C38.0846627,31.9645825 38.7758695,32.174198 39.2988168,32.174198 C40.3356269,32.174198 40.7465987,31.4122525 40.7465987,30.3077939 L40.7465987,29.9840073 L40.7280348,29.9840073 C40.4665612,30.5838582 39.8312435,30.8790517 39.2241664,30.8790517 C37.7858639,30.8790517 37.0668114,29.7268708 37.0668114,28.3840022 C37.0668114,27.222156 37.6270839,25.7842456 39.2988168,25.7842456 C39.9060913,25.7842456 40.4477999,26.0603099 40.7373168,26.6033773 L40.7280348,26.6033773 L40.7465987,26.6033773 L40.7465987,25.8986179 L41.4938919,25.8986179 L41.4938919,30.4030371 Z" id="Fill-7" fill="#5A5A5A" mask="url(#mask-2)"></path>
                                            <path d="M42.5495226,25.8985173 L43.2968159,25.8985173 L43.2968159,26.9365271 L43.3153797,26.9365271 C43.6983083,26.1459885 44.2307349,25.7555518 45.0900037,25.7843462 L45.0900037,26.6411323 C43.8104812,26.6411323 43.343423,27.38415 43.343423,28.6315741 L43.343423,30.8217648 L42.5495226,30.8217648 L42.5495226,25.8985173 Z" id="Fill-8" fill="#5A5A5A" mask="url(#mask-2)"></path>
                                            <path d="M48.7624839,27.8887174 C48.7251588,27.1175093 48.1554069,26.4985292 47.3707885,26.4985292 C46.539563,26.4985292 46.0444615,27.1364372 45.988375,27.8887174 L48.7624839,27.8887174 Z M49.528341,29.2601792 C49.3134744,30.3459113 48.5476174,30.9362983 47.4642001,30.9362983 C45.9230066,30.9362983 45.1946721,29.8505661 45.1478676,28.3460056 C45.1478676,26.8698368 46.100548,25.784306 47.4173956,25.784306 C49.1268486,25.784306 49.6495984,27.4129042 49.6029913,28.6031421 L45.988375,28.6031421 C45.9605292,29.4601295 46.4368694,30.222075 47.4920459,30.222075 C48.146125,30.222075 48.6035064,29.8980871 48.7437226,29.2601792 L49.528341,29.2601792 Z" id="Fill-9" fill="#5A5A5A" mask="url(#mask-2)"></path>
                                            <polygon id="Fill-10" fill="#5A5A5A" mask="url(#mask-2)" points="50.3597442 30.821946 51.1538421 30.821946 51.1538421 24.0224277 50.3597442 24.0224277"></polygon>
                                            <path d="M54.3573286,30.2220549 C55.1885541,30.2220549 55.8609995,29.5553525 55.8609995,28.3649133 C55.8609995,27.1650101 55.1885541,26.4985091 54.3573286,26.4985091 C53.5261031,26.4985091 52.8536577,27.1650101 52.8536577,28.3649133 C52.8536577,29.5553525 53.5261031,30.2220549 54.3573286,30.2220549 M54.3573286,25.7842858 C55.8890428,25.7842858 56.7017044,26.9175389 56.7017044,28.3649133 C56.7017044,29.8030251 55.8890428,30.9362781 54.3573286,30.9362781 C52.825417,30.9362781 52.0131503,29.8030251 52.0131503,28.3649133 C52.0131503,26.9175389 52.825417,25.7842858 54.3573286,25.7842858" id="Fill-11" fill="#5A5A5A" mask="url(#mask-2)"></path>
                                            <path d="M57.495901,25.8985173 L58.2429968,25.8985173 L58.2429968,26.9365271 L58.2617581,26.9365271 C58.6446866,26.1459885 59.1771133,25.7555518 60.0361846,25.7843462 L60.0361846,26.6411323 C58.7568596,26.6411323 58.2898013,27.38415 58.2898013,28.6315741 L58.2898013,30.8217648 L57.495901,30.8217648 L57.495901,25.8985173 Z" id="Fill-12" fill="#5A5A5A" mask="url(#mask-2)"></path>
                                            <path d="M64.1088538,25.8985173 L65.0708161,25.8985173 L65.0708161,26.6127405 L64.1088538,26.6127405 L64.1088538,29.6695839 C64.1088538,30.0410928 64.2117448,30.1075415 64.7064514,30.1075415 L65.0708161,30.1075415 L65.0708161,30.8217648 L64.4639366,30.8217648 C63.641993,30.8217648 63.314756,30.650609 63.314756,29.7456979 L63.314756,26.6127405 L62.4930099,26.6127405 L62.4930099,25.8985173 L63.314756,25.8985173 L63.314756,24.4223484 L64.1088538,24.4223484 L64.1088538,25.8985173 Z" id="Fill-13" fill="#5A5A5A" mask="url(#mask-2)"></path>
                                            <path d="M68.8256092,28.2792548 C68.517331,28.5077982 67.9195359,28.5174635 67.3871092,28.6127067 C66.8641619,28.7079499 66.4158649,28.8982349 66.4158649,29.4982871 C66.4158649,30.0314879 66.8641619,30.2219743 67.349784,30.2219743 C68.3958761,30.2219743 68.8256092,29.5554733 68.8256092,29.1078505 L68.8256092,28.2792548 Z M70.1144135,30.8028974 C69.9741973,30.8886767 69.7968534,30.9361976 69.5446617,30.9361976 C69.1336899,30.9361976 68.8722162,30.7078556 68.8722162,30.1744534 C68.4333987,30.6981903 67.8448855,30.9361976 67.1724401,30.9361976 C66.2946075,30.9361976 65.57516,30.536297 65.57516,29.5554733 C65.57516,28.4413495 66.3878217,28.2031408 67.2095678,28.0412475 C68.0877953,27.8698903 68.8348911,27.9268751 68.8348911,27.3173589 C68.8348911,26.6128009 68.2651392,26.4984286 67.7607558,26.4984286 C67.0883104,26.4984286 66.5932088,26.7080441 66.5558837,27.4317313 L65.7619833,27.4317313 C65.8087879,26.212699 66.7332276,25.7842053 67.8075604,25.7842053 C68.676111,25.7842053 69.6195095,25.9843569 69.6195095,27.1363365 L69.6195095,29.669443 C69.6195095,30.0506171 69.6195095,30.2219743 69.8717012,30.2219743 C69.9368721,30.2219743 70.01172,30.2125104 70.1144135,30.1744534 L70.1144135,30.8028974 Z" id="Fill-14" fill="#5A5A5A" mask="url(#mask-2)"></path>
                                            <path d="M73.0102539,26.4984688 C71.9454005,26.4984688 71.5344287,27.4317716 71.5344287,28.3556104 C71.5344287,29.3269702 71.9641618,30.2220146 73.0568609,30.2220146 C74.1404756,30.2220146 74.5044454,29.2792479 74.5044454,28.3173521 C74.5044454,27.3935132 74.0373871,26.4984688 73.0102539,26.4984688 Z M70.7685716,24.0223472 L71.5624719,24.0223472 L71.5624719,26.5651189 L71.5812333,26.5651189 C71.8427069,26.0222529 72.4590658,25.7842456 73.1222293,25.7842456 C74.6073364,25.7842456 75.3451503,26.9841487 75.3451503,28.3743369 C75.3451503,29.7649278 74.6168158,30.9362379 73.1409907,30.9362379 C72.6458891,30.9362379 71.9361186,30.7459528 71.5812333,30.1648284 L71.5624719,30.1648284 L71.5624719,30.8218655 L70.7685716,30.8218655 L70.7685716,24.0223472 Z" id="Fill-15" fill="#5A5A5A" mask="url(#mask-2)"></path>
                                            <polygon id="Fill-16" fill="#5A5A5A" mask="url(#mask-2)" points="76.2142341 30.821946 77.0081345 30.821946 77.0081345 24.0224277 76.2142341 24.0224277"></polygon>
                                            <path d="M81.4817826,27.8887174 C81.4444574,27.1175093 80.8747056,26.4985292 80.0900871,26.4985292 C79.2588617,26.4985292 78.7637601,27.1364372 78.7078711,27.8887174 L81.4817826,27.8887174 Z M82.2476397,29.2601792 C82.0327731,30.3459113 81.266916,30.9362983 80.1836963,30.9362983 C78.6423052,30.9362983 77.9139708,29.8505661 77.8671662,28.3460056 C77.8671662,26.8698368 78.8198466,25.784306 80.1366942,25.784306 C81.8459498,25.784306 82.3690946,27.4129042 82.3224875,28.6031421 L78.7078711,28.6031421 C78.6798279,29.4601295 79.1561681,30.222075 80.2115421,30.222075 C80.8652262,30.222075 81.3230025,29.8980871 81.4630213,29.2601792 L82.2476397,29.2601792 Z" id="Fill-17" fill="#5A5A5A" mask="url(#mask-2)"></path>
                                            <path d="M84.1345551,25.8985173 L85.0965174,25.8985173 L85.0965174,26.6127405 L84.1345551,26.6127405 L84.1345551,29.6695839 C84.1345551,30.0410928 84.2374462,30.1075415 84.7321527,30.1075415 L85.0965174,30.1075415 L85.0965174,30.8217648 L84.4894404,30.8217648 C83.6676943,30.8217648 83.3404573,30.650609 83.3404573,29.7456979 L83.3404573,26.6127405 L82.5187112,26.6127405 L82.5187112,25.8985173 L83.3404573,25.8985173 L83.3404573,24.4223484 L84.1345551,24.4223484 L84.1345551,25.8985173 Z" id="Fill-18" fill="#5A5A5A" mask="url(#mask-2)"></path>
                                            <path d="M86.3483916,29.2695223 C86.3762374,29.9936122 86.9927938,30.2219542 87.6464779,30.2219542 C88.1415794,30.2219542 88.8138273,30.1075818 88.8138273,29.4886017 C88.8138273,28.8601577 88.0296039,28.7554506 87.2355061,28.5746295 C86.4510852,28.393607 85.6571848,28.1270066 85.6571848,27.18424 C85.6571848,26.193751 86.6191472,25.7841852 87.4596546,25.7841852 C88.5247054,25.7841852 89.3742973,26.1273023 89.4396657,27.3270041 L88.6459629,27.3270041 C88.5898764,26.6985601 88.0479703,26.4984084 87.5252205,26.4984084 C87.0486828,26.4984084 86.4976923,26.6317086 86.4976923,27.1268524 C86.4976923,27.7077755 87.3383972,27.8032201 88.076211,27.9840412 C88.8701113,28.1650636 89.6545322,28.4318654 89.6545322,29.3838946 C89.6545322,30.5554061 88.5805944,30.9361775 87.5998708,30.9361775 C86.5164536,30.9361775 85.6010984,30.488756 85.5542938,29.2695223 L86.3483916,29.2695223 Z" id="Fill-19" fill="#5A5A5A" mask="url(#mask-2)"></path>
                                            <path d="M24.4451786,18.2885458 L24.4451786,19.7683391 L32.7769848,19.7683391 C33.1020495,19.7683391 33.2649768,19.6360457 33.2649768,19.3815269 L33.2649768,18.5756849 C33.2649768,18.3876148 33.1237731,18.2885458 32.8307014,18.2885458 L24.4451786,18.2885458 Z M24.4451786,15.0430282 L24.4451786,16.4463048 L32.8425507,16.4463048 C33.1237731,16.4463048 33.2649768,16.3240794 33.2649768,16.0909047 L33.2649768,15.3857426 C33.2649768,15.153172 33.1020495,15.0430282 32.7769848,15.0430282 L24.4451786,15.0430282 Z M22.3298884,12.9891581 L32.7769848,12.9891581 C34.4485202,12.9891581 35.2833005,13.7072072 35.2833005,15.1412918 L35.2833005,15.9380726 C35.2833005,16.500672 35.0338736,16.9525234 34.5454867,17.2851698 C35.0986495,17.5280097 35.3802669,17.9361661 35.3802669,18.4987654 L35.3802669,19.6590007 C35.3802669,21.1061737 34.5127037,21.8216052 32.7769848,21.8216052 L22.3298884,21.8216052 L22.3298884,12.9891581 Z" id="Fill-20" fill="#5A5A5A" mask="url(#mask-2)"></path>
                                            <path d="M40.1023347,15.042988 L40.1023347,16.4462645 L48.4997069,16.4462645 C48.7807318,16.4462645 48.9211455,16.3240391 48.9211455,16.0910658 L48.9211455,15.3857024 C48.9211455,15.1531318 48.7594031,15.042988 48.4345359,15.042988 L40.1023347,15.042988 Z M37.9862546,12.9891178 L48.4345359,12.9891178 C50.1052814,12.9891178 50.9402592,13.7071669 50.9402592,15.1412515 L50.9402592,15.9380323 C50.9402592,17.4274909 50.1052814,18.1771535 48.4345359,18.1771535 L47.706399,18.1771535 L51.2979093,21.8215649 L48.369365,21.8215649 L44.9950911,18.2885055 L40.1023347,18.2885055 L40.1023347,21.8215649 L37.9862546,21.8215649 L37.9862546,12.9891178 Z" id="Fill-21" fill="#5A5A5A" mask="url(#mask-2)"></path>
                                            <polygon id="Fill-22" fill="#5A5A5A" mask="url(#mask-2)" points="53.5511446 21.8215649 55.6678171 21.8215649 55.6678171 12.9891178 53.5511446 12.9891178"></polygon>
                                            <polygon id="Fill-23" fill="#5A5A5A" mask="url(#mask-2)" points="72.7690622 21.8215649 74.8849448 21.8215649 74.8849448 12.9891178 72.7690622 12.9891178"></polygon>
                                            <path d="M60.8859937,21.821585 C59.1398079,21.821585 58.2714547,21.1061536 58.2714547,19.6805261 L58.2714547,12.9891379 L60.3981992,12.9891379 L60.3981992,19.3482824 C60.3981992,19.6249508 60.560929,19.7683189 60.8859937,19.7683189 L70.3470342,19.7683189 L70.3470342,21.821585 L60.8859937,21.821585 Z" id="Fill-24" fill="#5A5A5A" mask="url(#mask-2)"></path>
                                            <path d="M80.6463308,15.7063477 C80.3437798,15.3412824 79.8777089,15.0430685 79.4106507,15.0430685 L79.3008475,15.0430685 L79.3008475,21.8216454 L77.239274,21.8216454 L77.239274,12.988997 L79.4106507,12.988997 C80.5697056,12.988997 81.2761189,13.3532569 82.003071,14.1816512 L86.2000784,19.1057042 C86.5032219,19.4590907 86.9609983,19.768178 87.428649,19.768178 L87.5370697,19.768178 L87.5370697,12.988997 L89.6089126,12.988997 L89.6089126,21.8216454 L87.428649,21.8216454 C86.221802,21.8216454 85.4521927,21.4463107 84.7455819,20.57402 L80.6463308,15.7063477 Z" id="Fill-25" fill="#5A5A5A" mask="url(#mask-2)"></path>
                                            <polygon id="Fill-26" fill="#5A5A5A" mask="url(#mask-2)" points="91.5152806 12.9890775 103.676372 12.9890775 103.676372 15.0429477 98.6971162 15.0429477 98.6971162 21.8215246 96.5806412 21.8215246 96.5806412 15.0429477 91.5152806 15.0429477"></polygon>
                                            <path d="M106.499458,18.1449964 L111.468642,18.1449964 L109.959837,15.4512047 C109.797304,15.1531922 109.602581,15.0430484 109.397194,15.0430484 L108.560044,15.0430484 C108.332538,15.0430484 108.138013,15.1868193 107.985553,15.4626822 L106.499458,18.1449964 Z M112.510192,20.0897295 L105.46956,20.0897295 L104.51293,21.8216253 L102.061318,21.8216253 L106.607089,13.7406531 C106.880412,13.2426902 107.162029,12.9891782 107.879304,12.9891782 L110.068652,12.9891782 C110.665855,12.9891782 111.1104,13.2326222 111.393399,13.7287728 L115.927518,21.8216253 L113.487163,21.8216253 L112.510192,20.0897295 Z" id="Fill-27" fill="#5A5A5A" mask="url(#mask-2)"></path>
                                            <polygon id="Fill-28" fill="#5A5A5A" mask="url(#mask-2)" points="116.810091 20.2868003 118.029182 20.2868003 118.029182 20.5181628 117.550472 20.5181628 117.550472 21.817739 117.286628 21.817739 117.286628 20.5181628 116.810091 20.5181628"></polygon>
                                            <polygon id="Fill-29" fill="#5A5A5A" mask="url(#mask-2)" points="118.234944 20.2868003 118.606418 20.2868003 119.021932 21.485294 119.02608 21.485294 119.431127 20.2868003 119.798059 20.2868003 119.798059 21.817739 119.547052 21.817739 119.547052 20.6359583 119.542905 20.6359583 119.125416 21.817739 118.907982 21.817739 118.490493 20.6359583 118.485951 20.6359583 118.485951 21.817739 118.234944 21.817739"></polygon>
                                        </g>
                                        <path d="M18.0728315,12.6576087 C18.0080543,12.4099299 17.941788,12.1617415 17.8695652,11.9130435 C17.9309918,12.0511524 17.9972582,12.1872229 18.0586848,12.3288992 C18.0665027,12.4287861 18.0683641,12.5398848 18.0728315,12.6576087" id="Fill-64" fill="#9B9B9B"></path>
                                    </g>
                                    <g id="Menu" transform="translate(15.635870, 11.168478)">
                                        <rect id="Rectangle-6" fill="#9B9B9B" x="0" y="0" width="22.3369565" height="2.23369565"></rect>
                                        <rect id="Rectangle-6" fill="#9B9B9B" x="0" y="5.21195652" width="22.3369565" height="2.23369565"></rect>
                                        <rect id="Rectangle-6" fill="#9B9B9B" x="0" y="10.423913" width="22.3369565" height="2.23369565"></rect>
                                        <text id="MENU" font-family="Avenir-Medium, Avenir" font-size="7.44565217" font-weight="400" letter-spacing="-0.165459072" fill="#4A4A4A">
                                            <tspan x="0.2676301" y="21.8913043">MENU</tspan>
                                        </text>
                                    </g>
                                    <g id="Group-2" transform="translate(173.483696, 11.168478)">
                                        <g id="Group">
                                            <rect id="Rectangle" fill="#00A4FF" x="0" y="0" width="59.5652174" height="25.3152174" rx="2.97826087"></rect>
                                            <text id="Save-Now-On-BRILINTA" font-family="HelveticaNeue-Light, Helvetica Neue" font-size="7.44565217" font-weight="300" line-spacing="10.423913" fill="#FFFFFF">
                                                <tspan x="13.3649457" y="9.23369565">Save Now </tspan>
                                                <tspan x="8.58855978" y="19.6576087">On BRILINTA</tspan>
                                            </text>
                                        </g>
                                    </g>
                                </g>
                                <g id="hero" stroke-width="1" fill-rule="evenodd" transform="translate(0.000000, 69.601877)" stroke="#CACACA">
                                    <g id="image" stroke-width="0.744565217">
                                        <rect id="Rectangle" x="0.372282609" y="0.372282609" width="237.516304" height="241.348919"></rect>
                                        <path d="M0,242.093484 L238.26087,0" id="Path"></path>
                                        <path d="M0,0 L238.26087,242.093484" id="Path"></path>
                                    </g>
                                </g>
                                <g id="Group-2" stroke-width="1" fill-rule="evenodd" transform="translate(11.913043, 130.881790)">
                                    <g id="btn" transform="translate(52.119565, 72.628045)">
                                        <rect id="Rectangle-2" fill="#00A4FF" x="0" y="0" width="110.195652" height="24.2093484" rx="5.95652174"></rect>
                                        <text id="Learn-More" font-family="HelveticaNeue, Helvetica Neue" font-size="11.9130435" font-weight="normal" fill="#FFFFFF">
                                            <tspan x="25.0203696" y="16.4083955">Learn More</tspan>
                                        </text>
                                    </g>
                                    <text id="Lorem-Ipsum-Dolor" font-family="HelveticaNeue-Light, Helvetica Neue" font-size="17.8695652" font-weight="300" fill="#4A4A4A">
                                        <tspan x="28.3649565" y="17">Lorem Ipsum Dolor</tspan>
                                    </text>
                                    <text id="Sed-ut-perspiciatis" font-family="HelveticaNeue-Thin, Helvetica Neue" font-size="10.423913" font-weight="300" line-spacing="17.8695652" fill="#4A4A4A">
                                        <tspan x="1.22480978" y="38.4411936">Sed ut perspiciatis unde omnis iste natus error </tspan>
                                        <tspan x="42.7067717" y="56.3107588">sit voluptatem accusantium </tspan>
                                    </text>
                                </g>
                            </g>
                            <g id="iphone6">
                                <g fill="#FFFFFF" id="Apple-iPhone-6" stroke="#979797">
                                    <path d="M273.165291,118.467168 L272.070587,118.467168 L272.070587,41.3285467 C272.070587,18.6533975 253.692526,0.27548913 231.012842,0.27548913 L42.9871582,0.27548913 C20.3127463,0.27548913 1.92941267,18.6577681 1.92941267,41.3285467 L1.92941267,70.640768 L0.83470949,70.640768 C0.52594477,70.640768 0.27548913,70.8897477 0.27548913,71.1941799 L0.27548913,92.0752563 C0.27548913,92.3782104 0.528899987,92.6286681 0.83470949,92.6286681 L1.92941267,92.6286681 L1.92941267,118.467168 L0.83470949,118.467168 C0.52515841,118.467168 0.27548913,118.71357 0.27548913,119.015257 L0.27548913,158.597757 C0.27548913,158.89738 0.528509339,159.145846 0.83470949,159.145846 L1.92941267,159.145846 L1.92941267,169.042213 L0.83470949,169.042213 C0.52515841,169.042213 0.27548913,169.288614 0.27548913,169.590302 L0.27548913,209.172801 C0.27548913,209.472424 0.528509339,209.72089 0.83470949,209.72089 L1.65392354,209.72089 L1.92941267,209.72089 L1.92941267,516.096397 C1.92941267,538.771546 20.3074739,557.149454 42.9871582,557.149454 L231.012842,557.149454 C253.687254,557.149454 272.070587,538.767176 272.070587,516.096397 L272.070587,159.145846 L273.165291,159.145846 C273.474842,159.145846 273.724511,158.899444 273.724511,158.597757 L273.724511,119.015257 C273.724511,118.715634 273.471491,118.467168 273.165291,118.467168 Z M18.3386413,488.998657 L18.3386413,67.3587374 L257.150489,67.3587374 L257.150489,489.001935 L18.3386413,488.998657 Z M136.724346,540.658842 C125.002175,540.658842 115.499159,531.183044 115.499159,519.49366 C115.499159,507.804276 125.002175,498.328479 136.724346,498.328479 C148.446517,498.328479 157.949533,507.804276 157.949533,519.49366 C157.949533,531.183044 148.446517,540.658842 136.724346,540.658842 Z M136.724346,537.908949 C146.924657,537.908949 155.193324,529.663966 155.193324,519.49366 C155.193324,509.323355 146.924657,501.078372 136.724346,501.078372 C126.524035,501.078372 118.255368,509.323355 118.255368,519.49366 C118.255368,529.663966 126.524035,537.908949 136.724346,537.908949 Z M93.722334,39.8559585 C91.1345308,39.8559585 89.0363821,37.7638195 89.0363821,35.1826394 C89.0363821,32.6014594 91.1345308,30.5093204 93.722334,30.5093204 C96.3101372,30.5093204 98.4082859,32.6014594 98.4082859,35.1826394 C98.4082859,37.7638195 96.3101372,39.8559585 93.722334,39.8559585 Z M137.275654,20.6154526 C135.601288,20.6154526 134.243626,19.2616793 134.243626,17.5913197 C134.243626,15.9209601 135.601288,14.5671869 137.275654,14.5671869 C138.95002,14.5671869 140.307682,15.9209601 140.307682,17.5913197 C140.307682,19.2616793 138.95002,20.6154526 137.275654,20.6154526 Z M117.425585,32.7082353 L157.125723,32.7082353 C158.496034,32.7082353 159.603457,33.8150083 159.603457,35.1826394 C159.603457,36.5550158 158.496817,37.6570435 157.125723,37.6570435 L117.425585,37.6570435 C116.055273,37.6570435 114.947851,36.5502705 114.947851,35.1826394 C114.947851,33.8102631 116.054491,32.7082353 117.425585,32.7082353 Z" stroke-width="0.550978261"></path>
                                </g>
                                <g id="Nav-Bar" transform="translate(18.614130, 67.634226)">
                                    <g id="Nav-Bar-Background">
                                        <rect id="Background" fill-opacity="0.65" fill="url(#linearGradient-3)" x="0" y="0" width="238.26087" height="47.5669285"></rect>
                                        <rect id="Line" fill="#000000" opacity="0.4" x="0" y="47.5669285" width="238.26087" height="1"></rect>
                                    </g>
                                    <g id="Status-Bar">
                                        <rect id="Background" fill-opacity="0" fill="#FFFFFF" x="0" y="0" width="238.26087" height="15.4291461"></rect>
                                        <g id="Battery" transform="translate(195.076087, 2.257924)">
                                            <g id="Battery-Icon" transform="translate(20.847826, 1.881603)">
                                                <rect id="Battery" stroke="#000000" stroke-width="0.5" x="0.25" y="0.25" width="16.2527174" height="6.6500921" rx="1.11684783"></rect>
                                                <path d="M13.8967391,6.14745083 L13.8967391,1.00264127 L1.11700398,1.00264127 C1.04772697,1.00264127 0.994565217,1.05521509 0.994565217,1.12301299 L0.994565217,6.02707911 C0.994565217,6.09203854 1.05056646,6.14745083 1.11700398,6.14745083 L13.8967391,6.14745083 Z" id="Charge" stroke="#000000" stroke-width="0.5" fill="#000000"></path>
                                                <path d="M18.2418478,3.56170758 C18.2418478,4.22525011 17.7564455,4.77419108 17.125,4.86549134 L17.125,2.25792382 C17.7564455,2.34922409 18.2418478,2.89816505 18.2418478,3.56170758 Z" id="+" fill="#000000"></path>
                                            </g>
                                            <text id="89%" font-family="HelveticaNeue, Helvetica Neue" font-size="8.93478261" font-weight="normal" fill="#000000">
                                                <tspan x="0" y="9">89%</tspan>
                                            </text>
                                        </g>
                                        <path d="M187.204368,10.8146621 L187.204368,8.13660321 L188.479064,9.53986255 L187.204368,10.8146621 L187.204368,10.8146621 L187.204368,10.8146621 L187.204368,10.8146621 Z M188.537578,5.529306 L187.204368,6.88502797 L187.204368,4.31655899 L188.537578,5.529306 L188.537578,5.529306 L188.537578,5.529306 L188.537578,5.529306 Z M187.524619,7.53458427 L189.502885,5.529306 L186.551253,2.63424446 L186.481527,2.63424446 L186.481527,6.66076776 L184.478033,4.53755328 L183.907609,5.1399351 L186.318248,7.53458427 L183.907609,9.92887057 L184.478033,10.5312524 L186.481527,8.40803791 L186.481527,12.4341983 L186.609066,12.4341983 L189.531616,9.53187918 L187.524619,7.53458427 L187.524619,7.53458427 Z" id="Bluetooth-Icon" fill="#000000" opacity="0.45"></path>
                                        <path d="M39.4587933,5.60407414 C40.9030805,5.60407414 42.2193505,6.14189303 43.2286025,7.0237824 L43.9293478,6.24173657 C42.7340243,5.1928227 41.1728842,4.45939955 39.4587933,4.45939955 C37.7473074,4.45939955 36.1884001,5.1905957 34.9945652,6.23616908 L35.693822,7.01932841 C36.7023297,6.1400372 38.0163668,5.60407414 39.4587933,5.60407414 L39.4587933,5.60407414 Z M39.4587933,7.86150307 C40.3243981,7.86150307 41.115202,8.17922079 41.7251445,8.70256423 L42.4664535,7.87486503 C41.6596473,7.17484678 40.6102039,6.71757081 39.4587933,6.71757081 C38.3096156,6.71757081 37.2609164,7.17373329 36.4548546,7.87152454 L37.1950471,8.70033724 C37.8046174,8.17810729 38.594305,7.86150307 39.4587933,7.86150307 L39.4587933,7.86150307 Z M40.9834634,9.53026343 C40.5707568,9.18396596 40.0393365,8.94419301 39.4584212,8.94419301 C38.8786223,8.94419301 38.3479463,9.18359479 37.9352396,9.5284076 L39.4584212,11.233171 L40.9834634,9.53026343 L40.9834634,9.53026343 Z" id="Wifi" fill="#0C0000"></path>
                                        <g id="Signal" transform="translate(4.839674, 5.644810)">
                                            <ellipse id="Oval-1" fill="#000000" cx="2.04755435" cy="2.0697635" rx="2.04755435" ry="2.0697635"></ellipse>
                                            <ellipse id="Oval-1-copy" fill="#000000" cx="7.25951087" cy="2.0697635" rx="2.04755435" ry="2.0697635"></ellipse>
                                            <ellipse id="Oval-1-copy-2" fill="#000000" cx="12.4714674" cy="2.0697635" rx="2.04755435" ry="2.0697635"></ellipse>
                                            <ellipse id="Oval-1-copy-3" stroke="#000000" stroke-width="0.5" cx="17.6834239" cy="2.0697635" rx="1.79755435" ry="1.8197635"></ellipse>
                                            <ellipse id="Oval-1-copy-4" stroke="#000000" stroke-width="0.5" cx="22.8953804" cy="2.0697635" rx="1.79755435" ry="1.8197635"></ellipse>
                                        </g>
                                        <text id="9:57-AM" font-family="HelveticaNeue-Medium, Helvetica Neue" font-size="8.93478261" font-weight="400" letter-spacing="0.223369441" fill="#000000">
                                            <tspan x="101.648044" y="11.2579238">9:57 AM</tspan>
                                        </text>
                                    </g>
                                    <rect id="Url-Text-Field" fill="#E6E7E8" x="7.07336957" y="17.8375982" width="224.11413" height="21.5537645" rx="4.4673913"></rect>
                                    <path d="M218.902174,25.4750646 C217.123905,25.6607602 215.737772,27.1618438 215.737772,28.9860971 C215.737772,30.9358599 217.321199,32.516455 219.274457,32.516455 C221.227714,32.516455 222.811141,30.9358599 222.811141,28.9860971 L223.927989,28.9860971 C223.927989,31.5515745 221.844532,33.6313049 219.274457,33.6313049 C216.704381,33.6313049 214.620924,31.5515745 214.620924,28.9860971 C214.620924,26.5457082 216.506162,24.5448527 218.902174,24.3555374 L218.902174,22.6686144 L222.252717,24.8983141 L218.902174,27.1280139 L218.902174,25.4750646 Z" id="Refresh" fill="#000000"></path>
                                    <text id="brilinta.com" font-family="HelveticaNeue, Helvetica Neue" font-size="12.6576087" font-weight="normal" fill="#000000">
                                        <tspan x="86.1409837" y="32.8105312">brilinta.com</tspan>
                                    </text>
                                </g>
                            </g>
                        </g>
                        <g id="hand" transform="translate(30.527174, 136.896000)">
                            <mask id="mask-5" fill="white">
                                <use xlink:href="#path-4"></use>
                            </mask>
                            <g id="Clip-2"></g>
                            <path d="M62.9256379,91.5087022 C62.9256379,91.5087022 56.7309187,89.077104 52.8574636,86.394183 C48.9890858,83.7111446 42.2936415,81.5467199 39.6384306,79.9555977 C36.9742187,78.3667295 35.9215211,73.4599971 32.7936248,70.4764731 C29.6687717,67.4938831 26.2273495,63.4039009 24.7371625,62.4674542 C23.2399642,61.5321875 19.1105453,60.0882515 18.3170998,59.9617036 C17.5247132,59.8371524 17.436046,56.2448102 21.0293321,54.9643753 C24.6205002,53.6799637 32.3196966,55.6847688 36.03781,59.4455172 C36.03781,59.4455172 25.264183,38.9338818 23.138991,34.4178449 C21.0165969,29.8925796 19.1922178,23.0291476 22.0561357,21.4063857 C24.9241556,19.7865321 27.2006876,21.8559535 28.5181494,24.3425032 C29.8356169,26.8289969 41.1077675,47.3482612 42.0973743,47.9123743 C42.7550797,48.2878345 41.9944671,46.693541 41.9944671,46.693541 C41.9944671,46.693541 36.9429909,38.357464 41.6573658,35.931431 C46.3717462,33.5054538 49.5007181,36.4909578 51.2312578,39.7571759 C51.2312578,39.7571759 54.3095006,37.1631842 57.3578701,38.1301633 C59.9576925,38.9528422 61.9553652,41.1454221 61.9553652,41.1454221 C61.9553652,41.1454221 63.3594153,39.557337 65.9425176,39.7520304 C68.1967895,39.9226737 75.6624661,43.8630199 80.1078075,50.7040238 C84.5490245,57.542069 84.26127,68.3562557 84.7109874,70.4028911 C85.1526791,72.4487156 87.352889,77.1063568 87.8426234,78.2134357 C88.3412195,79.3132158 77.1776498,95.9330916 62.9256379,91.5087022" id="Fill-4" fill-opacity="0.7417" fill="#FFFFFE" mask="url(#mask-5)"></path>
                            <path d="M77.4191654,90.5753664 C72.6121224,93.1137415 67.7731598,93.6633264 63.0319123,92.2038571 C62.7057297,92.0816031 56.592894,89.6885381 52.6606464,86.9945322 C50.4124739,85.4549908 47.1516819,84.0820336 44.2745443,82.867 C42.2924943,82.0298206 40.5799601,81.3092879 39.4513011,80.6384041 C37.8194097,79.672181 36.7826968,77.8026522 35.6866449,75.8222893 C34.7555235,74.1356556 33.7918006,72.397691 32.4088925,71.094341 C31.1023731,69.8572839 29.7397906,68.4391081 28.4836996,67.1195694 C26.8263621,65.3848192 25.2593215,63.7471015 24.4910342,63.2718262 C23.0765085,62.3964622 19.0432422,61.0226667 18.442032,60.9263115 C17.7801468,60.8264531 17.3056531,60.2696622 17.1663812,59.4317666 C16.923916,57.9857269 17.690325,55.1437404 20.9782291,53.9889539 C24.0857572,52.8887739 29.3683393,53.9125625 33.4465501,56.0674486 C30.2052339,49.9416549 24.0763267,38.3030749 22.5045066,34.994818 C20.4696301,30.702245 18.0418587,22.8825116 21.8473618,20.7511592 L21.8513476,20.7490495 C24.8427804,19.1693693 27.8151287,20.4762946 29.7426751,24.0766264 C30.8892392,26.2181384 35.5030659,34.515984 39.0152058,40.5698333 C38.9224492,39.6946636 38.9542178,38.8324849 39.1724499,38.0368155 C39.5220718,36.7655876 40.2986939,35.8096407 41.4705476,35.1908485 C45.5768766,33.0960817 49.3255842,34.2773721 51.935498,38.3881825 C53.2379366,37.5836304 55.6198244,36.4984954 58.0686817,37.266906 C59.9720565,37.8663228 61.5580811,39.0954688 62.4298021,39.8689869 C63.4014741,39.2010066 64.9697781,38.7257812 66.4417086,38.834539 C69.1398287,39.037176 76.8760308,43.2209912 81.4375565,50.1653328 C85.0753732,55.7186576 85.6635081,63.5831266 85.9752124,67.8132596 C86.0500639,68.8603377 86.1023314,69.650261 86.1944563,70.0611256 C86.5626765,71.7276676 88.2802363,75.4515025 89.0160618,77.0407038 L89.2706352,77.606977 C90.1076975,79.4473705 84.0038619,87.0982601 77.4191654,90.5753664 M19.1850967,59.0004774 C20.6354494,59.3745452 24.1677305,60.6625281 25.5821277,61.5328845 C26.5721073,62.1500556 28.0728437,63.7212306 29.980003,65.7125026 C31.207987,66.9986479 32.5469569,68.4013621 33.83054,69.6099113 C35.4402107,71.1362563 36.5297781,73.0997365 37.493501,74.8377012 C38.4499288,76.5668275 39.3524401,78.2000205 40.5096254,78.8812194 C41.51822,79.4758674 43.2482681,80.2100073 45.0834101,80.9876614 C48.0492012,82.2345839 51.4121524,83.6551413 53.8277486,85.3068492 C57.5718891,87.8691467 63.6561593,90.2518911 63.7203896,90.2763686 C67.8408001,91.5406956 72.1469138,91.0414703 76.451686,88.7682997 C82.6816343,85.4785189 86.7664917,79.6097188 87.2792162,78.1990434 L87.1411406,77.888598 C86.3135814,76.1041212 84.5959658,72.3802864 84.183975,70.4982274 C84.0712226,69.9916016 84.0084457,69.1437852 83.9140848,67.9648154 C83.6212751,63.9227406 83.0607553,56.3915234 79.7078103,51.2843886 C75.4905792,44.8589642 68.2993564,41.0246284 66.2871981,40.8761205 C65.4394028,40.810999 64.6567322,40.9678345 63.9532175,41.3392986 C63.4191389,41.6213804 63.1379007,41.9221714 63.1379007,41.9221714 L62.378988,42.7393259 L61.6104604,41.9341076 C61.589777,41.9145656 59.7416883,39.94288 57.4484036,39.2167179 C54.9618691,38.4352609 52.2848796,40.6307909 52.2690596,40.644226 L51.2947602,41.4506657 L50.7003084,40.3403261 C49.2527955,37.6366491 46.6481196,34.8534163 42.4838715,36.9736653 L42.4798858,36.9757749 C41.7743754,37.3483494 41.3572083,37.8631584 41.1591285,38.5770512 C40.4924749,40.9703328 42.4292954,44.8982703 43.228781,46.2101365 C43.5398536,46.8531897 44.246331,48.3207811 43.1442251,48.9027656 L42.6420044,49.1679703 L41.943219,48.8464159 C40.4507168,48.0020581 28.0439037,25.2630798 27.9231015,25.0374588 C27.1156332,23.5292289 25.3946635,21.1934075 22.9532914,22.4825673 C20.9110975,23.6244406 22.1260621,29.3984842 24.3656594,34.1211473 C26.4642407,38.5375231 37.1769166,58.7233588 37.2860634,58.9272227 L40.5025036,64.9874231 L35.6410576,60.123386 C32.1625533,56.6439203 24.8227343,54.8048481 21.6619548,55.9153765 C19.5084339,56.6869682 19.1350429,58.3769717 19.1850967,59.0004774" id="Fill-5" fill-opacity="0.7417" fill="#3880DC" mask="url(#mask-5)"></path>
                        </g>
                    </g>
                    <g id="registrationNum" transform="translate(125.000000, 0.000000)">
                        <g id="Group-16">
                            <circle id="Oval" stroke="#8190B1" stroke-width="2" fill="#EFF1F6" cx="12" cy="12" r="13"></circle>
                            <text id="x" font-family="HelveticaNeue-Medium, Helvetica Neue" font-size="14" font-weight="400" line-spacing="14" fill="#4A4A4A">
                                <tspan x="8" y="18">1</tspan>
                            </text>
                        </g>
                    </g>
                </g>
            </g>
        </g>
    </g>
</svg>