<?xml version="1.0" encoding="UTF-8"?>
<svg width="960px" height="260px" viewBox="0 0 960 260" version="1.1" xmlns="http://www.w3.org/2000/svg" xmlns:xlink="http://www.w3.org/1999/xlink">
    <!-- Generator: Sketch 51.3 (57544) - http://www.bohemiancoding.com/sketch -->
    <title>Group 12</title>
    <desc>Created with Sketch.</desc>
    <defs></defs>
    <g id="Page-1" stroke="none" stroke-width="1" fill="none" fill-rule="evenodd">
        <g id="pfizer" transform="translate(-248.000000, -2116.000000)">
            <g id="Group-12" transform="translate(248.000000, 2115.000000)">
                <rect id="Rectangle-5" stroke="#FFA35F" fill="#FFA15E" x="0.5" y="22.5" width="959" height="111" rx="8"></rect>
                <rect id="Rectangle-3" fill="#FFFFFF" x="160" y="23" width="640" height="110"></rect>
                <path d="M800,23 L951,23 C955.418278,23 959,26.581722 959,31 L959,125 C959,129.418278 955.418278,133 951,133 L800,133 L800,23 Z" id="Rectangle-4" fill="#FFE8D7"></path>
                <g id="Group-9" transform="translate(179.000000, 41.000000)">
                    <g id="Group-3" transform="translate(314.000000, 2.000000)"></g>
                    <text id="Directs-office-manag" font-family="HelveticaNeue-Light, Helvetica Neue" font-size="10" font-weight="300" line-spacing="12" fill="#000000">
                        <tspan x="323" y="13">Directs office manager/staff </tspan>
                        <tspan x="323" y="25">to sign up</tspan>
                        <tspan x="323" y="45" line-spacing="18">View/edit patient information</tspan>
                        <tspan x="323" y="63" line-spacing="18">Set up status reports</tspan>
                    </text>
                    <g id="Group-2" transform="translate(314.000000, 2.000000)" fill="#000000" font-family="HelveticaNeue, Helvetica Neue" font-size="12" font-weight="normal">
                        <text id="•">
                            <tspan x="0" y="11">•</tspan>
                        </text>
                    </g>
                    <g id="Group-2" transform="translate(314.000000, 33.000000)" fill="#000000" font-family="HelveticaNeue, Helvetica Neue" font-size="12" font-weight="normal">
                        <text id="•">
                            <tspan x="0" y="11">•</tspan>
                        </text>
                    </g>
                    <g id="Group-2" transform="translate(314.000000, 51.000000)" fill="#000000" font-family="HelveticaNeue, Helvetica Neue" font-size="12" font-weight="normal">
                        <text id="•">
                            <tspan x="0" y="11">•</tspan>
                        </text>
                    </g>
                    <g id="Group-5" transform="translate(155.000000, 0.000000)"></g>
                    <g id="Group-2" transform="translate(155.000000, 20.000000)" fill="#000000" font-family="HelveticaNeue, Helvetica Neue" font-size="12" font-weight="normal">
                        <text id="•">
                            <tspan x="0" y="11">•</tspan>
                        </text>
                    </g>
                    <g id="Group-2" transform="translate(155.000000, 38.000000)" fill="#000000" font-family="HelveticaNeue, Helvetica Neue" font-size="12" font-weight="normal">
                        <text id="•">
                            <tspan x="0" y="11">•</tspan>
                        </text>
                    </g>
                    <text id="Credibility-Clarity" font-family="HelveticaNeue-Light, Helvetica Neue" font-size="10" font-weight="300" line-spacing="18" fill="#000000">
                        <tspan x="164" y="10">Credibility</tspan>
                        <tspan x="164" y="28">Clarity of value proposition</tspan>
                        <tspan x="164" y="46">Viable return on investment</tspan>
                    </text>
                    <g id="Group-2" transform="translate(155.000000, 2.000000)" fill="#000000" font-family="HelveticaNeue, Helvetica Neue" font-size="12" font-weight="normal">
                        <text id="•">
                            <tspan x="0" y="11">•</tspan>
                        </text>
                    </g>
                    <g id="Group-4" transform="translate(470.000000, 0.000000)"></g>
                    <text id="Checks-weekly-status" font-family="HelveticaNeue-Light, Helvetica Neue" font-size="10" font-weight="300" line-spacing="18" fill="#000000">
                        <tspan x="479" y="10">Checks weekly status updates</tspan>
                        <tspan x="479" y="28">Targeted reports</tspan>
                        <tspan x="479" y="46">Subscribe to newsletters</tspan>
                    </text>
                    <g id="Group-2" transform="translate(470.000000, 20.000000)" fill="#000000" font-family="HelveticaNeue, Helvetica Neue" font-size="12" font-weight="normal">
                        <text id="•">
                            <tspan x="0" y="11">•</tspan>
                        </text>
                    </g>
                    <g id="Group-2" transform="translate(470.000000, 38.000000)" fill="#000000" font-family="HelveticaNeue, Helvetica Neue" font-size="12" font-weight="normal">
                        <text id="•">
                            <tspan x="0" y="11">•</tspan>
                        </text>
                    </g>
                    <g id="Group-2" transform="translate(470.000000, 2.000000)" fill="#000000" font-family="HelveticaNeue, Helvetica Neue" font-size="12" font-weight="normal">
                        <text id="•">
                            <tspan x="0" y="11">•</tspan>
                        </text>
                    </g>
                    <g id="Group-7"></g>
                    <text id="Search-engine-optimi" font-family="HelveticaNeue-Light, Helvetica Neue" font-size="10" font-weight="300" line-spacing="18" fill="#000000">
                        <tspan x="9" y="10">Search engine optimization</tspan>
                        <tspan x="9" y="28">Content seeding</tspan>
                        <tspan x="9" y="46">Paid search</tspan>
                    </text>
                    <g id="Group-2" transform="translate(0.000000, 2.000000)" fill="#000000" font-family="HelveticaNeue, Helvetica Neue" font-size="12" font-weight="normal" line-spacing="12">
                        <text id="•">
                            <tspan x="0" y="11">•</tspan>
                        </text>
                    </g>
                    <g id="Group-2" transform="translate(0.000000, 20.000000)" fill="#000000" font-family="HelveticaNeue, Helvetica Neue" font-size="12" font-weight="normal">
                        <text id="•">
                            <tspan x="0" y="11">•</tspan>
                        </text>
                    </g>
                    <g id="Group-2" transform="translate(0.000000, 38.000000)" fill="#000000" font-family="HelveticaNeue, Helvetica Neue" font-size="12" font-weight="normal">
                        <text id="•">
                            <tspan x="0" y="11">•</tspan>
                        </text>
                    </g>
                </g>
                <text id="“Gives-me-tools-that" font-family="HelveticaNeue-Medium, Helvetica Neue" font-size="10" font-weight="400" fill="#4A4A4A">
                    <tspan x="808" y="53">“Gives me tools that alleviate </tspan>
                    <tspan x="808" y="65">the administrative burden on </tspan>
                    <tspan x="808" y="77">my staff, freeing me up to </tspan>
                    <tspan x="808" y="89">focus on patient care.”</tspan>
                </text>
                <g id="Group-2" transform="translate(44.000000, 38.000000)">
                    <g id="Group-6" transform="translate(17.000000, 0.000000)">
                        <path d="M9.26954839,14.46 C9.33574194,14.46 9.40193548,14.3952 9.40193548,14.3952 L9.46812903,14.3952 L10.063871,14.2008 C10.1300645,10.7664 11.4539355,9.0816 11.4539355,9.0816 C13.2411613,9.1464 15.9550968,8.7576 15.9550968,8.7576 C18.0732903,8.6928 22.1772903,6.6192 22.1772903,6.6192 C23.6997419,5.5824 24.6926452,6.8784 24.6926452,6.8784 C26.8108387,8.6928 27.2741935,14.46 27.2741935,14.46 L28.0023226,14.3952 L28.2009032,14.3952 C28.5980645,14.3952 28.8628387,14.5248 29.1276129,14.7192 C29.4585806,14.9784 29.6571613,15.4968 29.7895484,15.8856 C29.8557419,16.08 29.8557419,16.2744 29.8557419,16.404 L29.8557419,16.5336 C29.6571613,17.5704 29.1938065,18.0888 28.7304516,18.348 C28.2670968,18.6072 27.8037419,18.672 27.6713548,18.672 L27.3403871,18.672 L27.2741935,18.9312 C26.8108387,21.6528 25.6193548,23.532 24.4940645,24.6984 C23.9645161,25.2816 23.4349677,25.6704 23.0378065,25.9296 C22.8392258,26.0592 22.7068387,26.1888 22.5744516,26.1888 L22.4420645,26.2536 C20.9196129,26.9664 19.5295484,27.2256 18.4042581,27.2256 C17.0141935,27.2256 15.9550968,26.8368 15.2269677,26.448 C14.896,26.2536 14.5650323,26.0592 14.4326452,25.9296 C14.3664516,25.8648 14.3664516,25.8648 14.3002581,25.8 C12.6454194,24.5688 11.6525161,22.884 11.0567742,21.4584 C10.792,20.7456 10.5934194,20.0976 10.4610323,19.644 C10.3948387,19.4496 10.3948387,19.2552 10.3948387,19.1256 L10.3948387,18.996 L10.3948387,18.9312 L10.3286452,18.7368 L10.063871,18.672 C9.07096774,18.4776 8.6076129,17.9592 8.34283871,17.5056 C8.14425806,17.052 8.14425806,16.5984 8.14425806,16.5984 C8.14425806,15.6264 8.47522581,15.108 8.80619355,14.784 C8.93858065,14.6544 9.07096774,14.5248 9.26954839,14.46 M7.41612903,16.728 C7.41612903,16.6632 7.41612903,17.2464 7.74709677,17.8296 C8.01187097,18.4128 8.67380645,18.996 9.66670968,19.2552 C9.73290323,19.644 9.99767742,20.5512 10.4610323,21.7176 C11.0567742,23.208 12.115871,24.9576 13.8369032,26.2536 C13.9692903,26.3832 15.624129,27.9384 18.5366452,27.9384 C19.7943226,27.9384 21.1843871,27.6792 22.8392258,26.9016 C22.8392258,26.9016 23.8983226,26.3832 25.0898065,25.152 C26.2150968,23.9208 27.4727742,22.0416 28.0023226,19.32 C28.2670968,19.32 28.6642581,19.1904 29.1276129,18.9312 C29.7233548,18.5424 30.3190968,17.8944 30.5176774,16.6632 C30.5176774,16.6632 30.5176774,16.0152 30.2529032,15.3024 C30.1205161,14.9784 29.9219355,14.5896 29.5909677,14.3304 C29.3261935,14.136 28.9952258,13.9416 28.5980645,13.8768 L28.6642581,13.8768 L29.1938065,10.4424 C29.5909677,5.1288 25.8179355,3.768 25.8179355,3.768 C25.7517419,2.0184 24.1630968,0.9168 24.1630968,0.9168 C21.1181935,-0.8328 14.7636129,1.5 14.7636129,1.5 C9.86529032,2.6664 8.74,5.9712 8.74,5.9712 C7.21754839,9.4056 8.74,13.6824 8.8723871,14.0712 C8.74,14.136 8.54141935,14.2656 8.34283871,14.46 C7.94567742,14.9136 7.41612903,15.6264 7.41612903,16.728" id="Fill-1" fill="#FFFFFF"></path>
                        <path d="M14.2340645,25.7352 C14.3002581,25.7352 14.3002581,25.8 14.2340645,25.7352 C14.3002581,25.8 14.3002581,25.8 14.3664516,25.8 L14.2340645,25.7352 Z" id="Fill-3" fill="#000000"></path>
                        <path d="M29.3923871,27.9384 C30.9810323,29.8176 31.7091613,32.7984 31.9077419,33.5112 C32.8344516,33.7056 33.4963871,34.4832 33.4963871,35.3904 C33.4963871,36.492 32.635871,37.3344 31.5105806,37.3344 C30.3852903,37.3344 29.5247742,36.492 29.5247742,35.3904 C29.5247742,34.4832 30.1205161,33.7704 30.9810323,33.5112 C30.583871,31.2432 29.6571613,29.5584 28.9290323,28.5216 L21.3829677,40.38 L21.052,40.3152 L20.0590968,34.872 L19.9267097,34.872 C20.5886452,34.4832 21.052,33.7704 21.052,32.9928 C21.052,31.7616 20.0590968,30.7896 18.8676129,30.7896 C17.676129,30.7896 16.6832258,31.7616 16.6832258,32.9928 C16.6832258,33.8352 17.1465806,34.4832 17.8085161,34.872 L17.7423226,34.872 L16.8818065,40.3152 L16.4846452,40.3152 L9.07096774,28.7808 C8.47522581,29.7528 7.81329032,31.1784 7.48232258,32.8632 C9.73290323,33.3816 11.3215484,38.3064 11.3215484,38.3064 L10.3286452,39.408 C10.3948387,39.5376 10.3948387,39.6024 10.3948387,39.732 C10.3948387,40.1856 9.99767742,40.6392 9.46812903,40.6392 C8.93858065,40.6392 8.54141935,40.2504 8.54141935,39.732 C8.54141935,39.2136 8.93858065,38.8248 9.46812903,38.8248 L9.66670968,38.8248 L10.3948387,38.0472 C6.88658065,28.2624 3.97406452,38.112 3.97406452,38.2416 L4.5036129,38.8248 L4.70219355,38.8248 C5.16554839,38.8248 5.62890323,39.2136 5.62890323,39.732 C5.62890323,40.2504 5.23174194,40.6392 4.70219355,40.6392 C4.17264516,40.6392 3.77548387,40.1856 3.77548387,39.732 C3.77548387,39.6024 3.77548387,39.4728 3.84167742,39.408 L2.84877419,38.3064 C4.17264516,34.7424 5.43032258,33.252 6.5556129,32.928 C6.75419355,32.0856 7.41612903,29.7528 8.6076129,28.068 L8.54141935,28.0032 C8.54141935,28.0032 1.92206452,30.0768 0.13483871,36.2976 L0.13483871,43.296 C0.13483871,43.296 15.6903226,53.2104 37.7989677,43.296 L37.7989677,36.2976 C37.8651613,36.2976 37.0046452,30.984 29.3923871,27.9384" id="Fill-4" fill="#FFFFFF"></path>
                        <path d="M31.5105806,34.1592 C32.2420194,34.1592 32.8344516,34.73916 32.8344516,35.4552 C32.8344516,36.17124 32.2420194,36.7512 31.5105806,36.7512 C30.7791419,36.7512 30.1867097,36.17124 30.1867097,35.4552 C30.1867097,34.73916 30.7791419,34.1592 31.5105806,34.1592" id="Fill-5" fill="#FFFFFF"></path>
                    </g>
                    <text id="Healthcare-Professio" font-family="HelveticaNeue-Bold, Helvetica Neue" font-size="12" font-weight="bold" fill="#FFFFFF">
                        <tspan x="4.89" y="68">Healthcare </tspan>
                        <tspan x="0.456" y="83">Professional</tspan>
                    </text>
                </g>
                <text id="Persona" font-family="HelveticaNeue, Helvetica Neue" font-size="12" font-weight="normal" fill="#000000">
                    <tspan x="57.89" y="11">Persona</tspan>
                </text>
                <text id="Awareness/Research" font-family="HelveticaNeue, Helvetica Neue" font-size="12" font-weight="normal" fill="#000000">
                    <tspan x="185.058" y="11">Awareness/Research</tspan>
                </text>
                <text id="Choice-Reduction" font-family="HelveticaNeue, Helvetica Neue" font-size="12" font-weight="normal" fill="#000000">
                    <tspan x="348.994" y="11">Choice Reduction</tspan>
                </text>
                <text id="Action" font-family="HelveticaNeue, Helvetica Neue" font-size="12" font-weight="normal" fill="#000000">
                    <tspan x="541.888" y="11">Action</tspan>
                </text>
                <text id="Follow-Up" font-family="HelveticaNeue, Helvetica Neue" font-size="12" font-weight="normal" fill="#000000">
                    <tspan x="692.232" y="11">Follow-Up</tspan>
                </text>
                <text id="What’s-in-it-for-me?" font-family="HelveticaNeue, Helvetica Neue" font-size="12" font-weight="normal" fill="#000000">
                    <tspan x="828.816" y="11">What’s in it for me?</tspan>
                </text>
                <rect id="Rectangle-5" stroke="#47A2F1" fill="#47A2F1" x="0.5" y="149.5" width="959" height="111" rx="8"></rect>
                <rect id="Rectangle-3" fill="#FFFFFF" x="160" y="150" width="640" height="110"></rect>
                <path d="M800,150 L951,150 C955.418278,150 959,153.581722 959,158 L959,252 C959,256.418278 955.418278,260 951,260 L800,260 L800,150 Z" id="Rectangle-4" fill="#D3E8FC"></path>
                <g id="Group-8" transform="translate(60.000000, 165.000000)" fill="#FFFFFF">
                    <text id="Patient" font-family="HelveticaNeue-Bold, Helvetica Neue" font-size="12" font-weight="bold">
                        <tspan x="0.28" y="76">Patient</tspan>
                    </text>
                    <g id="noun_Patient_1125488" transform="translate(8.000000, 0.000000)" fill-rule="nonzero">
                        <path d="M11.6307692,14.7466667 C15.6,14.7466667 18.9230769,11.48 18.9230769,7.37333333 C18.9230769,3.26666667 15.6,0 11.6307692,0 C7.66153846,0 4.33846154,3.26666667 4.33846154,7.37333333 C4.33846154,11.48 7.66153846,14.7466667 11.6307692,14.7466667 Z M11.6307692,1.86666667 C14.5846154,1.86666667 17.0769231,4.29333333 17.0769231,7.37333333 C17.0769231,10.36 14.6769231,12.88 11.6307692,12.88 C8.67692308,12.88 6.18461538,10.4533333 6.18461538,7.37333333 C6.18461538,4.29333333 8.67692308,1.86666667 11.6307692,1.86666667 Z M20.4923077,16.8933333 L2.76923077,16.8933333 C1.2,16.8933333 0,18.1066667 0,19.6933333 L0,36.7733333 C0,37.1466667 0.276923077,37.52 0.646153846,37.7066667 L4.70769231,38.8266667 L4.70769231,55.0666667 C4.70769231,55.6266667 5.07692308,56 5.63076923,56 L17.7230769,56 C18.2769231,56 18.6461538,55.6266667 18.6461538,55.0666667 L18.6461538,38.8266667 L22.6153846,37.7066667 C22.9846154,37.6133333 23.2615385,37.24 23.2615385,36.7733333 L23.2615385,19.6933333 C23.2615385,18.2 22.0615385,16.8933333 20.4923077,16.8933333 Z M21.4153846,36.12 L17.4461538,37.24 C17.0769231,37.3333333 16.8,37.7066667 16.8,38.1733333 L16.8,54.1333333 L6.55384615,54.1333333 L6.55384615,38.1733333 C6.55384615,37.8 6.27692308,37.4266667 5.90769231,37.24 L1.84615385,36.12 L1.84615385,19.6933333 C1.84615385,19.2266667 2.21538462,18.76 2.76923077,18.76 L20.4923077,18.76 C20.9538462,18.76 21.4153846,19.1333333 21.4153846,19.6933333 L21.4153846,36.12 Z M17.6307692,25.6666667 L14.4923077,25.6666667 L14.4923077,22.5866667 C14.4923077,22.0266667 14.1230769,21.6533333 13.5692308,21.6533333 L9.6,21.6533333 C9.04615385,21.6533333 8.67692308,22.0266667 8.67692308,22.5866667 L8.67692308,25.6666667 L5.53846154,25.6666667 C4.98461538,25.6666667 4.61538462,26.04 4.61538462,26.6 L4.61538462,30.7066667 C4.61538462,31.2666667 4.98461538,31.64 5.53846154,31.64 L8.67692308,31.64 L8.67692308,34.72 C8.67692308,35.28 9.04615385,35.6533333 9.6,35.6533333 L13.5692308,35.6533333 C14.1230769,35.6533333 14.4923077,35.28 14.4923077,34.72 L14.4923077,31.64 L17.6307692,31.64 C18.1846154,31.64 18.5538462,31.2666667 18.5538462,30.7066667 L18.5538462,26.6 C18.5538462,26.1333333 18.1846154,25.6666667 17.6307692,25.6666667 Z M16.7076923,29.7733333 L13.5692308,29.7733333 C13.0153846,29.7733333 12.6461538,30.1466667 12.6461538,30.7066667 L12.6461538,33.7866667 L10.5230769,33.7866667 L10.5230769,30.7066667 C10.5230769,30.1466667 10.1538462,29.7733333 9.6,29.7733333 L6.46153846,29.7733333 L6.46153846,27.5333333 L9.6,27.5333333 C10.1538462,27.5333333 10.5230769,27.16 10.5230769,26.6 L10.5230769,23.52 L12.6461538,23.52 L12.6461538,26.6 C12.6461538,27.16 13.0153846,27.5333333 13.5692308,27.5333333 L16.7076923,27.5333333 L16.7076923,29.7733333 Z" id="Shape"></path>
                    </g>
                </g>
                <g id="Group-10" transform="translate(179.000000, 168.000000)">
                    <text id="“Shows-me-an-afforda" font-family="HelveticaNeue-Medium, Helvetica Neue" font-size="10" font-weight="400" fill="#4A4A4A">
                        <tspan x="629" y="12">“Shows me an affordable path </tspan>
                        <tspan x="629" y="24">to getting my medication </tspan>
                        <tspan x="629" y="36">sooner, so I can start the next </tspan>
                        <tspan x="629" y="48">phase of my treatment.”</tspan>
                    </text>
                    <g id="Group-3" transform="translate(314.000000, 2.000000)" fill="#000000">
                        <text id="Enroll-in-access/co-" font-family="HelveticaNeue-Light, Helvetica Neue" font-size="10" font-weight="300" line-spacing="12">
                            <tspan x="9" y="11">Enroll in access/co-pay </tspan>
                            <tspan x="9" y="23">program</tspan>
                            <tspan x="9" y="43">Utilize education programs</tspan>
                            <tspan x="9" y="63" line-spacing="18">Contact My Care Counselor</tspan>
                        </text>
                        <g id="Group-2" font-family="HelveticaNeue, Helvetica Neue" font-size="12" font-weight="normal">
                            <text id="•">
                                <tspan x="0" y="11">•</tspan>
                            </text>
                        </g>
                        <g id="Group-2" transform="translate(0.000000, 32.000000)" font-family="HelveticaNeue, Helvetica Neue" font-size="12" font-weight="normal">
                            <text id="•">
                                <tspan x="0" y="11">•</tspan>
                            </text>
                        </g>
                        <g id="Group-2" transform="translate(0.000000, 53.000000)" font-family="HelveticaNeue, Helvetica Neue" font-size="12" font-weight="normal">
                            <text id="•">
                                <tspan x="0" y="11">•</tspan>
                            </text>
                        </g>
                    </g>
                    <g id="Group-5" transform="translate(155.000000, 0.000000)" fill="#000000">
                        <g id="Group-2" transform="translate(0.000000, 20.000000)" font-family="HelveticaNeue, Helvetica Neue" font-size="12" font-weight="normal">
                            <text id="•">
                                <tspan x="0" y="11">•</tspan>
                            </text>
                        </g>
                        <g id="Group-2" transform="translate(0.000000, 38.000000)" font-family="HelveticaNeue, Helvetica Neue" font-size="12" font-weight="normal">
                            <text id="•">
                                <tspan x="0" y="11">•</tspan>
                            </text>
                        </g>
                        <text id="Co-pay-support-Troub" font-family="HelveticaNeue-Light, Helvetica Neue" font-size="10" font-weight="300" line-spacing="18">
                            <tspan x="9" y="10">Co-pay support</tspan>
                            <tspan x="9" y="28">Troubleshooting</tspan>
                            <tspan x="9" y="46">Access support</tspan>
                        </text>
                        <g id="Group-2" transform="translate(0.000000, 2.000000)" font-family="HelveticaNeue, Helvetica Neue" font-size="12" font-weight="normal">
                            <text id="•">
                                <tspan x="0" y="11">•</tspan>
                            </text>
                        </g>
                    </g>
                    <g id="Group-4" transform="translate(470.000000, 0.000000)" fill="#000000">
                        <text id="Get-program/profile" font-family="HelveticaNeue-Light, Helvetica Neue" font-size="10" font-weight="300" line-spacing="18">
                            <tspan x="9" y="10">Get program/profile updates</tspan>
                            <tspan x="9" y="28">Contact My Care Counselor</tspan>
                            <tspan x="9" y="46">Opt out (if needed)</tspan>
                        </text>
                        <g id="Group-2" transform="translate(0.000000, 20.000000)" font-family="HelveticaNeue, Helvetica Neue" font-size="12" font-weight="normal">
                            <text id="•">
                                <tspan x="0" y="11">•</tspan>
                            </text>
                        </g>
                        <g id="Group-2" transform="translate(0.000000, 38.000000)" font-family="HelveticaNeue, Helvetica Neue" font-size="12" font-weight="normal">
                            <text id="•">
                                <tspan x="0" y="11">•</tspan>
                            </text>
                        </g>
                        <g id="Group-2" transform="translate(0.000000, 2.000000)" font-family="HelveticaNeue, Helvetica Neue" font-size="12" font-weight="normal">
                            <text id="•">
                                <tspan x="0" y="11">•</tspan>
                            </text>
                        </g>
                    </g>
                    <g id="Group-7" fill="#000000">
                        <text id="Specialty-pharmacies" font-family="HelveticaNeue-Light, Helvetica Neue" font-size="10" font-weight="300" line-spacing="18">
                            <tspan x="9" y="10">Specialty pharmacies</tspan>
                            <tspan x="9" y="28">Support groups</tspan>
                            <tspan x="9" y="46">Social listening</tspan>
                        </text>
                        <g id="Group-2" transform="translate(0.000000, 2.000000)" font-family="HelveticaNeue, Helvetica Neue" font-size="12" font-weight="normal" line-spacing="12">
                            <text id="•">
                                <tspan x="0" y="11">•</tspan>
                            </text>
                        </g>
                        <g id="Group-2" transform="translate(0.000000, 20.000000)" font-family="HelveticaNeue, Helvetica Neue" font-size="12" font-weight="normal">
                            <text id="•">
                                <tspan x="0" y="11">•</tspan>
                            </text>
                        </g>
                        <g id="Group-2" transform="translate(0.000000, 38.000000)" font-family="HelveticaNeue, Helvetica Neue" font-size="12" font-weight="normal">
                            <text id="•">
                                <tspan x="0" y="11">•</tspan>
                            </text>
                        </g>
                    </g>
                </g>
                <path d="M320,22 L320,262" id="Line-3" stroke="#979797" stroke-linecap="square" stroke-dasharray="4,4"></path>
                <path d="M480,22 L480,262" id="Line-3" stroke="#979797" stroke-linecap="square" stroke-dasharray="4,4"></path>
                <path d="M640,22 L640,262" id="Line-3" stroke="#979797" stroke-linecap="square" stroke-dasharray="4,4"></path>
            </g>
        </g>
    </g>
</svg>