<?xml version="1.0" encoding="UTF-8"?>
<svg width="1600px" height="1684px" viewBox="0 0 1600 1684" version="1.1" xmlns="http://www.w3.org/2000/svg" xmlns:xlink="http://www.w3.org/1999/xlink">
    <title>Roles 2</title>
    <defs>
        <rect id="path-1" x="0" y="0" width="1600" height="108"></rect>
        <polygon id="path-3" points="9.87599663 0.0336450602 9.87599663 14.0574958 0.141308834 14.0574958 0.141308834 0.0336450602 9.87599663 0.0336450602"></polygon>
        <circle id="path-5" cx="15.5" cy="15.5" r="13.5"></circle>
        <filter x="-51.9%" y="-40.7%" width="203.7%" height="203.7%" filterUnits="objectBoundingBox" id="filter-6">
            <feMorphology radius="0.5" operator="dilate" in="SourceAlpha" result="shadowSpreadOuter1"></feMorphology>
            <feOffset dx="0" dy="3" in="shadowSpreadOuter1" result="shadowOffsetOuter1"></feOffset>
            <feGaussianBlur stdDeviation="0.5" in="shadowOffsetOuter1" result="shadowBlurOuter1"></feGaussianBlur>
            <feComposite in="shadowBlurOuter1" in2="SourceAlpha" operator="out" result="shadowBlurOuter1"></feComposite>
            <feColorMatrix values="0 0 0 0 0   0 0 0 0 0   0 0 0 0 0  0 0 0 0.06 0" type="matrix" in="shadowBlurOuter1" result="shadowMatrixOuter1"></feColorMatrix>
            <feMorphology radius="0.5" operator="dilate" in="SourceAlpha" result="shadowSpreadOuter2"></feMorphology>
            <feOffset dx="0" dy="3" in="shadowSpreadOuter2" result="shadowOffsetOuter2"></feOffset>
            <feGaussianBlur stdDeviation="4" in="shadowOffsetOuter2" result="shadowBlurOuter2"></feGaussianBlur>
            <feComposite in="shadowBlurOuter2" in2="SourceAlpha" operator="out" result="shadowBlurOuter2"></feComposite>
            <feColorMatrix values="0 0 0 0 0   0 0 0 0 0   0 0 0 0 0  0 0 0 0.15 0" type="matrix" in="shadowBlurOuter2" result="shadowMatrixOuter2"></feColorMatrix>
            <feMerge>
                <feMergeNode in="shadowMatrixOuter1"></feMergeNode>
                <feMergeNode in="shadowMatrixOuter2"></feMergeNode>
            </feMerge>
        </filter>
        <circle id="path-7" cx="15.5" cy="15.5" r="13.5"></circle>
        <filter x="-51.9%" y="-40.7%" width="203.7%" height="203.7%" filterUnits="objectBoundingBox" id="filter-8">
            <feMorphology radius="0.5" operator="dilate" in="SourceAlpha" result="shadowSpreadOuter1"></feMorphology>
            <feOffset dx="0" dy="3" in="shadowSpreadOuter1" result="shadowOffsetOuter1"></feOffset>
            <feGaussianBlur stdDeviation="0.5" in="shadowOffsetOuter1" result="shadowBlurOuter1"></feGaussianBlur>
            <feComposite in="shadowBlurOuter1" in2="SourceAlpha" operator="out" result="shadowBlurOuter1"></feComposite>
            <feColorMatrix values="0 0 0 0 0   0 0 0 0 0   0 0 0 0 0  0 0 0 0.06 0" type="matrix" in="shadowBlurOuter1" result="shadowMatrixOuter1"></feColorMatrix>
            <feMorphology radius="0.5" operator="dilate" in="SourceAlpha" result="shadowSpreadOuter2"></feMorphology>
            <feOffset dx="0" dy="3" in="shadowSpreadOuter2" result="shadowOffsetOuter2"></feOffset>
            <feGaussianBlur stdDeviation="4" in="shadowOffsetOuter2" result="shadowBlurOuter2"></feGaussianBlur>
            <feComposite in="shadowBlurOuter2" in2="SourceAlpha" operator="out" result="shadowBlurOuter2"></feComposite>
            <feColorMatrix values="0 0 0 0 0   0 0 0 0 0   0 0 0 0 0  0 0 0 0.15 0" type="matrix" in="shadowBlurOuter2" result="shadowMatrixOuter2"></feColorMatrix>
            <feMerge>
                <feMergeNode in="shadowMatrixOuter1"></feMergeNode>
                <feMergeNode in="shadowMatrixOuter2"></feMergeNode>
            </feMerge>
        </filter>
        <circle id="path-9" cx="15.5" cy="15.5" r="13.5"></circle>
        <filter x="-51.9%" y="-40.7%" width="203.7%" height="203.7%" filterUnits="objectBoundingBox" id="filter-10">
            <feMorphology radius="0.5" operator="dilate" in="SourceAlpha" result="shadowSpreadOuter1"></feMorphology>
            <feOffset dx="0" dy="3" in="shadowSpreadOuter1" result="shadowOffsetOuter1"></feOffset>
            <feGaussianBlur stdDeviation="0.5" in="shadowOffsetOuter1" result="shadowBlurOuter1"></feGaussianBlur>
            <feComposite in="shadowBlurOuter1" in2="SourceAlpha" operator="out" result="shadowBlurOuter1"></feComposite>
            <feColorMatrix values="0 0 0 0 0   0 0 0 0 0   0 0 0 0 0  0 0 0 0.06 0" type="matrix" in="shadowBlurOuter1" result="shadowMatrixOuter1"></feColorMatrix>
            <feMorphology radius="0.5" operator="dilate" in="SourceAlpha" result="shadowSpreadOuter2"></feMorphology>
            <feOffset dx="0" dy="3" in="shadowSpreadOuter2" result="shadowOffsetOuter2"></feOffset>
            <feGaussianBlur stdDeviation="4" in="shadowOffsetOuter2" result="shadowBlurOuter2"></feGaussianBlur>
            <feComposite in="shadowBlurOuter2" in2="SourceAlpha" operator="out" result="shadowBlurOuter2"></feComposite>
            <feColorMatrix values="0 0 0 0 0   0 0 0 0 0   0 0 0 0 0  0 0 0 0.15 0" type="matrix" in="shadowBlurOuter2" result="shadowMatrixOuter2"></feColorMatrix>
            <feMerge>
                <feMergeNode in="shadowMatrixOuter1"></feMergeNode>
                <feMergeNode in="shadowMatrixOuter2"></feMergeNode>
            </feMerge>
        </filter>
        <circle id="path-11" cx="15.5" cy="15.5" r="13.5"></circle>
        <filter x="-51.9%" y="-40.7%" width="203.7%" height="203.7%" filterUnits="objectBoundingBox" id="filter-12">
            <feMorphology radius="0.5" operator="dilate" in="SourceAlpha" result="shadowSpreadOuter1"></feMorphology>
            <feOffset dx="0" dy="3" in="shadowSpreadOuter1" result="shadowOffsetOuter1"></feOffset>
            <feGaussianBlur stdDeviation="0.5" in="shadowOffsetOuter1" result="shadowBlurOuter1"></feGaussianBlur>
            <feComposite in="shadowBlurOuter1" in2="SourceAlpha" operator="out" result="shadowBlurOuter1"></feComposite>
            <feColorMatrix values="0 0 0 0 0   0 0 0 0 0   0 0 0 0 0  0 0 0 0.06 0" type="matrix" in="shadowBlurOuter1" result="shadowMatrixOuter1"></feColorMatrix>
            <feMorphology radius="0.5" operator="dilate" in="SourceAlpha" result="shadowSpreadOuter2"></feMorphology>
            <feOffset dx="0" dy="3" in="shadowSpreadOuter2" result="shadowOffsetOuter2"></feOffset>
            <feGaussianBlur stdDeviation="4" in="shadowOffsetOuter2" result="shadowBlurOuter2"></feGaussianBlur>
            <feComposite in="shadowBlurOuter2" in2="SourceAlpha" operator="out" result="shadowBlurOuter2"></feComposite>
            <feColorMatrix values="0 0 0 0 0   0 0 0 0 0   0 0 0 0 0  0 0 0 0.15 0" type="matrix" in="shadowBlurOuter2" result="shadowMatrixOuter2"></feColorMatrix>
            <feMerge>
                <feMergeNode in="shadowMatrixOuter1"></feMergeNode>
                <feMergeNode in="shadowMatrixOuter2"></feMergeNode>
            </feMerge>
        </filter>
        <circle id="path-13" cx="72.5" cy="15.5" r="13.5"></circle>
        <filter x="-51.9%" y="-40.7%" width="203.7%" height="203.7%" filterUnits="objectBoundingBox" id="filter-14">
            <feMorphology radius="0.5" operator="dilate" in="SourceAlpha" result="shadowSpreadOuter1"></feMorphology>
            <feOffset dx="0" dy="3" in="shadowSpreadOuter1" result="shadowOffsetOuter1"></feOffset>
            <feGaussianBlur stdDeviation="0.5" in="shadowOffsetOuter1" result="shadowBlurOuter1"></feGaussianBlur>
            <feComposite in="shadowBlurOuter1" in2="SourceAlpha" operator="out" result="shadowBlurOuter1"></feComposite>
            <feColorMatrix values="0 0 0 0 0   0 0 0 0 0   0 0 0 0 0  0 0 0 0.06 0" type="matrix" in="shadowBlurOuter1" result="shadowMatrixOuter1"></feColorMatrix>
            <feMorphology radius="0.5" operator="dilate" in="SourceAlpha" result="shadowSpreadOuter2"></feMorphology>
            <feOffset dx="0" dy="3" in="shadowSpreadOuter2" result="shadowOffsetOuter2"></feOffset>
            <feGaussianBlur stdDeviation="4" in="shadowOffsetOuter2" result="shadowBlurOuter2"></feGaussianBlur>
            <feComposite in="shadowBlurOuter2" in2="SourceAlpha" operator="out" result="shadowBlurOuter2"></feComposite>
            <feColorMatrix values="0 0 0 0 0   0 0 0 0 0   0 0 0 0 0  0 0 0 0.15 0" type="matrix" in="shadowBlurOuter2" result="shadowMatrixOuter2"></feColorMatrix>
            <feMerge>
                <feMergeNode in="shadowMatrixOuter1"></feMergeNode>
                <feMergeNode in="shadowMatrixOuter2"></feMergeNode>
            </feMerge>
        </filter>
        <circle id="path-15" cx="72.5" cy="15.5" r="13.5"></circle>
        <filter x="-51.9%" y="-40.7%" width="203.7%" height="203.7%" filterUnits="objectBoundingBox" id="filter-16">
            <feMorphology radius="0.5" operator="dilate" in="SourceAlpha" result="shadowSpreadOuter1"></feMorphology>
            <feOffset dx="0" dy="3" in="shadowSpreadOuter1" result="shadowOffsetOuter1"></feOffset>
            <feGaussianBlur stdDeviation="0.5" in="shadowOffsetOuter1" result="shadowBlurOuter1"></feGaussianBlur>
            <feComposite in="shadowBlurOuter1" in2="SourceAlpha" operator="out" result="shadowBlurOuter1"></feComposite>
            <feColorMatrix values="0 0 0 0 0   0 0 0 0 0   0 0 0 0 0  0 0 0 0.06 0" type="matrix" in="shadowBlurOuter1" result="shadowMatrixOuter1"></feColorMatrix>
            <feMorphology radius="0.5" operator="dilate" in="SourceAlpha" result="shadowSpreadOuter2"></feMorphology>
            <feOffset dx="0" dy="3" in="shadowSpreadOuter2" result="shadowOffsetOuter2"></feOffset>
            <feGaussianBlur stdDeviation="4" in="shadowOffsetOuter2" result="shadowBlurOuter2"></feGaussianBlur>
            <feComposite in="shadowBlurOuter2" in2="SourceAlpha" operator="out" result="shadowBlurOuter2"></feComposite>
            <feColorMatrix values="0 0 0 0 0   0 0 0 0 0   0 0 0 0 0  0 0 0 0.15 0" type="matrix" in="shadowBlurOuter2" result="shadowMatrixOuter2"></feColorMatrix>
            <feMerge>
                <feMergeNode in="shadowMatrixOuter1"></feMergeNode>
                <feMergeNode in="shadowMatrixOuter2"></feMergeNode>
            </feMerge>
        </filter>
        <path d="M3.5524635,13.59941 C3.9197325,13.59941 4.2174635,13.897141 4.2174635,14.26441 L4.2174635,17.151873 C4.2174635,17.519142 3.9197325,17.816873 3.5524635,17.816873 L0.6649995,17.816873 C0.2977305,17.816873 5.68434189e-14,17.519142 5.68434189e-14,17.151873 L5.68434189e-14,14.26441 C5.68434189e-14,13.897141 0.2977305,13.59941 0.6649995,13.59941 L3.5524635,13.59941 Z M2.8874635,14.92941 L1.3299995,14.92941 L1.3299995,16.486873 L2.8874635,16.486873 L2.8874635,14.92941 Z M6.1189495,15.043141 L17.4603605,15.043141 C17.8276305,15.043141 18.1253605,15.340872 18.1253605,15.708141 C18.1253605,16.042023 17.8793005,16.318434 17.5586305,16.365931 L17.4603605,16.373141 L6.1189495,16.373141 C5.7516805,16.373141 5.4539495,16.075411 5.4539495,15.708141 C5.4539495,15.37426 5.7000085,15.097849 6.0206805,15.050352 L6.1189495,15.043141 L17.4603605,15.043141 L6.1189495,15.043141 Z M3.5524635,6.7997 C3.9197325,6.7997 4.2174635,7.09744 4.2174635,7.4647 L4.2174635,10.352168 C4.2174635,10.719437 3.9197325,11.017168 3.5524635,11.017168 L0.6649995,11.017168 C0.2977305,11.017168 5.68434189e-14,10.719437 5.68434189e-14,10.352168 L5.68434189e-14,7.4647 C5.68434189e-14,7.09744 0.2977305,6.7997 0.6649995,6.7997 L3.5524635,6.7997 Z M2.8874635,8.1297 L1.3299995,8.1297 L1.3299995,9.687168 L2.8874635,9.687168 L2.8874635,8.1297 Z M17.4603605,8.24344 C17.8276305,8.24344 18.1253605,8.54117 18.1253605,8.90844 C18.1253605,9.242317 17.8793005,9.518728 17.5586305,9.566226 L17.4603605,9.573436 L6.1189495,9.573436 C5.7516805,9.573436 5.4539495,9.275705 5.4539495,8.90844 C5.4539495,8.57455 5.7000085,8.29814 6.0206805,8.25065 L6.1189495,8.24344 L17.4603605,8.24344 Z M3.5524635,6.66133815e-16 C3.9197325,6.66133815e-16 4.2174635,0.29773 4.2174635,0.665 L4.2174635,3.55246 C4.2174635,3.91973 3.9197325,4.21746 3.5524635,4.21746 L0.6649995,4.21746 C0.2977305,4.21746 5.68434189e-14,3.91973 5.68434189e-14,3.55246 L5.68434189e-14,0.665 C5.68434189e-14,0.29773 0.2977305,6.66133815e-16 0.6649995,6.66133815e-16 L3.5524635,6.66133815e-16 Z M2.8874635,1.33 L1.3299995,1.33 L1.3299995,2.88746 L2.8874635,2.88746 L2.8874635,1.33 Z M17.4603605,1.44373 C17.8276305,1.44373 18.1253605,1.74146 18.1253605,2.10873 C18.1253605,2.44261 17.8793005,2.71902 17.5586305,2.76652 L17.4603605,2.77373 L6.1189495,2.77373 C5.7516805,2.77373 5.4539495,2.476 5.4539495,2.10873 C5.4539495,1.77485 5.7000085,1.49844 6.0206805,1.45094 L6.1189495,1.44373 L17.4603605,1.44373 Z" id="path-17"></path>
    </defs>
    <g id="Roles-2" stroke="none" stroke-width="1" fill="none" fill-rule="evenodd">
        <rect fill="#EFEFEF" x="0" y="0" width="1600" height="1684"></rect>
        <rect id="Rectangle" fill="#FFFFFF" x="0" y="80" width="1600" height="90"></rect>
        <g id="masthead-wide" transform="translate(-21, 0)">
            <rect id="Rectangle-2" fill="#000000" x="0" y="0" width="1637" height="80"></rect>
            <g id="Close-Button/Text/Large/White" transform="translate(1363, 15)">
                <rect id="Rectangle" x="0" y="0" width="128" height="50"></rect>
                <text id="CANCEL" font-family="Montserrat-Bold, Montserrat" font-size="14" font-weight="bold" line-spacing="22" letter-spacing="1.5" fill="#FFFFFF">
                    <tspan x="12.786" y="28">CANCEL</tspan>
                </text>
                <g id="jumbo-X" transform="translate(92, 14)" fill="#FFFFFF">
                    <path d="M1.81289944,0.409704612 L1.90710678,0.492893219 L11.494,10.079 L21.0812932,0.492893219 C21.4718175,0.102368927 22.1049825,0.102368927 22.4955068,0.492893219 C22.8559907,0.85337718 22.8837203,1.42060824 22.5786954,1.81289944 L22.4955068,1.90710678 L12.908,11.494 L22.4955068,21.0812932 C22.8860311,21.4718175 22.8860311,22.1049825 22.4955068,22.4955068 C22.1350228,22.8559907 21.5677918,22.8837203 21.1755006,22.5786954 L21.0812932,22.4955068 L11.494,12.908 L1.90710678,22.4955068 C1.51658249,22.8860311 0.883417511,22.8860311 0.492893219,22.4955068 C0.132409257,22.1350228 0.104679722,21.5677918 0.409704612,21.1755006 L0.492893219,21.0812932 L10.079,11.494 L0.492893219,1.90710678 C0.102368927,1.51658249 0.102368927,0.883417511 0.492893219,0.492893219 C0.85337718,0.132409257 1.42060824,0.104679722 1.81289944,0.409704612 Z" id="Combined-Shape"></path>
                </g>
            </g>
            <g id="Comcast_Business_v_w" transform="translate(154, 20)" fill="#FFFFFF">
                <path d="M25.5000971,15.3255413 C21.7348609,15.3255413 18.6707617,12.261948 18.6707617,8.4987375 C18.6707617,4.73727506 21.7348609,1.67445873 25.5000971,1.67445873 C29.2653334,1.67445873 32.3288498,4.73727506 32.3288498,8.4987375 C32.3288498,12.261948 29.2653334,15.3255413 25.5000971,15.3255413 M25.5000971,0 C20.8128336,0 17,3.81215653 17,8.4987375 C17,13.1851243 20.8128336,17 25.5000971,17 C30.1873607,17 34,13.1851243 34,8.4987375 C34,3.81215653 30.1873607,0 25.5000971,0" id="Fill-1"></path>
                <path d="M97.4448571,8.60711797 C97.0033386,8.36782634 94.3268437,6.93887461 93.9408433,6.73221365 C92.5360117,5.99044844 92.0378498,5.33181377 92.0378498,4.217515 C92.0378498,2.67163668 93.2639358,1.67251642 95.1658039,1.67251642 C96.2825418,1.67251642 97.3625178,2.18081691 97.9944107,2.5496601 C98.1101358,2.61511568 98.2453672,2.6512425 98.3869758,2.6512425 C98.8314952,2.6512425 99.1934879,2.2771551 99.1934879,1.81624679 C99.1934879,1.50703228 99.0310601,1.2372465 98.789294,1.09254499 C97.9919724,0.632607826 96.6319679,0 95.1658039,0 C92.3730212,0 90.4218246,1.73505855 90.4218246,4.217515 C90.4218246,6.44824907 91.8371596,7.50039417 93.2228599,8.23303056 C93.6101733,8.43736075 96.3191162,9.88398743 96.7257484,10.1056041 C97.7959712,10.685964 98.3869758,11.5557269 98.3869758,12.5571779 C98.3869758,13.899503 97.2895566,15.3265124 95.256771,15.3265124 C93.2804411,15.3265124 91.7450671,13.9531105 91.3206167,13.5312425 L91.1957011,13.4055755 L90,14.5326935 L90.1410458,14.6768123 C90.6709055,15.2227935 92.6097232,17 95.256771,17 C98.2254858,17 100,14.7403256 100,12.5571779 C100,10.9268095 99.0698852,9.48620394 97.4448571,8.60711797" id="Fill-3"></path>
                <path d="M8.06409142,1.67445873 C9.79579746,1.67445873 11.4233615,2.38378749 12.6452326,3.67172808 C12.9357243,3.97628106 13.4811333,3.97628106 13.7672012,3.67172808 C13.918714,3.51517852 14,3.30560411 14,3.08087975 C14,2.85906884 13.918714,2.64716367 13.7672012,2.49100257 L13.6711694,2.38572979 C12.1599126,0.84742645 10.1673908,0 8.06409142,0 C3.61750533,0 0,3.81215653 0,8.4987375 C0,13.1851243 3.61750533,17 8.06409142,17 C10.4114332,17 12.5257919,15.9381434 13.9996314,14.2463982 L12.8774785,13.0617881 C11.6906285,14.4511168 9.97293098,15.3255413 8.06409142,15.3255413 C4.49211365,15.3255413 1.58553862,12.261948 1.58553862,8.4987375 C1.58553862,4.73746929 4.49211365,1.67445873 8.06409142,1.67445873" id="Fill-5"></path>
                <path d="M64.0639233,1.67445873 C65.7940658,1.67445873 67.4222942,2.38378749 68.643788,3.67172808 C68.9340494,3.97628106 69.4799252,3.97628106 69.7663165,3.67172808 C69.9172525,3.51517852 70,3.30560411 70,3.08087975 C70,2.85906884 69.9172525,2.64716367 69.7663165,2.49100257 L69.6695627,2.38572979 C68.1578074,0.84742645 66.167259,0 64.0639233,0 C59.6176711,0 56,3.81215653 56,8.4987375 C56,13.1851243 59.6176711,17 64.0639233,17 C66.4096043,17 68.5241819,15.9381434 69.9988942,14.2463982 L68.8758129,13.0617881 C67.6898876,14.4511168 65.9720928,15.3255413 64.0639233,15.3255413 C60.4919569,15.3255413 57.585841,12.261948 57.585841,8.4987375 C57.585841,4.73746929 60.4919569,1.67445873 64.0639233,1.67445873" id="Fill-7"></path>
                <path d="M50.4157639,0 C50.1137467,0 49.8765409,0.202193659 49.7456108,0.464404456 C49.6137467,0.725061411 44.9368696,12.7558755 44.9366829,12.7558755 C44.9366829,12.7558755 40.2594322,0.725061411 40.1273814,0.464404456 C39.9964513,0.202193659 39.759619,0 39.457415,0 C39.105155,0 38.8393724,0.268620394 38.7461711,0.60949443 C38.6531565,0.950951157 36.0143818,16.0937218 36.0143818,16.0937218 C36.0052297,16.1426678 36,16.1933619 36,16.2456098 C36,16.6624279 36.3261113,17 36.7254389,17 C37.0782592,17 37.3735525,16.7372065 37.43743,16.3897286 L39.7224505,3.43573836 C39.7224505,3.43573836 44.1316773,14.7638275 44.2613,15.033419 C44.3907359,15.3028163 44.6299963,15.5110311 44.9368696,15.5110311 C45.2431827,15.5110311 45.4826298,15.3028163 45.6116922,15.033419 C45.7413149,14.7638275 50.1505417,3.43573836 50.1505417,3.43573836 L52.5261487,16.9056041 L54,16.9056041 C54,16.9056041 51.2202092,0.950951157 51.1271946,0.60949443 C51.0336197,0.268620394 50.7682107,0 50.4157639,0" id="Fill-9"></path>
                <path d="M77.574749,8.85156513 L80.073367,2.81474337 L82.5748663,8.85156513 L77.574749,8.85156513 Z M80.073367,0.13980273 C79.7587348,0.139425924 79.5161337,0.340357735 79.3793705,0.602795434 C79.2435677,0.86447846 73.1545309,15.6349476 73.1545309,15.6349476 C73.1174589,15.7226784 73.097098,15.8192766 73.097098,15.9202142 C73.097098,16.3250965 73.4311307,16.6531908 73.842957,16.6531908 C74.157013,16.6531908 74.4266978,16.4603717 74.5359931,16.1883119 L76.9005371,10.4771318 L83.2483099,10.4771318 L85.7694016,16.5613093 L87.3796349,16.5613093 C87.3796349,16.5613093 80.900093,0.86447846 80.7669794,0.602795434 C80.6334816,0.340357735 80.3883835,0.139425924 80.073367,0.13980273 L80.073367,0.13980273 Z" id="Fill-11"></path>
                <path d="M111.650621,0.851403742 C111.650621,0.402184359 111.29537,0.0391864199 110.861011,0.0391864199 L101.939256,0.0391864199 C101.504713,0.0391864199 101.152392,0.402184359 101.152392,0.851403742 C101.152392,1.29911378 101.504713,1.66248905 101.939256,1.66248905 L105.67965,1.66248905 L105.67965,16.372773 L107.123363,16.372773 L107.123363,1.66248905 L110.861011,1.66248905 C111.29537,1.66248905 111.650621,1.29911378 111.650621,0.851403742" id="Fill-14"></path>
                <path d="M49.5007526,23 C48.5737223,23 48,23.5932459 48,24.3208852 L48,40 L51,40 L51,24.3208852 C51,23.5932459 50.4286431,23 49.5007526,23" id="Fill-17"></path>
                <path d="M18.7491733,33.2258883 L18.7505523,24.3136576 C18.7505523,23.5896785 18.2109618,23 17.3766552,23 C16.5305284,23 16,23.5896785 16,24.3136576 L16,33.1454246 C16,36.9264417 18.7007106,40 22.9995075,40 C27.2904243,40 29.997439,36.9264417 29.997439,33.1454246 L30,23.0861001 L27.2459016,23.0861001 L27.2459016,33.2258883 C27.2459016,35.4571043 25.7417857,37.4527599 22.9995075,37.4527599 C20.2542743,37.4527599 18.7491733,35.4571043 18.7491733,33.2258883" id="Fill-19"></path>
                <path d="M83.5725516,25.5231253 C84.4566062,25.5231253 85,24.980317 85,24.2621171 C85,23.5429931 84.4585407,23 83.5725516,23 L75.3090586,23 C74.5402986,23 74,23.5204454 74,24.248071 L74,37.7571039 C74,38.4623666 74.5507448,39 75.3090586,39 L84.9112076,39 L84.9112076,36.4848219 L76.6949159,36.4848219 L76.6949159,31.8407337 L82.8910364,31.8407337 C83.8306104,31.8407337 84.3498233,31.3071663 84.3498233,30.5830523 C84.3498233,29.8594927 83.8354466,29.3255556 82.8910364,29.3255556 L76.6949159,29.3255556 L76.6949159,25.5231253 L83.5725516,25.5231253 Z" id="Fill-21"></path>
                <path d="M7.63458507,36.5320919 L3.58711173,36.5320919 L3.58711173,31.7474701 L7.63458507,31.7483943 C9.49476124,31.7483943 10.3815484,32.8252391 10.3815484,34.1395961 C10.3815484,35.4550622 9.43931386,36.5320919 7.63458507,36.5320919 L7.63458507,36.5320919 Z M3.58711173,25.5009935 L7.46842837,25.5009935 C8.927121,25.5009935 9.63569773,26.3684211 9.63569773,27.4465598 C9.63569773,28.5165658 8.85795086,29.3934199 7.46842837,29.3934199 L3.58711173,29.3934199 L3.58711173,25.5009935 Z M10.6352341,30.3384779 C11.0641632,30.0658472 12.2548911,29.1324338 12.2548911,27.0585925 C12.2548911,24.6054711 10.4941122,23 7.79629115,23 L2.25044043,23 C1.50180807,23 1,23.5095883 1,24.2467076 L1,39 L8.12100139,39 C11.0061196,39 13,36.9067511 13,34.2288711 C13,31.3761379 11.0919796,30.549189 10.6352341,30.3384779 L10.6352341,30.3384779 Z" id="Fill-23"></path>
                <path d="M57.3596242,23 C56.5337117,23 56,23.5836067 56,24.3007259 L56,38.6936382 C56,39.4189197 56.6419415,40 57.3717585,40 C58.085527,40 58.7268813,39.4189197 58.7268813,38.6936382 L58.7268813,28.3088197 C58.7268813,28.3088197 65.3709756,36.7465333 67.1372933,38.9756273 C67.5776495,39.5308602 67.8888345,40 68.6765828,40 C69.4686369,40 70,39.4305802 70,38.6926665 L70,23.0882309 L67.2740973,23.0882309 L67.2740973,34.7349071 C67.2740973,34.7349071 59.8653489,25.2982795 58.8315882,23.9913347 C58.3614835,23.392375 57.98767,23 57.3596242,23" id="Fill-25"></path>
                <path d="M33,37.4938575 C33.338958,37.9426318 34.8968283,40 38.335677,40 C41.7032967,40 44,38.0253928 44,35.27427 C44,33.4665448 43.2989775,32.0073482 40.6678992,30.7193075 C39.9640123,30.3715559 37.9816329,29.4048454 37.9816329,29.4048454 C36.9258025,28.8855494 36.4629099,28.2687275 36.4629099,27.4374264 C36.4629099,26.5523113 37.1788275,25.6025027 38.9167752,25.6025027 C39.9063417,25.6025027 40.6730552,25.9261642 41.0830512,26.115582 C41.2839435,26.2088338 41.7602035,26.4411862 42.2072462,26.4411862 C42.7917817,26.4411862 43.4265403,26.0182504 43.4265403,25.1589738 C43.4265403,24.4395749 42.9193445,24.0488886 42.4774578,23.8361579 C41.7649775,23.4938461 40.6556777,23 38.7936045,23 C35.8503029,23 33.6674132,24.8982572 33.6674132,27.5196046 C33.6674132,29.9317182 35.2548826,31.1270899 37.1832196,32.0675733 C37.5485305,32.2490258 38.968335,32.9472487 39.35828,33.1389978 C40.5705085,33.7361979 41.2083225,34.3056168 41.2083225,35.342849 C41.2083225,36.4682818 40.1819002,37.4027427 38.6202108,37.4027427 C36.3844244,37.4027427 35.1937746,35.9105194 34.9751228,35.659128 L33,37.4938575 Z" id="Fill-27"></path>
                <path d="M87,37.4938575 C87.3400802,37.9426318 88.9068169,40 92.344663,40 C95.7072752,40 98,38.0253928 98,35.27427 C98,33.4665448 97.3120107,32.0073482 94.6673668,30.7193075 C93.9669658,30.3715559 91.9854879,29.4048454 91.9854879,29.4048454 C90.9266756,28.8855494 90.4640061,28.2687275 90.4640061,27.4374264 C90.4640061,26.5523113 91.1785373,25.6025027 92.9257208,25.6025027 C93.9117816,25.6025027 94.6730953,25.9261642 95.0866909,26.115582 C95.2890968,26.2088338 95.763987,26.4411862 96.217109,26.4411862 C96.8010311,26.4411862 97.4391827,26.0182504 97.4391827,25.1589738 C97.4391827,24.4395749 96.932404,24.0488886 96.486729,23.8361579 C95.7691426,23.4938461 94.6562918,23 92.8038954,23 C89.864999,23 87.6730953,24.8982572 87.6730953,27.5196046 C87.6730953,29.9317182 89.2648463,31.1270899 91.183693,32.0675733 C91.5537521,32.2490258 92.9780409,32.9472487 93.3717777,33.1389978 C94.5711285,33.7361979 95.2127172,34.3056168 95.2127172,35.342849 C95.2127172,36.4682818 94.1810197,37.4027427 92.629177,37.4027427 C90.3841894,37.4027427 89.2025969,35.9105194 88.9854879,35.659128 L87,37.4938575 Z" id="Fill-29"></path>
                <path d="M101,37.4938575 C101.340098,37.9426318 102.887629,40 106.326036,40 C109.69016,40 112,38.0253928 112,35.27427 C112,33.4665448 111.294216,32.0073482 108.66853,30.7193075 C107.959881,30.3715559 105.96837,29.4048454 105.96837,29.4048454 C104.926498,28.8855494 104.463423,28.2687275 104.463423,27.4374264 C104.463423,26.5523113 105.178755,25.6025027 106.908079,25.6025027 C107.90183,25.6025027 108.673686,25.9261642 109.08482,26.115582 C109.280172,26.2088338 109.746111,26.4411862 110.198493,26.4411862 C110.782828,26.4411862 111.42254,26.0182504 111.42254,25.1589738 C111.42254,24.4395749 110.913825,24.0488886 110.468891,23.8361579 C109.751267,23.4938461 108.656691,23 106.785102,23 C103.847198,23 101.670266,24.8982572 101.670266,27.5196046 C101.670266,29.9317182 103.245677,31.1270899 105.183911,32.0675733 C105.54616,32.2490258 106.96002,32.9472487 107.353778,33.1389978 C108.571523,33.7361979 109.206079,34.3056168 109.206079,35.342849 C109.206079,36.4682818 108.182157,37.4027427 106.612093,37.4027427 C104.38322,37.4027427 103.184189,35.9105194 102.96745,35.659128 L101,37.4938575 Z" id="Fill-31"></path>
            </g>
        </g>
        <g id="FOOTER" transform="translate(0, 1576)">
            <mask id="mask-2" fill="white">
                <use xlink:href="#path-1"></use>
            </mask>
            <use id="Rectangle-2" fill="#000000" xlink:href="#path-1"></use>
            <g id="Global/Footer/Desktop" mask="url(#mask-2)">
                <g transform="translate(80, -423)">
                    <rect id="Rectangle" fill="#191919" x="0" y="0" width="1440" height="580"></rect>
                    <rect id="Background" fill="#000000" x="0" y="0" width="1440" height="580"></rect>
                    <g id="Global-Footer" stroke-width="1" fill="none" transform="translate(74, 438.8411)">
                        <g id="Social-Icons" transform="translate(578, 87.3841)" fill-rule="nonzero">
                            <g id="Facebook">
                                <path d="M22.6758621,0 L1.32413793,0 C0.592836745,0 0,0.569280318 0,1.27152318 L0,21.7748344 C0,22.4770773 0.592836745,23.0463576 1.32413793,23.0463576 L12.8275862,23.0463576 L12.8275862,14.1337748 L9.70344828,14.1337748 L9.70344828,10.6450331 L12.8275862,10.6450331 L12.8275862,8.0781457 C12.8275862,5.10198675 14.7227586,3.4807947 17.4868966,3.4807947 C18.4183753,3.47884404 19.3493164,3.52393944 20.2758621,3.61589404 L20.2758621,6.72715232 L18.3724138,6.72715232 C16.8662069,6.72715232 16.5724138,7.41059603 16.5724138,8.41986755 L16.5724138,10.6410596 L20.1724138,10.6410596 L19.7048276,14.1298013 L16.5517241,14.1298013 L16.5517241,23.0463576 L22.6758621,23.0463576 C23.4071633,23.0463576 24,22.4770773 24,21.7748344 L24,1.27152318 C24,0.569280318 23.4071633,0 22.6758621,0 Z" id="Shape" fill="#4267B2"></path>
                                <path d="M16.5517241,23.0463576 L16.5517241,14.1337748 L19.6841379,14.1337748 L20.1517241,10.6450331 L16.5517241,10.6450331 L16.5517241,8.42384106 C16.5517241,7.41456954 16.8455172,6.73112583 18.3517241,6.73112583 L20.2758621,6.73112583 L20.2758621,3.61589404 C19.3479436,3.52380018 18.4156175,3.4787046 17.4827586,3.48072526 C14.7144828,3.48072526 12.8275862,5.10198675 12.8275862,8.0781457 L12.8275862,10.6450331 L9.70344828,10.6450331 L9.70344828,14.1337748 L12.8275862,14.1337748 L12.8275862,23.0463576 L16.5517241,23.0463576 Z" id="f" fill="#FFFFFF"></path>
                            </g>
                            <g id="Linkedin" transform="translate(56, -0.0002)">
                                <path d="M22.2207414,0.000249101598 L1.77925864,0.000249101598 C1.31359555,-0.00744929419 0.863961611,0.163561997 0.529982009,0.475392085 C0.196002407,0.787222173 0.00525370377,1.21412337 -8.04689648e-13,1.66150738 L-8.04689648e-13,21.3853484 C0.00525370377,21.8327324 0.196002407,22.2596336 0.529982009,22.5714637 C0.863961611,22.8832938 1.31359555,23.0543051 1.77925864,23.0466067 L22.2207414,23.0466067 C23.1885362,23.0573065 23.9835665,22.3150027 24,21.3853484 L24,1.66150738 C23.9835665,0.731853159 23.1885362,-0.0104507101 22.2207414,0.000249101598" id="Path" fill="#006087"></path>
                                <ellipse id="Oval" fill="#FFFFFF" cx="5.34" cy="5.15687162" rx="2.06" ry="1.9781457"></ellipse>
                                <rect id="Rectangle" fill="#FFFFFF" x="3.56" y="8.64263321" width="3.56" height="10.9950331"></rect>
                                <path d="M9.36,8.64263321 L12.77,8.64263321 L12.77,10.1406465 L12.77,10.1406465 C13.4661648,8.99696872 14.7614421,8.3141654 16.14,8.36415639 C19.74,8.36415639 20.41,10.6399842 20.41,13.6072027 L20.41,19.6376663 L16.94,19.6376663 L16.94,14.2889908 C16.94,13.0118385 16.94,11.4081961 15.09,11.4081961 C13.24,11.4081961 12.94,12.7621696 12.94,14.202567 L12.94,19.6376663 L9.36,19.6376663 L9.36,8.64263321" id="Path" fill="#FFFFFF"></path>
                            </g>
                            <g id="Twitter" transform="translate(112, 0)">
                                <polygon id="Path" fill="#1DA1F2" points="24 23.0463576 0 23.0463576 0 0 24 0"></polygon>
                                <path d="M9.22,17.3807947 C11.5464707,17.3936875 13.7813984,16.5112647 15.4255492,14.93064 C17.0697001,13.3500152 17.9860836,11.2028862 17.97,8.96887417 C17.97,8.84403974 17.97,8.70960265 17.97,8.58476821 C18.5702632,8.16699108 19.0883357,7.64999497 19.5,7.05794702 C18.9374072,7.2959488 18.3407313,7.45132965 17.73,7.51887417 C18.3707923,7.14941724 18.8504121,6.56945015 19.08,5.88642384 C18.461918,6.23614148 17.7851448,6.47984707 17.08,6.60662252 C16.1250719,5.63535302 14.6107109,5.39925439 13.3848323,6.03052208 C12.1589537,6.66178977 11.5258474,8.00372928 11.84,9.30496689 C9.38356147,9.17041004 7.09996362,8.04783365 5.55,6.21291391 C4.74115998,7.57503197 5.17989336,9.30657608 6.55,10.1596026 C6.06219296,10.143012 5.58559657,10.0146042 5.16,9.78509934 C5.16,9.78509934 5.16,9.78509934 5.16,9.78509934 C5.16899977,11.185885 6.20011352,12.3884871 7.63,12.665894 C7.36606274,12.7353938 7.09367994,12.7709143 6.82,12.7715232 C6.62523067,12.7695241 6.43107097,12.7502367 6.24,12.7139073 C6.64250239,13.9205695 7.80071425,14.7469886 9.12,14.7688742 C7.82678222,15.736599 6.18797408,16.1748854 4.56,15.9884106 C5.94341781,16.869483 7.56022779,17.3525776 9.22,17.3807947" id="Path" fill="#FFFFFF"></path>
                            </g>
                        </g>
                        <g transform="translate(0, 46.0927)" fill="#FFFFFF" font-family="Lato-Regular, Lato" font-size="14" font-weight="normal" line-spacing="20">
                            <text id="©2021-Comcast-Corpor">
                                <tspan x="1113.25" y="14">©2021 Comcast Corporation</tspan>
                            </text>
                            <text id="Contact-Us">
                                <tspan x="0.382" y="14">Contact Us</tspan>
                            </text>
                            <text id="Community">
                                <tspan x="93.048" y="14">Community</tspan>
                            </text>
                            <text id="Privacy-Policy">
                                <tspan x="188.167" y="14">Privacy Policy</tspan>
                            </text>
                            <text id="Do-Not-Sell-My-Perso">
                                <tspan x="296.776" y="14">Do Not Sell My Personal Information</tspan>
                            </text>
                            <text id="Visitor-Agreement">
                                <tspan x="546.031" y="14">Visitor Agreement</tspan>
                            </text>
                            <text id="Open-Source">
                                <tspan x="899.387" y="14">Open Source</tspan>
                            </text>
                            <text id="Comcast-RISE">
                                <tspan x="1004.314" y="14">Comcast RISE</tspan>
                            </text>
                            <text id="Terms-&amp;-Conditions">
                                <tspan x="680.464" y="14">Terms &amp; Conditions</tspan>
                            </text>
                            <text id="Sitemap">
                                <tspan x="825.059" y="14">Sitemap</tspan>
                            </text>
                        </g>
                        <rect id="Rule" fill="#FFFFFF" x="111" y="0" width="1070" height="1"></rect>
                    </g>
                    <g id="Partners" stroke-width="1" fill="none" transform="translate(1054, 43.2119)">
                        <text id="Solution-Providers-A" font-family="Lato-Regular, Lato" font-size="14" font-weight="normal" line-spacing="30" fill="#FFFFFF">
                            <tspan x="0" y="55.0264901">Solution Providers</tspan>
                            <tspan x="0" y="95.0264901">Authorized Connectors</tspan>
                            <tspan x="0" y="135.02649">Alliance</tspan>
                        </text>
                        <line x1="0" y1="23.0463576" x2="145" y2="23.0463576" id="Line-Copy-8" stroke="#FFFFFF" stroke-linecap="square"></line>
                        <text font-family="Lato-Bold, Lato" font-size="18" font-weight="bold" line-spacing="22" fill="#FFFFFF">
                            <tspan x="0" y="17.5629139">Partners</tspan>
                        </text>
                    </g>
                    <g id="About-Us" stroke-width="1" fill="none" transform="translate(880, 43.2119)">
                        <text id="Why-Comcast-Our-Netw" font-family="Lato-Regular, Lato" font-size="14" font-weight="normal" line-spacing="30" fill="#FFFFFF">
                            <tspan x="1.316" y="49.5629139">Why Comcast</tspan>
                            <tspan x="1.316" y="89.5629139">Our Network</tspan>
                            <tspan x="1.316" y="129.562914">Press Releases</tspan>
                            <tspan x="1.316" y="169.562914">Advertising</tspan>
                            <tspan x="0" y="209.562914" line-spacing="8">Comcast Business</tspan>
                            <tspan x="0" y="227.562914" line-spacing="8">Promise</tspan>
                            <tspan x="1.316" y="245.562914" line-spacing="8"></tspan>
                            <tspan x="1.316" y="263.562914">Careers</tspan>
                            <tspan x="1.316" y="303.562914">Awards</tspan>
                            <tspan x="0" y="343.562914" line-spacing="8">Comcast Diversity</tspan>
                            <tspan x="0" y="361.562914" line-spacing="8">Equity &amp; Inclusion</tspan>
                        </text>
                        <line x1="1" y1="23.0463576" x2="146" y2="23.0463576" id="Line-Copy-7" stroke="#FFFFFF" stroke-linecap="square"></line>
                        <text font-family="Lato-Bold, Lato" font-size="18" font-weight="bold" line-spacing="22" fill="#FFFFFF">
                            <tspan x="0" y="17.5629139">About Us</tspan>
                        </text>
                    </g>
                    <g id="My-Account" stroke-width="1" fill="none" transform="translate(709, 43.2119)">
                        <text id="My-Account-Cloud-Sol" font-family="Lato-Regular, Lato" font-size="14" font-weight="normal" line-spacing="30" fill="#FFFFFF">
                            <tspan x="0" y="55.8211921">My Account</tspan>
                            <tspan x="0" y="95.8211921">Cloud Solutions </tspan>
                        </text>
                        <line x1="0" y1="23.0463576" x2="145" y2="23.0463576" id="Line-Copy-6" stroke="#FFFFFF" stroke-linecap="square"></line>
                        <text font-family="Lato-Bold, Lato" font-size="18" font-weight="bold" line-spacing="22" fill="#FFFFFF">
                            <tspan x="0" y="17.5629139">My Account</tspan>
                        </text>
                    </g>
                    <g id="Support" stroke-width="1" fill="none" transform="translate(538, 43.2119)">
                        <text id="Help-&amp;-Support-Forum" font-family="Lato-Regular, Lato" font-size="14" font-weight="normal" line-spacing="30" fill="#FFFFFF">
                            <tspan x="0" y="55.8211921">Help &amp; Support</tspan>
                            <tspan x="0" y="95.8211921">Forums</tspan>
                        </text>
                        <line x1="0" y1="23.0463576" x2="145" y2="23.0463576" id="Line-Copy-5" stroke="#FFFFFF" stroke-linecap="square"></line>
                        <text font-family="Lato-Bold, Lato" font-size="18" font-weight="bold" line-spacing="22" fill="#FFFFFF">
                            <tspan x="0" y="17.5629139">Support</tspan>
                        </text>
                    </g>
                    <g id="Shop" stroke-width="1" fill="none" transform="translate(365, 43.2119)">
                        <text id="Business-Internet-Bu" font-family="Lato-Regular, Lato" font-size="14" font-weight="normal" line-spacing="30" fill="#FFFFFF">
                            <tspan x="0" y="52.6423841">Business Internet</tspan>
                            <tspan x="0" y="92.6423841">Business Phone</tspan>
                            <tspan x="0" y="132.642384">Business TV</tspan>
                            <tspan x="0" y="172.642384">Cloud Solutions</tspan>
                            <tspan x="0" y="212.642384">Bundles</tspan>
                            <tspan x="0" y="252.642384">Resources</tspan>
                        </text>
                        <line x1="1" y1="23.0463576" x2="146" y2="23.0463576" id="Line" stroke="#FFFFFF" stroke-linecap="square"></line>
                        <text font-family="Lato-Bold, Lato" font-size="18" font-weight="bold" line-spacing="22" fill="#FFFFFF">
                            <tspan x="0" y="17.5629139">Shop</tspan>
                        </text>
                    </g>
                    <g id="Logos/ComcastBusiness/White" stroke-width="1" fill="none" transform="translate(200, 50.3518)">
                        <g id="Comcast_Business_v_w" transform="translate(0, -0.162)">
                            <path d="M22.6618821,12.9436288 C19.3709586,12.9436288 16.6928489,10.3885805 16.6928489,7.2500488 C16.6928489,4.11297497 19.3709586,1.55857461 22.6618821,1.55857461 C25.9528056,1.55857461 28.6304059,4.11297497 28.6304059,7.2500488 C28.6304059,10.3885805 25.9528056,12.9436288 22.6618821,12.9436288 M22.6618821,0.162069729 C18.5650806,0.162069729 15.2325557,3.34142262 15.2325557,7.2500488 C15.2325557,11.158513 18.5650806,14.3401337 22.6618821,14.3401337 C26.7586836,14.3401337 30.0910387,11.158513 30.0910387,7.2500488 C30.0910387,3.34142262 26.7586836,0.162069729 22.6618821,0.162069729" id="Fill-1" fill="#FEFEFE"></path>
                            <path d="M86.7254696,7.34045471 C86.3257568,7.14088459 83.9026889,5.94913347 83.5532374,5.77677746 C82.2814239,5.15814248 81.830431,4.60883868 81.830431,3.67950931 C81.830431,2.39024097 82.9404236,1.55697092 84.6622112,1.55697092 C85.6732095,1.55697092 86.6509267,1.98089544 87.2229881,2.28851205 C87.3277556,2.34310225 87.4501825,2.37323216 87.5783827,2.37323216 C87.9808123,2.37323216 88.3085292,2.06124185 88.3085292,1.67684259 C88.3085292,1.41895652 88.1614811,1.19395417 87.9426069,1.07327256 C87.2207806,0.689683237 85.9895497,0.162085928 84.6622112,0.162085928 C82.1338664,0.162085928 80.3674211,1.60913129 80.3674211,3.67950931 C80.3674211,5.53994993 81.6487434,6.4174429 82.9032371,7.02846441 C83.2538773,7.19887656 85.7063208,8.40536866 86.0744505,8.5901978 C87.043338,9.07422014 87.5783827,9.79960569 87.5783827,10.6348196 C87.5783827,11.7543238 86.5848739,12.944455 84.7445649,12.944455 C82.9553662,12.944455 81.5653709,11.7990326 81.18111,11.4471931 L81.0680222,11.3423864 L79.9855374,12.282407 L80.1132282,12.4026027 C80.5929175,12.857953 82.3481559,14.3401499 84.7445649,14.3401499 C87.4321835,14.3401499 89.0386758,12.455573 89.0386758,10.6348196 C89.0386758,9.27508617 88.19663,8.07361573 86.7254696,7.34045471" id="Fill-3" fill="#FEFEFE"></path>
                            <path d="M7.42881697,1.55854221 C9.02410235,1.55854221 10.5234499,2.15012507 11.6490642,3.22427237 C11.9166714,3.47827071 12.4191142,3.47827071 12.6826461,3.22427237 C12.822223,3.09370945 12.8971055,2.91892361 12.8971055,2.73150264 C12.8971055,2.54651151 12.822223,2.3697818 12.6826461,2.23954285 L12.5941795,2.15174496 C11.2019768,0.86879418 9.36642223,0.162037331 7.42881697,0.162037331 C3.33252484,0.162037331 0,3.34139023 0,7.2500164 C0,11.1584806 3.33252484,14.3401013 7.42881697,14.3401013 C9.59123946,14.3401013 11.5390328,13.4545089 12.8967659,12.043587 L11.8630141,11.0556177 C10.7696621,12.2143232 9.18728162,12.9435964 7.42881697,12.9435964 C4.1382331,12.9435964 1.46063277,10.3885481 1.46063277,7.2500164 C1.46063277,4.11310456 4.1382331,1.55854221 7.42881697,1.55854221" id="Fill-5" fill="#FEFEFE"></path>
                            <path d="M57.7957036,1.55854221 C59.3898004,1.55854221 60.8899969,2.15012507 62.0154414,3.22427237 C62.2828788,3.47827071 62.785831,3.47827071 63.0497025,3.22427237 C63.18877,3.09370945 63.2650109,2.91892361 63.2650109,2.73150264 C63.2650109,2.54651151 63.18877,2.3697818 63.0497025,2.23954285 L62.9605567,2.15174496 C61.5676748,0.86879418 59.7336484,0.162037331 57.7957036,0.162037331 C53.6990719,0.162037331 50.3658678,3.34139023 50.3658678,7.2500164 C50.3658678,11.1584806 53.6990719,14.3401013 57.7957036,14.3401013 C59.9569375,14.3401013 61.9052402,13.4545089 63.2639921,12.043587 L62.2292215,11.0556177 C61.1365487,12.2143232 59.5538286,12.9435964 57.7957036,12.9435964 C54.5046103,12.9435964 51.82701,10.3885481 51.82701,7.2500164 C51.82701,4.11310456 54.5046103,1.55854221 57.7957036,1.55854221" id="Fill-7" fill="#FEFEFE"></path>
                            <path d="M45.2103367,0.162021132 C44.9357677,0.162021132 44.7201197,0.330651405 44.6010889,0.549336197 C44.481209,0.766725079 40.2293786,10.8004693 40.2292088,10.8004693 C40.2292088,10.8004693 35.9770389,0.766725079 35.8569892,0.549336197 C35.7379584,0.330651405 35.52265,0.162021132 35.2479111,0.162021132 C34.9276655,0.162021132 34.6860379,0.386051552 34.6013069,0.670341782 C34.5167458,0.955117977 32.1177897,13.5842457 32.1177897,13.5842457 C32.1094695,13.6250669 32.104715,13.6673459 32.104715,13.7109209 C32.104715,14.0585487 32.4011885,14.3400851 32.7642242,14.3400851 C33.0849792,14.3400851 33.3534355,14.1209144 33.4115076,13.8311165 L35.4888595,3.02743986 C35.4888595,3.02743986 39.4973642,12.4751088 39.6152065,12.6999492 C39.732879,12.9246276 39.9503947,13.0982795 40.2293786,13.0982795 C40.5078532,13.0982795 40.7255387,12.9246276 40.8428716,12.6999492 C40.9607138,12.4751088 44.9692186,3.02743986 44.9692186,3.02743986 L47.1289242,14.2613586 L48.4688281,14.2613586 C48.4688281,14.2613586 45.9416719,0.955117977 45.8571108,0.670341782 C45.7720402,0.386051552 45.5307522,0.162021132 45.2103367,0.162021132" id="Fill-9" fill="#FEFEFE"></path>
                            <g id="Group-13" transform="translate(65.3736, 0.042)" fill="#FEFEFE">
                                <path d="M4.04407816,7.59986347 L6.25285647,2.41670993 L8.4641818,7.59986347 L4.04407816,7.59986347 Z M6.25285647,0.120033197 C5.97472156,0.119709675 5.76026223,0.292227677 5.63936354,0.517554007 C5.51931385,0.742232382 0.136605331,13.4240064 0.136605331,13.4240064 C0.103833636,13.4993312 0.0858346738,13.5822694 0.0858346738,13.6689334 C0.0858346738,14.0165612 0.381119536,14.2982596 0.745174017,14.2982596 C1.02279952,14.2982596 1.26120087,14.1327072 1.35781794,13.8991194 L3.44807478,8.99555841 L9.05950597,8.99555841 L11.2881511,14.2193711 L12.7115973,14.2193711 C12.7115973,14.2193711 6.98368225,0.742232382 6.86600979,0.517554007 C6.74799773,0.292227677 6.53133098,0.119709675 6.25285647,0.120033197 L6.25285647,0.120033197 Z" id="Fill-11"></path>
                            </g>
                            <g id="Group-16" transform="translate(90.674, 0.2039)">
                                <mask id="mask-4" fill="white">
                                    <use xlink:href="#path-3"></use>
                                </mask>
                                <g id="Clip-15"></g>
                                <path d="M9.87603059,0.731006563 C9.87603059,0.345311386 9.54661562,0.0336450602 9.14384639,0.0336450602 L0.870946011,0.0336450602 C0.468006979,0.0336450602 0.141308834,0.345311386 0.141308834,0.731006563 C0.141308834,1.11540583 0.468006979,1.42739613 0.870946011,1.42739613 L4.33931208,1.42739613 L4.33931208,14.0574958 L5.67802734,14.0574958 L5.67802734,1.42739613 L9.14384639,1.42739613 C9.54661562,1.42739613 9.87603059,1.11540583 9.87603059,0.731006563" id="Fill-14" fill="#FEFEFE" mask="url(#mask-4)"></path>
                            </g>
                            <path d="M43.9606145,19.2293911 C43.2286001,19.2293911 42.7755696,19.7213509 42.7755696,20.3247589 L42.7755696,33.3269467 L45.1444707,33.3269467 L45.1444707,20.3247589 C45.1444707,19.7213509 44.6933081,19.2293911 43.9606145,19.2293911" id="Fill-17" fill="#FEFEFE"></path>
                            <path d="M17.0875356,27.7562675 L17.0887242,20.3282741 C17.0887242,19.7248661 16.6236378,19.2333922 15.9045283,19.2333922 C15.1752307,19.2333922 14.7179552,19.7248661 14.7179552,20.3282741 L14.7179552,27.6892042 C14.7179552,30.840533 17.0457644,33.4022229 20.7510036,33.4022229 C24.4494507,33.4022229 26.7826936,30.840533 26.7826936,27.6892042 L26.784901,19.3051532 L24.4110756,19.3051532 L24.4110756,27.7562675 C24.4110756,29.6158982 23.1146409,31.2791985 20.7510036,31.2791985 C18.3848193,31.2791985 17.0875356,29.6158982 17.0875356,27.7562675" id="Fill-19" fill="#FEFEFE"></path>
                            <path d="M74.4657651,21.5155867 C75.2417581,21.5155867 75.7187306,21.0398258 75.7187306,20.4103376 C75.7187306,19.7800394 75.2434561,19.3041165 74.4657651,19.3041165 L67.2123531,19.3041165 C66.5375618,19.3041165 66.0633061,19.7602768 66.0633061,20.3980264 L66.0633061,32.238431 C66.0633061,32.85658 66.5467311,33.3278052 67.2123531,33.3278052 L75.6407917,33.3278052 L75.6407917,31.1233006 L68.4288113,31.1233006 L68.4288113,27.0528476 L73.8675543,27.0528476 C74.6922803,27.0528476 75.1480276,26.5851862 75.1480276,25.9505143 C75.1480276,25.3163284 74.6965254,24.8483429 73.8675543,24.8483429 L68.4288113,24.8483429 L68.4288113,21.5155867 L74.4657651,21.5155867 Z" id="Fill-21" fill="#FEFEFE"></path>
                            <path d="M6.79829294,31.1640407 L3.09220473,31.1640407 L3.09220473,26.9708003 L6.79829294,26.9716103 C8.5015721,26.9716103 9.31356302,27.9153567 9.31356302,29.0672585 C9.31356302,30.2201324 8.45080144,31.1640407 6.79829294,31.1640407 L6.79829294,31.1640407 Z M3.09220473,21.4963911 L6.64615077,21.4963911 C7.98180961,21.4963911 8.63062126,22.2566042 8.63062126,23.2014845 C8.63062126,24.1392373 7.91847364,24.9077118 6.64615077,24.9077118 L3.09220473,24.9077118 L3.09220473,21.4963911 Z M9.54585151,25.7359602 C9.93860245,25.4970268 11.0288981,24.6789837 11.0288981,22.8614701 C11.0288981,20.7115556 9.41663255,19.3045215 6.94635988,19.3045215 L1.8682753,19.3045215 C1.18278652,19.3045215 0.72330358,19.7511244 0.72330358,20.3971355 L0.72330358,33.3269143 L7.24368236,33.3269143 C9.88545457,33.3269143 11.7111606,31.4923919 11.7111606,29.1454991 C11.7111606,26.645365 9.96407268,25.9206274 9.54585151,25.7359602 L9.54585151,25.7359602 Z" id="Fill-23" fill="#FEFEFE"></path>
                            <path d="M51.0079553,19.2293911 C50.2913929,19.2293911 49.8283441,19.7158433 49.8283441,20.3135817 L49.8283441,32.3104674 C49.8283441,32.9150094 50.3852931,33.3993557 51.018483,33.3993557 C51.6377492,33.3993557 52.1941888,32.9150094 52.1941888,32.3104674 L52.1941888,23.6544374 C52.1941888,23.6544374 57.9586112,30.6875023 59.49107,32.545513 C59.8731234,33.0083149 60.1431079,33.3993557 60.826559,33.3993557 C61.5137458,33.3993557 61.974757,32.9247287 61.974757,32.3096575 L61.974757,19.302934 L59.6097613,19.302934 L59.6097613,29.0107569 C59.6097613,29.0107569 53.1819243,21.1450699 52.2850326,20.0556956 C51.8771693,19.5564464 51.5528484,19.2293911 51.0079553,19.2293911" id="Fill-25" fill="#FEFEFE"></path>
                            <path d="M29.5398289,31.3219149 C29.8412266,31.6961089 31.2264675,33.4115696 34.2842535,33.4115696 C37.2787035,33.4115696 39.3209065,31.7651161 39.3209065,29.4711937 C39.3209065,27.9638885 38.6975651,26.7471911 36.3580396,25.6732058 C35.7321511,25.3832459 33.9694415,24.57719 33.9694415,24.57719 C33.0306088,24.1441941 32.6190099,23.6298799 32.6190099,22.9367301 C32.6190099,22.1987094 33.2555958,21.4067465 34.8009596,21.4067465 C35.6808711,21.4067465 36.3626242,21.6766197 36.7271881,21.8345587 C36.9058193,21.9123133 37.3293043,22.1060519 37.7268097,22.1060519 C38.2465722,22.1060519 38.8109925,21.7534024 38.8109925,21.0369262 C38.8109925,20.4370819 38.3599996,20.1113226 37.9670789,19.9339449 C37.3335494,19.6485208 36.3471723,19.2367454 34.6914376,19.2367454 C32.0742866,19.2367454 30.1332853,20.8195373 30.1332853,23.0052513 C30.1332853,25.0165034 31.5448454,26.0132201 33.2595013,26.7974076 C33.5843316,26.9487051 34.846806,27.5308926 35.1935407,27.6907755 C36.2714408,28.1887288 36.8385779,28.6635178 36.8385779,29.5283757 C36.8385779,30.4667764 35.9258947,31.2459422 34.5372578,31.2459422 C32.5492215,31.2459422 31.4905089,30.0017068 31.2960862,29.7920933 L29.5398289,31.3219149 Z" id="Fill-27" fill="#FEFEFE"></path>
                            <path d="M78.0554883,31.3219149 C78.3579048,31.6961089 79.7511264,33.4115696 82.8082332,33.4115696 C85.7984381,33.4115696 87.8372451,31.7651161 87.8372451,29.4711937 C87.8372451,27.9638885 87.2254502,26.7471911 84.873699,25.6732058 C84.250867,25.3832459 82.4888365,24.57719 82.4888365,24.57719 C81.547287,24.1441941 81.1358579,23.6298799 81.1358579,22.9367301 C81.1358579,22.1987094 81.7712552,21.4067465 83.3249392,21.4067465 C84.2017943,21.4067465 84.878793,21.6766197 85.2465831,21.8345587 C85.4265728,21.9123133 85.8488692,22.1060519 86.2518082,22.1060519 C86.7710613,22.1060519 87.338538,21.7534024 87.338538,21.0369262 C87.338538,20.4370819 86.8878847,20.1113226 86.491568,19.9339449 C85.8534538,19.6485208 84.8638505,19.2367454 83.2166058,19.2367454 C80.6031905,19.2367454 78.6540387,20.8195373 78.6540387,23.0052513 C78.6540387,25.0165034 80.0695043,26.0132201 81.7758398,26.7974076 C82.1049152,26.9487051 83.3714648,27.5308926 83.7215956,27.6907755 C84.788119,28.1887288 85.3586521,28.6635178 85.3586521,29.5283757 C85.3586521,30.4667764 84.4412145,31.2459422 83.0612374,31.2459422 C81.0648808,31.2459422 80.014149,30.0017068 79.8210846,29.7920933 L78.0554883,31.3219149 Z" id="Fill-29" fill="#FEFEFE"></path>
                            <path d="M90.0838722,31.3219149 C90.3862887,31.6961089 91.7623603,33.4115696 94.8198067,33.4115696 C97.8112002,33.4115696 99.8651195,31.7651161 99.8651195,29.4711937 C99.8651195,27.9638885 99.2375331,26.7471911 96.902762,25.6732058 C96.2726286,25.3832459 94.5017684,24.57719 94.5017684,24.57719 C93.5753312,24.1441941 93.1635625,23.6298799 93.1635625,22.9367301 C93.1635625,22.1987094 93.7996391,21.4067465 95.3373617,21.4067465 C96.2210089,21.4067465 96.9073467,21.6766197 97.2729294,21.8345587 C97.4466363,21.9123133 97.8609521,22.1060519 98.2632119,22.1060519 C98.7828046,22.1060519 99.3516397,21.7534024 99.3516397,21.0369262 C99.3516397,20.4370819 98.8992884,20.1113226 98.5036509,19.9339449 C97.8655367,19.6485208 96.8922343,19.2367454 95.2280095,19.2367454 C92.615613,19.2367454 90.6798755,20.8195373 90.6798755,23.0052513 C90.6798755,25.0165034 92.0807382,26.0132201 93.8042237,26.7974076 C94.1263372,26.9487051 95.3835477,27.5308926 95.7336785,27.6907755 C96.8165029,28.1887288 97.3807533,28.6635178 97.3807533,29.5283757 C97.3807533,30.4667764 96.4702775,31.2459422 95.0741693,31.2459422 C93.0922459,31.2459422 92.0260621,30.0017068 91.8333373,29.7920933 L90.0838722,31.3219149 Z" id="Fill-31" fill="#FEFEFE"></path>
                        </g>
                    </g>
                </g>
            </g>
            <rect id="Rectangle" fill="#000000" mask="url(#mask-2)" x="714" y="83" width="173" height="43"></rect>
        </g>
        <g id="Modal" transform="translate(220, 228)">
            <rect id="BOX" fill="#FFFFFF" x="0" y="114" width="1160" height="991"></rect>
            <g id="Questions" transform="translate(80, 535)">
                <g id="Question-6" transform="translate(0, 450)">
                    <rect id="Box" fill="#F7F7F7" x="0" y="0" width="1000" height="80"></rect>
                    <text id="Do-they-need-access" font-family="Montserrat-Bold, Montserrat" font-size="18" font-weight="bold" line-spacing="26" fill="#000000">
                        <tspan x="40" y="44">Do they need access to Business Internet?</tspan>
                    </text>
                    <g id="TOGGLE" transform="translate(510, 25)">
                        <g id="Switch-OFF" transform="translate(320, -0)">
                            <g transform="translate(37, 0)">
                                <path d="M30.4774946,0.999908472 C32.200735,1.00014727 33.642875,1.00754054 35.086166,1.09053584 C36.5946614,1.17640844 38.0646113,1.35677278 39.5278018,1.76623701 C42.5443681,2.60941728 45.1795024,4.36950438 47.0839879,6.86674581 C48.976035,9.34649541 50,12.3821965 50,15.4991522 C50,18.619883 48.9760638,21.6537713 47.0839581,24.1335977 C45.1795802,26.6297632 42.5444312,28.3908695 39.5275099,29.234149 C38.0644057,29.6435892 36.5942403,29.8229659 35.0855905,29.9098015 C33.7133142,29.9887133 32.3416612,29.9984046 30.969701,29.9992882 L22.603084,29.9999823 L21.1071246,30.0001522 C19.0656145,29.9998979 17.4908181,30.0003997 15.9144996,29.9098067 C14.4067531,29.8229681 12.9365912,29.6435883 11.4731982,29.2340674 C8.45656878,28.3908695 5.82141983,26.6297632 3.91701207,24.1335586 C2.0249506,21.6537901 1,18.6199441 1,15.5001522 C1,12.382229 2.0249506,9.34651427 3.91715145,6.86656309 C5.82149761,4.36950438 8.45663193,2.60941728 11.4734901,1.76615535 C12.9363855,1.35677368 14.4063317,1.17640623 15.9143766,1.09050481 C17.2875282,1.01158805 18.6594249,1.00115829 20.0312064,0.999983829 Z" id="Track" stroke="#E5E5E5" stroke-width="2"></path>
                                <g id="Knob">
                                    <use fill="black" fill-opacity="1" filter="url(#filter-6)" xlink:href="#path-5"></use>
                                    <circle stroke-opacity="0.04" stroke="#000000" stroke-width="0.5" fill="#FFFFFF" fill-rule="evenodd" cx="15.5" cy="15.5" r="13.75"></circle>
                                </g>
                            </g>
                            <text id="NO" font-family="Montserrat-Bold, Montserrat" font-size="14" font-weight="bold" line-spacing="20" letter-spacing="1.5" fill="#000000">
                                <tspan x="0.872" y="21">NO</tspan>
                            </text>
                            <text id="YES" font-family="Montserrat-Bold, Montserrat" font-size="14" font-weight="bold" line-spacing="22" letter-spacing="1.5" fill="#B2B2B2">
                                <tspan x="96" y="20">YES</tspan>
                            </text>
                        </g>
                    </g>
                </g>
                <g id="Question-5" transform="translate(0, 360)">
                    <rect id="Box" fill="#F7F7F7" x="0" y="0" width="1000" height="80"></rect>
                    <g id="TOGGLE" transform="translate(510, 25)">
                        <g id="Switch-OFF" transform="translate(320, -0)">
                            <g transform="translate(37, 0)">
                                <path d="M30.4774946,0.999908472 C32.200735,1.00014727 33.642875,1.00754054 35.086166,1.09053584 C36.5946614,1.17640844 38.0646113,1.35677278 39.5278018,1.76623701 C42.5443681,2.60941728 45.1795024,4.36950438 47.0839879,6.86674581 C48.976035,9.34649541 50,12.3821965 50,15.4991522 C50,18.619883 48.9760638,21.6537713 47.0839581,24.1335977 C45.1795802,26.6297632 42.5444312,28.3908695 39.5275099,29.234149 C38.0644057,29.6435892 36.5942403,29.8229659 35.0855905,29.9098015 C33.7133142,29.9887133 32.3416612,29.9984046 30.969701,29.9992882 L22.603084,29.9999823 L21.1071246,30.0001522 C19.0656145,29.9998979 17.4908181,30.0003997 15.9144996,29.9098067 C14.4067531,29.8229681 12.9365912,29.6435883 11.4731982,29.2340674 C8.45656878,28.3908695 5.82141983,26.6297632 3.91701207,24.1335586 C2.0249506,21.6537901 1,18.6199441 1,15.5001522 C1,12.382229 2.0249506,9.34651427 3.91715145,6.86656309 C5.82149761,4.36950438 8.45663193,2.60941728 11.4734901,1.76615535 C12.9363855,1.35677368 14.4063317,1.17640623 15.9143766,1.09050481 C17.2875282,1.01158805 18.6594249,1.00115829 20.0312064,0.999983829 Z" id="Track" stroke="#E5E5E5" stroke-width="2"></path>
                                <g id="Knob">
                                    <use fill="black" fill-opacity="1" filter="url(#filter-8)" xlink:href="#path-7"></use>
                                    <circle stroke-opacity="0.04" stroke="#000000" stroke-width="0.5" fill="#FFFFFF" fill-rule="evenodd" cx="15.5" cy="15.5" r="13.75"></circle>
                                </g>
                            </g>
                            <text id="NO" font-family="Montserrat-Bold, Montserrat" font-size="14" font-weight="bold" line-spacing="20" letter-spacing="1.5" fill="#000000">
                                <tspan x="0.872" y="21">NO</tspan>
                            </text>
                            <text id="YES" font-family="Montserrat-Bold, Montserrat" font-size="14" font-weight="bold" line-spacing="22" letter-spacing="1.5" fill="#B2B2B2">
                                <tspan x="96" y="20">YES</tspan>
                            </text>
                        </g>
                    </g>
                    <text id="Do-they-need-access" font-family="Montserrat-Bold, Montserrat" font-size="18" font-weight="bold" line-spacing="26" fill="#000000">
                        <tspan x="40" y="44">Do they need access to PRI Trunks?</tspan>
                    </text>
                </g>
                <g id="Question-4" transform="translate(0, 270)">
                    <rect id="Box" fill="#F7F7F7" x="0" y="0" width="1000" height="80"></rect>
                    <g id="TOGGLE" transform="translate(510, 25)">
                        <g id="Switch-OFF" transform="translate(320, -0)">
                            <g transform="translate(37, 0)">
                                <path d="M30.4774946,0.999908472 C32.200735,1.00014727 33.642875,1.00754054 35.086166,1.09053584 C36.5946614,1.17640844 38.0646113,1.35677278 39.5278018,1.76623701 C42.5443681,2.60941728 45.1795024,4.36950438 47.0839879,6.86674581 C48.976035,9.34649541 50,12.3821965 50,15.4991522 C50,18.619883 48.9760638,21.6537713 47.0839581,24.1335977 C45.1795802,26.6297632 42.5444312,28.3908695 39.5275099,29.234149 C38.0644057,29.6435892 36.5942403,29.8229659 35.0855905,29.9098015 C33.7133142,29.9887133 32.3416612,29.9984046 30.969701,29.9992882 L22.603084,29.9999823 L21.1071246,30.0001522 C19.0656145,29.9998979 17.4908181,30.0003997 15.9144996,29.9098067 C14.4067531,29.8229681 12.9365912,29.6435883 11.4731982,29.2340674 C8.45656878,28.3908695 5.82141983,26.6297632 3.91701207,24.1335586 C2.0249506,21.6537901 1,18.6199441 1,15.5001522 C1,12.382229 2.0249506,9.34651427 3.91715145,6.86656309 C5.82149761,4.36950438 8.45663193,2.60941728 11.4734901,1.76615535 C12.9363855,1.35677368 14.4063317,1.17640623 15.9143766,1.09050481 C17.2875282,1.01158805 18.6594249,1.00115829 20.0312064,0.999983829 Z" id="Track" stroke="#E5E5E5" stroke-width="2"></path>
                                <g id="Knob">
                                    <use fill="black" fill-opacity="1" filter="url(#filter-10)" xlink:href="#path-9"></use>
                                    <circle stroke-opacity="0.04" stroke="#000000" stroke-width="0.5" fill="#FFFFFF" fill-rule="evenodd" cx="15.5" cy="15.5" r="13.75"></circle>
                                </g>
                            </g>
                            <text id="NO" font-family="Montserrat-Bold, Montserrat" font-size="14" font-weight="bold" line-spacing="20" letter-spacing="1.5" fill="#000000">
                                <tspan x="0.872" y="21">NO</tspan>
                            </text>
                            <text id="YES" font-family="Montserrat-Bold, Montserrat" font-size="14" font-weight="bold" line-spacing="22" letter-spacing="1.5" fill="#B2B2B2">
                                <tspan x="96" y="20">YES</tspan>
                            </text>
                        </g>
                    </g>
                    <text id="Do-they-need-access" font-family="Montserrat-Bold, Montserrat" font-size="18" font-weight="bold" line-spacing="26" fill="#000000">
                        <tspan x="40" y="34">Do they need access to ActiveCore Managed </tspan>
                        <tspan x="40" y="60">Router and Firewall?</tspan>
                    </text>
                </g>
                <g id="Question-3" transform="translate(0, 180)">
                    <rect id="Box" fill="#F7F7F7" x="0" y="0" width="1000" height="80"></rect>
                    <text id="Do-they-need-access" font-family="Montserrat-Bold, Montserrat" font-size="18" font-weight="bold" line-spacing="26" fill="#000000">
                        <tspan x="40" y="44">Do they need access to ActiveCore SD-WAN?</tspan>
                    </text>
                    <g id="TOGGLE" transform="translate(510, 25)">
                        <g id="Switch-OFF" transform="translate(320, -0)">
                            <g transform="translate(37, 0)">
                                <path d="M30.4774946,0.999908472 C32.200735,1.00014727 33.642875,1.00754054 35.086166,1.09053584 C36.5946614,1.17640844 38.0646113,1.35677278 39.5278018,1.76623701 C42.5443681,2.60941728 45.1795024,4.36950438 47.0839879,6.86674581 C48.976035,9.34649541 50,12.3821965 50,15.4991522 C50,18.619883 48.9760638,21.6537713 47.0839581,24.1335977 C45.1795802,26.6297632 42.5444312,28.3908695 39.5275099,29.234149 C38.0644057,29.6435892 36.5942403,29.8229659 35.0855905,29.9098015 C33.7133142,29.9887133 32.3416612,29.9984046 30.969701,29.9992882 L22.603084,29.9999823 L21.1071246,30.0001522 C19.0656145,29.9998979 17.4908181,30.0003997 15.9144996,29.9098067 C14.4067531,29.8229681 12.9365912,29.6435883 11.4731982,29.2340674 C8.45656878,28.3908695 5.82141983,26.6297632 3.91701207,24.1335586 C2.0249506,21.6537901 1,18.6199441 1,15.5001522 C1,12.382229 2.0249506,9.34651427 3.91715145,6.86656309 C5.82149761,4.36950438 8.45663193,2.60941728 11.4734901,1.76615535 C12.9363855,1.35677368 14.4063317,1.17640623 15.9143766,1.09050481 C17.2875282,1.01158805 18.6594249,1.00115829 20.0312064,0.999983829 Z" id="Track" stroke="#E5E5E5" stroke-width="2"></path>
                                <g id="Knob">
                                    <use fill="black" fill-opacity="1" filter="url(#filter-12)" xlink:href="#path-11"></use>
                                    <circle stroke-opacity="0.04" stroke="#000000" stroke-width="0.5" fill="#FFFFFF" fill-rule="evenodd" cx="15.5" cy="15.5" r="13.75"></circle>
                                </g>
                            </g>
                            <text id="NO" font-family="Montserrat-Bold, Montserrat" font-size="14" font-weight="bold" line-spacing="20" letter-spacing="1.5" fill="#000000">
                                <tspan x="0.872" y="21">NO</tspan>
                            </text>
                            <text id="YES" font-family="Montserrat-Bold, Montserrat" font-size="14" font-weight="bold" line-spacing="22" letter-spacing="1.5" fill="#B2B2B2">
                                <tspan x="96" y="20">YES</tspan>
                            </text>
                        </g>
                    </g>
                </g>
                <g id="Question-2" transform="translate(0, 90)">
                    <rect id="Box" fill="#F7F7F7" x="0" y="0" width="1000" height="80"></rect>
                    <text id="Do-they-need-access" font-family="Montserrat-Bold, Montserrat" font-size="18" font-weight="bold" line-spacing="26" fill="#000000">
                        <tspan x="40" y="44">Do they need access to Business VoiceEdge?</tspan>
                    </text>
                    <g id="TOGGLE" transform="translate(510, 25)">
                        <g id="Switch-OFF" transform="translate(320, -0)">
                            <g id="Switch-ON" transform="translate(0, 0)">
                                <path d="M52.857,0.0921521998 C54.597,-0.00784780024 56.335,-2.27373675e-13 58.075,-2.27373675e-13 C58.083,-2.27373675e-13 61.022,-2.27373675e-13 66.892,-2.27373675e-13 C68.666,-2.27373675e-13 70.404,-0.00784780024 72.143,0.0921521998 C73.724,0.1821522 75.264,0.3741522 76.797,0.8031522 C80.024,1.7051522 82.842,3.5891522 84.879,6.2601522 C86.904,8.9141522 88,12.1631522 88,15.4991522 C88,18.8391522 86.904,22.0861522 84.879,24.7401522 C82.842,27.4101522 80.024,29.2951522 76.797,30.1971522 C75.264,30.6261522 73.724,30.8171522 72.143,30.9081522 C70.404,31.0081522 68.666,30.9991522 66.926,30.9991522 C66.918,30.9991522 63.9783333,30.9994855 58.107,31.0001522 C56.335,30.9991522 54.597,31.0081522 52.857,30.9081522 C51.277,30.8171522 49.737,30.6261522 48.204,30.1971522 C44.977,29.2951522 42.159,27.4101522 40.122,24.7401522 C38.097,22.0861522 37,18.8391522 37,15.5001522 C37,12.1631522 38.097,8.9141522 40.122,6.2601522 C42.159,3.5891522 44.977,1.7051522 48.204,0.8031522 C49.737,0.3741522 51.277,0.1821522 52.857,0.0921521998 Z" id="Track" fill="#1471DA"></path>
                                <g id="Knob">
                                    <use fill="black" fill-opacity="1" filter="url(#filter-14)" xlink:href="#path-13"></use>
                                    <circle stroke-opacity="0.04" stroke="#000000" stroke-width="0.5" fill="#FFFFFF" fill-rule="evenodd" cx="72.5" cy="15.5" r="13.75"></circle>
                                </g>
                                <text id="NO" font-family="Montserrat-Bold, Montserrat" font-size="14" font-weight="bold" line-spacing="20" letter-spacing="1.5" fill="#B2B2B2">
                                    <tspan x="0.872" y="21">NO</tspan>
                                </text>
                                <text id="YES" font-family="Montserrat-Bold, Montserrat" font-size="14" font-weight="bold" line-spacing="22" letter-spacing="1.5" fill="#000000">
                                    <tspan x="96" y="20">YES</tspan>
                                </text>
                            </g>
                        </g>
                    </g>
                </g>
                <g id="Question-1">
                    <rect id="Box" fill="#F7F7F7" x="0" y="0" width="1000" height="80"></rect>
                    <text id="Do-they-need-access" font-family="Montserrat-Bold, Montserrat" font-size="18" font-weight="bold" line-spacing="26" fill="#000000">
                        <tspan x="40" y="44">Do they need access to billing?</tspan>
                    </text>
                    <g id="TOGGLE" transform="translate(510, 25)">
                        <g id="Switch-OFF" transform="translate(320, -0)">
                            <g id="Switch-ON" transform="translate(0, 0)">
                                <path d="M52.857,0.0921521998 C54.597,-0.00784780024 56.335,-2.27373675e-13 58.075,-2.27373675e-13 C58.083,-2.27373675e-13 61.022,-2.27373675e-13 66.892,-2.27373675e-13 C68.666,-2.27373675e-13 70.404,-0.00784780024 72.143,0.0921521998 C73.724,0.1821522 75.264,0.3741522 76.797,0.8031522 C80.024,1.7051522 82.842,3.5891522 84.879,6.2601522 C86.904,8.9141522 88,12.1631522 88,15.4991522 C88,18.8391522 86.904,22.0861522 84.879,24.7401522 C82.842,27.4101522 80.024,29.2951522 76.797,30.1971522 C75.264,30.6261522 73.724,30.8171522 72.143,30.9081522 C70.404,31.0081522 68.666,30.9991522 66.926,30.9991522 C66.918,30.9991522 63.9783333,30.9994855 58.107,31.0001522 C56.335,30.9991522 54.597,31.0081522 52.857,30.9081522 C51.277,30.8171522 49.737,30.6261522 48.204,30.1971522 C44.977,29.2951522 42.159,27.4101522 40.122,24.7401522 C38.097,22.0861522 37,18.8391522 37,15.5001522 C37,12.1631522 38.097,8.9141522 40.122,6.2601522 C42.159,3.5891522 44.977,1.7051522 48.204,0.8031522 C49.737,0.3741522 51.277,0.1821522 52.857,0.0921521998 Z" id="Track" fill="#1471DA"></path>
                                <g id="Knob">
                                    <use fill="black" fill-opacity="1" filter="url(#filter-16)" xlink:href="#path-15"></use>
                                    <circle stroke-opacity="0.04" stroke="#000000" stroke-width="0.5" fill="#FFFFFF" fill-rule="evenodd" cx="72.5" cy="15.5" r="13.75"></circle>
                                </g>
                                <text id="NO" font-family="Montserrat-Bold, Montserrat" font-size="14" font-weight="bold" line-spacing="20" letter-spacing="1.5" fill="#B2B2B2">
                                    <tspan x="0.872" y="21">NO</tspan>
                                </text>
                                <text id="YES" font-family="Montserrat-Bold, Montserrat" font-size="14" font-weight="bold" line-spacing="22" letter-spacing="1.5" fill="#000000">
                                    <tspan x="96" y="20">YES</tspan>
                                </text>
                            </g>
                        </g>
                    </g>
                </g>
            </g>
            <g id="Form-1" transform="translate(80, 154)">
                <rect id="Box" fill="#F7F7F7" x="0" y="0" width="1000" height="361"></rect>
                <g id="Mobile" transform="translate(510, 235)">
                    <g id="Dropdown/Default/Light" transform="translate(0, 26)">
                        <rect id="Rectangle-6" stroke="#CCCCCC" fill="#FFFFFF" x="0.5" y="0.5" width="449" height="49"></rect>
                        <g id="Group-5" transform="translate(16, 11)"></g>
                    </g>
                    <text id="Mobile-Number" font-family="Lato-Bold, Lato" font-size="14" font-weight="bold" line-spacing="22" letter-spacing="0.5" fill="#000000">
                        <tspan x="0" y="14">Mobile Number</tspan>
                    </text>
                    <text id="Optional" font-family="Lato-Italic, Lato" font-size="14" font-style="italic" font-weight="normal" line-spacing="22" letter-spacing="0.5" fill="#A9A9A9">
                        <tspan x="113" y="14">Optional</tspan>
                    </text>
                </g>
                <g id="TItle" transform="translate(40, 235)">
                    <g id="Dropdown/Default/Light" transform="translate(0, 26)">
                        <rect id="r" stroke="#CCCCCC" fill="#FFFFFF" x="0.5" y="0.5" width="449" height="49"></rect>
                        <g id="Group-5" transform="translate(16, 11)"></g>
                    </g>
                    <text id="Job-Title" font-family="Lato-Bold, Lato" font-size="14" font-weight="bold" line-spacing="22" letter-spacing="0.5" fill="#000000">
                        <tspan x="0" y="14">Job Title</tspan>
                    </text>
                    <text id="Optional" font-family="Lato-Italic, Lato" font-size="14" font-style="italic" font-weight="normal" line-spacing="22" letter-spacing="0.5" fill="#A9A9A9">
                        <tspan x="67" y="14">Optional</tspan>
                    </text>
                </g>
                <g id="Last" transform="translate(40, 35)">
                    <g id="Dropdown/Default/Light" transform="translate(0, 26)">
                        <rect id="Rectangle-6" stroke="#CCCCCC" fill="#FFFFFF" x="0.5" y="0.5" width="449" height="49"></rect>
                        <g id="Button/Secondary/Large/Default/Black" transform="translate(470, 0)">
                            <rect id="Rectangle" stroke="#9B9B9B" stroke-width="2" x="1" y="1" width="176" height="48"></rect>
                            <text id="SECONDARY-LARGE" font-family="Montserrat-Bold, Montserrat" font-size="14" font-weight="bold" line-spacing="22" letter-spacing="1.5" fill="#9B9B9B">
                                <tspan x="30.22" y="28">CHECK EMAIL</tspan>
                            </text>
                        </g>
                        <g id="Group-5" transform="translate(16, 11)" fill="#3B3B3B" font-family="Lato-Regular, Lato" font-size="16" font-weight="normal" letter-spacing="0.5" line-spacing="24">
                            <text id="mwilson@xyzcompany.c">
                                <tspan x="0" y="16">mwilson@xyzcompany.com</tspan>
                            </text>
                        </g>
                    </g>
                    <text id="Email-Address" font-family="Lato-Bold, Lato" font-size="14" font-weight="bold" line-spacing="22" letter-spacing="0.5" fill="#000000">
                        <tspan x="0" y="14">Email Address</tspan>
                    </text>
                </g>
                <g id="First" transform="translate(40, 135)">
                    <g id="Dropdown/Default/Light" transform="translate(0, 26)">
                        <rect id="r" stroke="#CCCCCC" fill="#FFFFFF" x="0.5" y="0.5" width="449" height="49"></rect>
                        <g id="Group-5" transform="translate(16, 11)" fill="#3B3B3B" font-family="Lato-Regular, Lato" font-size="16" font-weight="normal" letter-spacing="0.5" line-spacing="24">
                            <text id="Mary">
                                <tspan x="0" y="16">Mary</tspan>
                            </text>
                        </g>
                    </g>
                    <text id="First-Name" font-family="Lato-Bold, Lato" font-size="14" font-weight="bold" line-spacing="22" letter-spacing="0.5" fill="#000000">
                        <tspan x="0" y="14">First Name</tspan>
                    </text>
                </g>
                <g id="Email" transform="translate(510, 135)">
                    <g id="Dropdown/Default/Light" transform="translate(0, 26)">
                        <rect id="Rectangle-6" stroke="#CCCCCC" fill="#FFFFFF" x="0.5" y="0.5" width="449" height="49"></rect>
                        <g id="Group-5" transform="translate(16, 11)" fill="#3B3B3B" font-family="Lato-Regular, Lato" font-size="16" font-weight="normal" letter-spacing="0.5" line-spacing="24">
                            <text id="Wilson">
                                <tspan x="0" y="16">Wilson</tspan>
                            </text>
                        </g>
                    </g>
                    <text id="Last-Name" font-family="Lato-Bold, Lato" font-size="14" font-weight="bold" line-spacing="22" letter-spacing="0.5" fill="#000000">
                        <tspan x="0" y="14">Last Name</tspan>
                    </text>
                </g>
                <g id="30x30/Verification-Check" transform="translate(440, 72)" fill="#1471DA" fill-rule="nonzero">
                    <path d="M15,0 C16.8630731,0 18.6807319,0.340250925 20.3843482,0.9956434 C20.8998049,1.19394304 21.1569116,1.77255695 20.958612,2.28801373 C20.7603123,2.80347052 20.1816984,3.06057718 19.6662416,2.86227754 C18.190885,2.29469805 16.6165748,2 15,2 C7.82029825,2 2,7.82029825 2,15 C2,22.1797017 7.82029825,28 15,28 C22.1797017,28 28,22.1797017 28,15 C28,14.5883032 27.9808943,14.1790839 27.9429372,13.773178 C27.8915163,13.2232922 28.2956019,12.7358369 28.8454876,12.6844159 C29.3953734,12.632995 29.8828288,13.0370806 29.9342497,13.5869664 C29.9779932,14.0547515 30,14.5261088 30,15 C30,23.2842712 23.2842712,30 15,30 C6.71572875,30 0,23.2842712 0,15 C0,6.71572875 6.71572875,0 15,0 Z M28.2761428,1.65703197 C28.6571916,1.25725668 29.2901745,1.24207584 29.6899498,1.62312461 C30.0897251,2.00417337 30.104906,2.63715634 29.7238572,3.03693163 L15.0571904,18.4243871 C14.6679569,18.8327493 14.0181748,18.8384923 13.6217842,18.4370738 L9.53265393,14.2960755 C9.14459851,13.9030978 9.14858877,13.2699454 9.54156643,12.88189 C9.93454408,12.4938346 10.5676965,12.4978248 10.9557519,12.8908025 L14.3206407,16.2983728 Z" id="Combined-Shape"></path>
                </g>
            </g>
            <text id="Lorem-ipsum-management-is-art-of-getting-things-done-through-people." font-family="Lato-Regular, Lato" font-size="18" font-weight="normal" line-spacing="26" letter-spacing="0.5" fill="#000000">
                <tspan x="0" y="73">Lorem ipsum management is art of getting things done through people.</tspan>
            </text>
            <text id="Invite-a-New-User" font-family="Montserrat-Bold, Montserrat" font-size="36" font-weight="bold" line-spacing="44" fill="#000000">
                <tspan x="0" y="35">Invite a New User</tspan>
            </text>
        </g>
        <g id="CTA" transform="translate(1009, 1353)">
            <g id="Button/Primary/Large/Default/Blue" transform="translate(140, 0)">
                <rect id="Rectangle" fill="#1471DA" fill-rule="nonzero" x="0" y="0" width="151" height="50"></rect>
                <text id="PRIMARY-LARGE" font-family="Montserrat-Bold, Montserrat" font-size="14" font-weight="bold" line-spacing="22" letter-spacing="1.5" fill="#FFFFFF">
                    <tspan x="30.419" y="28">CONTINUE</tspan>
                </text>
            </g>
            <g id="Button/Secondary/Large/Default/Blue">
                <rect id="Rectangle" x="0" y="0" width="130" height="50"></rect>
                <text id="TERTIARY-LARGE" font-family="Montserrat-Bold, Montserrat" font-size="14" font-weight="bold" line-spacing="22" letter-spacing="1.5" fill="#2E68B9">
                    <tspan x="31.9284331" y="28">CANCEL</tspan>
                </text>
            </g>
        </g>
        <g id="Group-5" transform="translate(557, 105)">
            <g id="Group-8">
                <g id="Group-2" transform="translate(30, 0)" fill="#FFFFFF">
                    <g id="Group-7" transform="translate(0.5, 0)">
                        <g id="20x20/Voice" transform="translate(0.5, 0)">
                            <path d="M1.20627818,13.8677079 L1.29739704,13.9052059 L10,18.256 L18.702603,13.9052059 C19.0310987,13.7409581 19.4305462,13.8741073 19.5947941,14.202603 C19.7441103,14.5012354 19.6476439,14.8585058 19.3820668,15.0443978 L19.297397,15.0947941 L10.297397,19.5947941 C10.1413839,19.6728007 9.96235217,19.6858018 9.79866616,19.6337974 L9.70260296,19.5947941 L0.702602959,15.0947941 C0.374107258,14.9305462 0.240958068,14.5310987 0.405205918,14.202603 C0.554522146,13.9039705 0.898218308,13.7667814 1.20627818,13.8677079 Z M1.20627818,9.36770786 L1.29739704,9.40520592 L10,13.756 L18.702603,9.40520592 C19.0310987,9.24095807 19.4305462,9.37410726 19.5947941,9.70260296 C19.7441103,10.0012354 19.6476439,10.3585058 19.3820668,10.5443978 L19.297397,10.5947941 L10.297397,15.0947941 C10.1413839,15.1728007 9.96235217,15.1858018 9.79866616,15.1337974 L9.70260296,15.0947941 L0.702602959,10.5947941 C0.374107258,10.4305462 0.240958068,10.0310987 0.405205918,9.70260296 C0.554522146,9.4039705 0.898218308,9.26678145 1.20627818,9.36770786 Z M10.297397,0.405205918 L19.297397,4.90520592 C19.7875343,5.15027456 19.7875343,5.84972544 19.297397,6.09479408 L10.297397,10.5947941 C10.1101813,10.688402 9.88981874,10.688402 9.70260296,10.5947941 L0.702602959,6.09479408 C0.21246568,5.84972544 0.21246568,5.15027456 0.702602959,4.90520592 L9.70260296,0.405205918 C9.88981874,0.311598027 10.1101813,0.311598027 10.297397,0.405205918 Z M10,1.743 L2.486,5.5 L10,9.256 L17.513,5.5 L10,1.743 Z" id="Combined-Shape"></path>
                        </g>
                    </g>
                </g>
                <text id="BASIC-INFO" font-family="Montserrat-Bold, Montserrat" font-size="11" font-weight="bold" line-spacing="18" letter-spacing="1.5" fill="#000000">
                    <tspan x="0.3125" y="40">BASIC INFO</tspan>
                </text>
                <text id="BILLING" font-family="Montserrat-Bold, Montserrat" font-size="11" font-weight="bold" line-spacing="18" letter-spacing="1.5" fill="#757575">
                    <tspan x="148.606" y="40">BILLING</tspan>
                </text>
                <text id="BVE" font-family="Montserrat-Bold, Montserrat" font-size="11" font-weight="bold" line-spacing="18" letter-spacing="1.5" fill="#757575">
                    <tspan x="298.859" y="40">BVE</tspan>
                </text>
                <text id="REVIEW" font-family="Montserrat-Bold, Montserrat" font-size="11" font-weight="bold" line-spacing="18" letter-spacing="1.5" fill="#757575">
                    <tspan x="420.9655" y="40">REVIEW</tspan>
                </text>
                <g id="Group-6" transform="translate(58, 9)" fill="#CCCCCC">
                    <rect id="Rectangle-Copy-11" x="0" y="0" width="100" height="4" rx="2"></rect>
                    <rect id="Rectangle-Copy-12" x="136" y="0" width="100" height="4" rx="2"></rect>
                    <rect id="Rectangle-Copy-13" x="272" y="0" width="100" height="4" rx="2"></rect>
                </g>
            </g>
            <g id="20x20/Internet" transform="translate(31.558, 0.2219)" fill="#000000" fill-rule="nonzero">
                <path d="M17.2628444,18.9599378 L17.2628444,16.9271378 C17.2628444,14.3169123 15.1847152,12.1954933 12.6139556,12.1954933 L4.64951111,12.1954933 C2.07866571,12.1954933 0,14.3170019 0,16.9271378 L0,18.9599378 C0,19.3281276 0.298476833,19.6266044 0.666666667,19.6266044 C1.0348565,19.6266044 1.33333333,19.3281276 1.33333333,18.9599378 L1.33333333,16.9271378 C1.33333333,15.0473619 2.82120245,13.5288267 4.64951111,13.5288267 L12.6139556,13.5288267 C14.4421126,13.5288267 15.9295111,15.0472093 15.9295111,16.9271378 L15.9295111,18.9599378 C15.9295111,19.3281276 16.2279879,19.6266044 16.5961778,19.6266044 C16.9643676,19.6266044 17.2628444,19.3281276 17.2628444,18.9599378 Z M8.63185778,7.77156117e-16 C11.2021079,7.77156117e-16 13.2801244,2.12153288 13.2801244,4.73164444 C13.2801244,7.34226661 11.2022183,9.46391111 8.63185778,9.46391111 C6.06098775,9.46391111 3.98296889,7.34238057 3.98296889,4.73164444 C3.98296889,2.12141892 6.06109813,7.77156117e-16 8.63185778,7.77156117e-16 Z M8.63185778,1.33333333 C6.80370072,1.33333333 5.31630222,2.85171596 5.31630222,4.73164444 C5.31630222,6.61211436 6.80362261,8.13057778 8.63185778,8.13057778 C10.4595505,8.13057778 11.9467911,6.61203186 11.9467911,4.73164444 C11.9467911,2.85179844 10.4594724,1.33333333 8.63185778,1.33333333 Z" id="Combined-Shape"></path>
            </g>
            <g id="20x20/Internet-Copy-3" transform="translate(166, 0)" fill="#757575" fill-rule="nonzero">
                <path d="M11.0963455,11.9900083 L7.3089701,11.9900083 C6.910299,11.9900083 6.64451827,12.256453 6.64451827,12.6561199 C6.64451827,13.0557868 6.910299,13.3222315 7.3089701,13.3222315 L9.30232558,13.3222315 L9.30232558,14.3213988 C9.30232558,14.7210658 9.56810631,14.9875104 9.96677741,14.9875104 C10.3654485,14.9875104 10.6312292,14.7210658 10.6312292,14.3213988 L10.6312292,13.3222315 L11.0963455,13.3222315 C12.2923588,13.3222315 13.2890365,12.256453 13.2890365,10.990841 C13.2890365,9.72522898 12.2923588,8.65945046 11.0963455,8.65945046 L8.90365449,8.65945046 C8.43853821,8.65945046 8.03986711,8.19317236 8.03986711,7.6602831 C8.03986711,7.12739384 8.43853821,6.66111574 8.90365449,6.66111574 L12.2259136,6.66111574 C12.6245847,6.66111574 12.8903654,6.39467111 12.8903654,5.99500416 C12.8903654,5.59533722 12.6245847,5.32889259 12.2259136,5.32889259 L10.6312292,5.32889259 L10.6312292,4.32972523 C10.6312292,3.93005828 10.3654485,3.66361366 9.96677741,3.66361366 C9.56810631,3.66361366 9.30232558,3.93005828 9.30232558,4.32972523 L9.30232558,5.32889259 L8.8372093,5.32889259 C7.64119601,5.32889259 6.64451827,6.39467111 6.64451827,7.6602831 C6.64451827,8.92589509 7.64119601,9.99167361 8.8372093,9.99167361 L11.0299003,9.99167361 C11.4950166,9.99167361 11.8936877,10.4579517 11.8936877,10.990841 C11.8936877,11.5237302 11.5614618,11.9900083 11.0963455,11.9900083 Z M19.269103,0 L0.664451827,0 C0.265780731,0 0,0.266444629 0,0.666111574 C0,1.06577852 0.265780731,1.33222315 0.664451827,1.33222315 L2.65780731,1.33222315 L2.65780731,19.3172356 C2.65780731,19.5836803 2.79069767,19.7835137 3.05647841,19.9167361 C3.25581395,20.0499584 3.58803987,19.9833472 3.78737542,19.8501249 L6.71096346,17.5187344 L9.6345515,19.8501249 C9.90033223,20.0499584 10.2325581,20.0499584 10.4318937,19.8501249 L13.3554817,17.5187344 L16.2790698,19.8501249 C16.4119601,19.9167361 16.5448505,19.9833472 16.6777409,19.9833472 C16.744186,19.9833472 16.8770764,19.9833472 16.9435216,19.9167361 C17.1428571,19.7835137 17.3421927,19.5836803 17.3421927,19.3172356 L17.3421927,1.33222315 L19.3355482,1.33222315 C19.7342193,1.33222315 20,1.06577852 20,0.666111574 C20,0.266444629 19.6677741,0 19.269103,0 Z M15.9468439,17.9184013 L13.6877076,16.1199001 C13.4219269,15.9200666 13.089701,15.9200666 12.8903654,16.1199001 L9.96677741,18.4512906 L7.04318937,16.1199001 C6.910299,16.0532889 6.77740864,15.9866778 6.64451827,15.9866778 C6.51162791,15.9866778 6.37873754,16.0532889 6.24584718,16.1199001 L3.98671096,17.9184013 L3.98671096,1.33222315 L15.9468439,1.33222315 L15.9468439,17.9184013 Z" id="Shape"></path>
            </g>
            <g id="20x20/Internet-Copy-4" transform="translate(302, -0.0001)" fill="#757575" fill-rule="nonzero">
                <path d="M19.5820407,18.3223652 C19.588055,19.7919623 18.4753121,20.9945498 17.0954218,21.0001201 C17.0130502,21.0009289 16.930683,20.9971168 16.8419583,20.9877604 C13.9124598,20.6468308 11.099764,19.5743676 8.63396081,17.8599957 C6.33491027,16.294212 4.38615109,14.2054407 2.92843183,11.7470451 C1.32204034,9.08781591 0.322654629,6.06339094 0.010228359,2.90672007 C-0.113388231,1.443795 0.897515546,0.144975586 2.28241076,0.0105715421 C2.35196257,0.00455735617 2.42222722,0.00111582211 2.50030052,0.000120066754 L5.24622728,0.000120066754 C6.5057217,-0.0125086212 7.5739889,0.972461181 7.74936076,2.30247365 C7.8591186,3.19421107 8.06307015,4.07108209 8.35657499,4.91432516 C8.69588906,5.88509756 8.47829669,6.97797625 7.79348031,7.72149283 L6.98281765,8.58984235 C8.12874307,10.5847706 9.69313204,12.2645937 11.550438,13.4954152 L12.3490024,12.6395777 C13.0437289,11.9028384 14.0792594,11.666144 14.9960041,12.0353177 C15.7804609,12.34922 16.5953779,12.5667641 17.4325343,12.6852186 C18.6889772,12.8749821 19.6086572,14.0359314 19.5820468,15.3825294 L19.5820407,18.3223652 Z M18.2487135,15.3747349 L18.2489059,15.3579174 C18.26372,14.7106667 17.8281741,14.1593819 17.2486043,14.0718198 C16.3158714,13.9398731 15.4013659,13.6957436 14.5198681,13.3430084 C14.0967087,13.1726026 13.6199409,13.2815789 13.2989485,13.6219691 L12.1332455,14.8712904 C11.9198817,15.0999591 11.585967,15.1475123 11.3223036,14.9867775 C8.921518,13.5232076 6.9340105,11.3928592 5.56930944,8.8208155 C5.42550081,8.54978026 5.46876555,8.21168614 5.6756104,7.99012219 L6.83816865,6.74485901 C7.16346977,6.39166321 7.2684165,5.86455811 7.10456701,5.39578533 C6.77688002,4.45433861 6.5494383,3.4764738 6.4278271,2.48820787 C6.34455681,1.8567894 5.84291921,1.39426664 5.2526549,1.4001533 L2.50805193,1.4001533 C2.46895708,1.40063993 2.43002051,1.40254702 2.39850097,1.40523725 C1.75753368,1.46745946 1.27912173,2.08212797 1.33738031,2.77248268 C1.62755437,5.70360797 2.55848528,8.52086927 4.05734006,11.0021273 C5.41485145,13.2914825 7.22504261,15.2317301 9.36480089,16.6890641 C11.6594862,18.2844298 14.2702468,19.2798963 16.9817353,19.5954948 C17.0142754,19.5989115 17.0474607,19.6004473 17.0855899,19.6000939 C17.7273658,19.5974923 18.2515948,19.0309362 18.2487135,18.3253731 L18.2487135,15.3747349 Z" id="Phone-30"></path>
            </g>
            <g id="20x20/Internet-Copy-2" transform="translate(438.9373, 1.086)">
                <mask id="mask-18" fill="white">
                    <use xlink:href="#path-17"></use>
                </mask>
                <use id="Clip-2" fill="#757575" fill-rule="nonzero" xlink:href="#path-17"></use>
            </g>
        </g>
        <rect id="Rectangle" fill="#FFFFFF" opacity="0" x="1344" y="18" width="123" height="44"></rect>
    </g>
</svg>