<?xml version="1.0" encoding="UTF-8"?>
<svg width="1280px" height="1533px" viewBox="0 0 1280 1533" version="1.1" xmlns="http://www.w3.org/2000/svg" xmlns:xlink="http://www.w3.org/1999/xlink">
    <title>Primary Manager (Service Manager) - 01 - User Details</title>
    <defs>
        <circle id="path-1" cx="58" cy="12.4" r="10.8"></circle>
        <filter x="-48.1%" y="-38.9%" width="196.3%" height="196.3%" filterUnits="objectBoundingBox" id="filter-2">
            <feMorphology radius="0.4" operator="dilate" in="SourceAlpha" result="shadowSpreadOuter1"></feMorphology>
            <feOffset dx="0" dy="2" in="shadowSpreadOuter1" result="shadowOffsetOuter1"></feOffset>
            <feGaussianBlur stdDeviation="0.5" in="shadowOffsetOuter1" result="shadowBlurOuter1"></feGaussianBlur>
            <feComposite in="shadowBlurOuter1" in2="SourceAlpha" operator="out" result="shadowBlurOuter1"></feComposite>
            <feColorMatrix values="0 0 0 0 0   0 0 0 0 0   0 0 0 0 0  0 0 0 0.06 0" type="matrix" in="shadowBlurOuter1" result="shadowMatrixOuter1"></feColorMatrix>
            <feMorphology radius="0.4" operator="dilate" in="SourceAlpha" result="shadowSpreadOuter2"></feMorphology>
            <feOffset dx="0" dy="2" in="shadowSpreadOuter2" result="shadowOffsetOuter2"></feOffset>
            <feGaussianBlur stdDeviation="3" in="shadowOffsetOuter2" result="shadowBlurOuter2"></feGaussianBlur>
            <feComposite in="shadowBlurOuter2" in2="SourceAlpha" operator="out" result="shadowBlurOuter2"></feComposite>
            <feColorMatrix values="0 0 0 0 0   0 0 0 0 0   0 0 0 0 0  0 0 0 0.15 0" type="matrix" in="shadowBlurOuter2" result="shadowMatrixOuter2"></feColorMatrix>
            <feMerge>
                <feMergeNode in="shadowMatrixOuter1"></feMergeNode>
                <feMergeNode in="shadowMatrixOuter2"></feMergeNode>
            </feMerge>
        </filter>
        <circle id="path-3" cx="26" cy="26" r="26"></circle>
        <rect id="path-5" x="0" y="0" width="1280" height="86.4"></rect>
        <polygon id="path-7" points="0 20 0 0 20 0 20 20"></polygon>
        <polygon id="path-9" points="7.63504925 0 7.63504925 11.5295905 0 11.5295905 0 2.64959595e-14 7.63504925 2.64959595e-14"></polygon>
    </defs>
    <g id="Primary-Manager-(Service-Manager)---01---User-Details" stroke="none" stroke-width="1" fill="none" fill-rule="evenodd">
        <rect fill="#EFEFEF" x="0" y="0" width="1280" height="1533"></rect>
        <rect id="Rectangle" fill="#FFFFFF" x="0" y="192.6" width="1280" height="178.4"></rect>
        <g id="Link/Functional/Large/Back" transform="translate(176.8, 217.4)">
            <text id="BACK" font-family="Montserrat-Bold, Montserrat" font-size="11.2" font-weight="bold" letter-spacing="1.2" fill="#2E68B9">
                <tspan x="16" y="11">BACK</tspan>
            </text>
            <g id="stroke" transform="translate(0, 3.6)" stroke="#2E68B9" stroke-linecap="round" stroke-width="1.2">
                <polyline id="Stroke-1" points="3.6 7.1992 0 3.5992 3.6 0"></polyline>
                <line x1="11.2" y1="3.6" x2="0.8" y2="3.6" id="Stroke-3" stroke-linejoin="round"></line>
            </g>
        </g>
        <g id="Security" transform="translate(176, 1091)">
            <rect id="Rectangle" fill="#FFFFFF" x="0" y="0" width="928" height="228"></rect>
            <g id="Activate" transform="translate(465.6, 85.6)" fill="#000000">
                <text id="Security-PIN-Access" font-family="Montserrat-Bold, Montserrat" font-size="11.2" font-weight="bold" line-spacing="17.6">
                    <tspan x="40" y="11">Security PIN Access</tspan>
                </text>
                <g id="pswd-copy-3" transform="translate(0.1, 0.1)" fill-rule="nonzero">
                    <path d="M1.12329107,0.142378648 L1.19497475,0.205025253 L23.3077953,22.3178458 C23.5811623,22.5912128 23.5811623,23.0344283 23.3077953,23.3077953 C23.0572088,23.5583817 22.6639025,23.5792639 22.3895294,23.3704419 L22.3178458,23.3077953 L15.824,16.8136 L11.2890369,22.2558214 C10.8602048,22.77042 10.0418841,22.4443913 10.0507413,21.8058807 L10.0566875,21.720868 L10.9632,14.4664 L2.71025641,14.4666667 C2.14644437,14.4666667 1.82565493,13.841956 2.12073717,13.3885829 L2.17250151,13.3185376 L6.7888,7.7784 L0.205025253,1.19497475 C-0.0683417511,0.921607743 -0.0683417511,0.478392257 0.205025253,0.205025253 C0.455611674,-0.0455611674 0.848917998,-0.0664433691 1.12329107,0.142378648 Z M7.7832,8.7728 L4.2048,13.0664 L11.7564103,13.0666667 C12.1493889,13.0666667 12.4593699,13.3881303 12.4564935,13.7706767 L12.4510048,13.853491 L11.7416,19.524 L14.8296,15.8192 L7.7832,8.7728 Z M20.8025641,9.04615385 C21.3666916,9.04615385 21.6873959,9.67147367 21.391726,10.1247959 L21.3398647,10.1948275 L18.8974032,13.1197506 C18.6496075,13.4164935 18.2081718,13.4561731 17.9114289,13.2083775 C17.6394145,12.9812315 17.5834048,12.5913741 17.7668245,12.2994076 L17.822802,12.2224032 L19.3056,10.4456 L15.4351795,10.4461538 C15.0783186,10.4461538 14.7838281,10.1791142 14.7406335,9.83396036 L14.7351795,9.74615385 C14.7351795,9.38929293 15.0022191,9.09480246 15.347373,9.05160784 L15.4351795,9.04615385 L20.8025641,9.04615385 Z M13.4620803,1.7063996 L13.4562003,1.79141251 L12.8631746,6.56577149 C12.8155211,6.94942261 12.4658796,7.22180249 12.0822285,7.17414898 C11.728089,7.13016113 11.4687605,6.82885808 11.4684401,6.48101205 L11.473851,6.39320287 L11.772,3.9872 L10.8571338,5.08786905 C10.6304471,5.36026626 10.2406847,5.41693373 9.94840914,5.23400685 L9.87131044,5.17815941 C9.59891323,4.95147269 9.54224576,4.56171029 9.72517264,4.26943478 L9.78102007,4.19233608 L12.2234816,1.25736172 C12.6519437,0.742501876 13.4704432,1.06791369 13.4620803,1.7063996 Z" id="Shape"></path>
                </g>
                <text id="Text-Copy-3" font-family="Lato-Regular, Lato" font-size="11.2" font-weight="normal" line-spacing="17.6" letter-spacing="0.4">
                    <tspan x="40" y="28.6">For security reasons, certain Voice features are </tspan>
                    <tspan x="40" y="46.2">not available unless users are granted security PIN </tspan>
                    <tspan x="40" y="63.8">access by the account’s Primary Manager.</tspan>
                </text>
            </g>
            <g id="Password" transform="translate(32, 85.6)">
                <text id="Password-Copy-2" font-family="Montserrat-Bold, Montserrat" font-size="11.2" font-weight="bold" line-spacing="17.6" fill="#000000">
                    <tspan x="40" y="11">Password</tspan>
                </text>
                <g id="pswd-copy-2" transform="translate(2.4, 0)" fill="#000000">
                    <path d="M21.758831,0 L21.758831,24 L20.158831,24 L20.158831,0 L21.758831,0 Z M13.449631,8.17672 C13.960831,8.17672 14.376031,8.59112 14.376031,9.10312 L14.376031,10.95512 L16.032031,10.38312 C16.534431,10.22152 17.072831,10.49832 17.234431,11.00152 C17.262431,11.08952 17.277631,11.18232 17.280031,11.27512 C17.295231,11.69272 17.035231,12.07112 16.640031,12.20712 L14.956031,12.78312 L15.988031,14.27912 C16.294431,14.73032 16.177631,15.34472 15.726431,15.65192 C15.586431,15.74712 15.424831,15.80392 15.256031,15.81912 C14.9829643,15.8162756 14.7288606,15.6895398 14.5622675,15.4782432 L13.440031,13.90312 L12.384031,15.39912 C12.222431,15.65992 11.938431,15.81992 11.632031,15.82312 C11.116031,15.78872 10.718431,15.35592 10.728031,14.83912 C10.725631,14.63992 10.785631,14.44552 10.900031,14.28312 L11.944031,12.78312 L10.268031,12.20312 C9.87123097,12.07352 9.60163097,11.70392 9.60001023,11.28712 C9.59763097,10.77352 10.010431,10.35512 10.524031,10.35112 C10.640031,10.35432 10.755231,10.36952 10.868031,10.39512 L12.524031,10.95112 L12.524031,9.10312 C12.524031,8.59112 12.938431,8.17672 13.449631,8.17672 Z M3.84963097,8.17672 C4.36083097,8.17672 4.77603097,8.59112 4.77603097,9.10312 L4.77603097,10.95512 L6.43203097,10.38312 C6.93443097,10.22152 7.47283097,10.49832 7.63443097,11.00152 C7.66243097,11.08952 7.67763097,11.18232 7.68003097,11.27512 C7.69523097,11.69272 7.43523097,12.07112 7.04003097,12.20712 L5.35603097,12.78312 L6.38803097,14.27912 C6.69443097,14.73032 6.57763097,15.34472 6.12643097,15.65192 C5.98643097,15.74712 5.82483097,15.80392 5.65603097,15.81912 C5.3829643,15.8162756 5.1288606,15.6895398 4.96226746,15.4782432 L3.84003097,13.90312 L2.78403097,15.39912 C2.62243097,15.65992 2.33843097,15.81992 2.03203097,15.82312 C1.51603097,15.78872 1.11843097,15.35592 1.12803097,14.83912 C1.12563097,14.63992 1.18563097,14.44552 1.30003097,14.28312 L2.34403097,12.78312 L0.668030968,12.20712 C0.271230968,12.07752 0.00163096807,11.70872 1.02335402e-05,11.29112 C-0.00236903193,10.77752 0.410430968,10.35912 0.924030968,10.35512 C1.04003097,10.35832 1.15523097,10.37352 1.26803097,10.39912 L2.92403097,10.95512 L2.92403097,9.10312 C2.92403097,8.59112 3.33843097,8.17672 3.84963097,8.17672 Z" id="Shape-Copy"></path>
                </g>
                <text id="Text-Copy-2" font-family="Lato-Regular, Lato" font-size="11.2" font-weight="normal" line-spacing="17.6" letter-spacing="0.4" fill="#000000">
                    <tspan x="40" y="28.6">Send user an email with a link to change their </tspan>
                    <tspan x="40" y="46.2">password.</tspan>
                </text>
                <text id="Reset-password-Copy-2" font-family="Lato-Regular, Lato" font-size="11.2" font-weight="normal" line-spacing="17.6" letter-spacing="0.4" fill="#2E68B9" text-decoration="underline">
                    <tspan x="40" y="89.4">Reset password</tspan>
                </text>
            </g>
            <g id="TITLE" transform="translate(32, 27.2)">
                <text id="Settings" font-family="Montserrat-Bold, Montserrat" font-size="19.2" font-weight="bold" line-spacing="25.6" fill="#000000">
                    <tspan x="0" y="19">Settings</tspan>
                </text>
                <rect id="HR-Copy" fill="#E5E5E5" x="0" y="40" width="864" height="1"></rect>
            </g>
            <g id="Switch-OFF" transform="translate(503.4, 168.8)">
                <g id="Switch-ON" transform="translate(7, 0)">
                    <path d="M42.2856,0.0737217598 C43.6776,-0.00627824019 45.068,-7.10542736e-16 46.46,-7.10542736e-16 C46.4664,-7.10542736e-16 48.8176,-7.10542736e-16 53.5136,-7.10542736e-16 C54.9328,-7.10542736e-16 56.3232,-0.00627824019 57.7144,0.0737217598 C58.9792,0.14572176 60.2112,0.29932176 61.4376,0.64252176 C64.0192,1.36412176 66.2736,2.87132176 67.9032,5.00812176 C69.5232,7.13132176 70.4,9.73052176 70.4,12.3993218 C70.4,15.0713218 69.5232,17.6689218 67.9032,19.7921218 C66.2736,21.9281218 64.0192,23.4361218 61.4376,24.1577218 C60.2112,24.5009218 58.9792,24.6537218 57.7144,24.7265218 C56.3232,24.8065218 54.9328,24.7993218 53.5408,24.7993218 C53.5344,24.7993218 51.1826667,24.7995884 46.4856,24.8001218 C45.068,24.7993218 43.6776,24.8065218 42.2856,24.7265218 C41.0216,24.6537218 39.7896,24.5009218 38.5632,24.1577218 C35.9816,23.4361218 33.7272,21.9281218 32.0976,19.7921218 C30.4776,17.6689218 29.6,15.0713218 29.6,12.4001218 C29.6,9.73052176 30.4776,7.13132176 32.0976,5.00812176 C33.7272,2.87132176 35.9816,1.36412176 38.5632,0.64252176 C39.7896,0.29932176 41.0216,0.14572176 42.2856,0.0737217598 Z" id="Track" fill="#1471DA"></path>
                    <g id="Knob">
                        <use fill="black" fill-opacity="1" filter="url(#filter-2)" xlink:href="#path-1"></use>
                        <circle stroke-opacity="0.04" stroke="#000000" stroke-width="0.4" fill="#FFFFFF" fill-rule="evenodd" cx="58" cy="12.4" r="11"></circle>
                    </g>
                    <text id="NO" font-family="Montserrat-Bold, Montserrat" font-size="11.2" font-weight="bold" line-spacing="16" letter-spacing="1.2" fill="#B2B2B2">
                        <tspan x="-6.3664" y="16.6">OFF</tspan>
                    </text>
                    <text id="YES" font-family="Montserrat-Bold, Montserrat" font-size="11.2" font-weight="bold" line-spacing="17.6" letter-spacing="1.2" fill="#000000">
                        <tspan x="76.32" y="15.8">ON</tspan>
                    </text>
                </g>
            </g>
        </g>
        <g id="Manage-User" transform="translate(176, 731.8)">
            <rect id="Rectangle" fill="#FFFFFF" x="0" y="0" width="928" height="340"></rect>
            <g id="Primary-Manager" transform="translate(32, 212)">
                <text id="Assign-as-Primary-Ma" font-family="Montserrat-Bold, Montserrat" font-size="11.2" font-weight="bold" line-spacing="17.6" fill="#000000">
                    <tspan x="40" y="11">Assign as Primary Manager</tspan>
                </text>
                <g id="pswd-copy-4" transform="translate(-0.0001, 2.3997)" fill="#000000">
                    <path d="M12,12.21856 C14.6300127,12.21856 16.7733721,14.302429 16.869439,16.9086992 L16.8728,17.09136 L16.8728,19.12736 C16.8728,19.5691878 16.5146278,19.92736 16.0728,19.92736 C15.6625313,19.92736 15.3243943,19.6185278 15.2781822,19.2206569 L15.2728,19.12736 L15.2728,17.09136 C15.2728,15.338853 13.8949338,13.9076936 12.1633418,13.822566 L12,13.81856 L4.8728,13.81856 C3.12010024,13.81856 1.68912196,15.1966131 1.60400546,16.9280352 L1.6,17.09136 L1.6,19.12736 C1.6,19.5691878 1.2418278,19.92736 0.8,19.92736 C0.389731329,19.92736 0.0515942714,19.6185278 0.00538218506,19.2206569 L0,19.12736 L0,17.09136 C0,14.4616365 2.08358631,12.3180011 4.69011996,12.2219214 L4.8728,12.21856 L12,12.21856 Z M19.7458844,4.91259889 L19.8212502,4.97914978 L23.1322198,8.29011938 C23.420607,8.57850654 23.4427906,9.03229139 23.1987707,9.34612435 L23.1322198,9.42149022 L19.8212502,12.7324598 C19.5088308,13.0448793 19.0022988,13.0448793 18.6898794,12.7324598 C18.4014922,12.4440727 18.3793086,11.9902878 18.6233285,11.6764548 L18.6898794,11.601089 L20.69,9.6 L15.20008,9.60032 C14.7582522,9.60032 14.40008,9.2421478 14.40008,8.80032 C14.40008,8.39005133 14.7089122,8.05191427 15.1067831,8.00570219 L15.20008,8.00032 L20.578,8 L18.6898794,6.11052062 C18.4014922,5.82213346 18.3793086,5.36834861 18.6233285,5.05451565 L18.6898794,4.97914978 C18.9782665,4.69076261 19.4320514,4.66857898 19.7458844,4.91259889 Z M8.43608,0 C11.1283078,0 13.30968,2.1813722 13.30968,4.8736 C13.30968,7.5646278 11.1279078,9.7464 8.43608,9.7464 C5.74490417,9.7464 3.56328,7.56447981 3.56328,4.8736 C3.56328,2.18152019 5.74450423,0 8.43608,0 Z M8.43608,1.6 C6.62820843,1.6 5.16328,3.06512719 5.16328,4.8736 C5.16328,6.68087281 6.62860837,8.1464 8.43608,8.1464 C10.2442522,8.1464 11.70968,6.6809722 11.70968,4.8736 C11.70968,3.0650278 10.2446522,1.6 8.43608,1.6 Z" id="Combined-Shape"></path>
                </g>
                <text id="Text-Copy-4" font-family="Lato-Regular, Lato" font-size="11.2" font-weight="normal" line-spacing="17.6" letter-spacing="0.4" fill="#000000">
                    <tspan x="40" y="28.6">Transfer your Primary Manager role to this user. </tspan>
                    <tspan x="40" y="46.2">You will become a Services &amp; Billing Manager for </tspan>
                    <tspan x="40" y="63.8">this account.</tspan>
                </text>
                <text id="Transfer-Role" font-family="Lato-Regular, Lato" font-size="11.2" font-weight="normal" line-spacing="17.6" letter-spacing="0.4" fill="#2E68B9" text-decoration="underline">
                    <tspan x="40" y="89.4">Transfer Role</tspan>
                </text>
            </g>
            <g id="Delete" transform="translate(465.6, 85.6)">
                <text id="Delete-User" font-family="Montserrat-Bold, Montserrat" font-size="11.2" font-weight="bold" line-spacing="17.6" fill="#000000">
                    <tspan x="40" y="11">Delete User</tspan>
                </text>
                <g id="pswd-copy-5" transform="translate(0.8, 0.8)" fill="#000000" fill-rule="nonzero">
                    <path d="M11.2,-6.66133815e-16 C17.3855892,-6.66133815e-16 22.4,5.0144108 22.4,11.2 C22.4,17.3855892 17.3855892,22.4 11.2,22.4 C5.0144108,22.4 -6.66133815e-16,17.3855892 -6.66133815e-16,11.2 C-6.66133815e-16,5.0144108 5.0144108,-6.66133815e-16 11.2,-6.66133815e-16 Z M3.86093647,4.92592846 C2.41694077,6.61343891 1.54482759,8.80487298 1.54482759,11.2 C1.54482759,16.5324045 5.86759552,20.8551724 11.2,20.8551724 C13.783055,20.8551724 16.1291985,19.8408336 17.8618391,18.1887472 L3.86093647,4.92592846 Z M11.2,1.54482759 C8.81959712,1.54482759 6.64039047,2.40625103 4.95710764,3.83437031 L18.8921031,17.0364403 C20.123989,15.4153913 20.8551724,13.3930842 20.8551724,11.2 C20.8551724,5.86759552 16.5324045,1.54482759 11.2,1.54482759 Z" id="Shape"></path>
                </g>
                <text id="Text-Copy-5" font-family="Lato-Regular, Lato" font-size="11.2" font-weight="normal" line-spacing="17.6" letter-spacing="0.4" fill="#000000">
                    <tspan x="40" y="28.6">This action cannot be undone.</tspan>
                </text>
                <text id="Delete-this-user" font-family="Lato-Regular, Lato" font-size="11.2" font-weight="normal" line-spacing="17.6" letter-spacing="0.4" fill="#2E68B9" text-decoration="underline">
                    <tspan x="40" y="54.2">Delete this user</tspan>
                </text>
            </g>
            <g id="Activate" transform="translate(32, 85.6)">
                <text id="Deactivate-User" font-family="Montserrat-Bold, Montserrat" font-size="11.2" font-weight="bold" line-spacing="17.6" fill="#000000">
                    <tspan x="40" y="11">Deactivate User</tspan>
                </text>
                <g id="pswd-copy-3" transform="translate(0.1, 0.1)" fill="#000000" fill-rule="nonzero">
                    <path d="M1.12329107,0.142378648 L1.19497475,0.205025253 L23.3077953,22.3178458 C23.5811623,22.5912128 23.5811623,23.0344283 23.3077953,23.3077953 C23.0572088,23.5583817 22.6639025,23.5792639 22.3895294,23.3704419 L22.3178458,23.3077953 L15.824,16.8136 L11.2890369,22.2558214 C10.8602048,22.77042 10.0418841,22.4443913 10.0507413,21.8058807 L10.0566875,21.720868 L10.9632,14.4664 L2.71025641,14.4666667 C2.14644437,14.4666667 1.82565493,13.841956 2.12073717,13.3885829 L2.17250151,13.3185376 L6.7888,7.7784 L0.205025253,1.19497475 C-0.0683417511,0.921607743 -0.0683417511,0.478392257 0.205025253,0.205025253 C0.455611674,-0.0455611674 0.848917998,-0.0664433691 1.12329107,0.142378648 Z M7.7832,8.7728 L4.2048,13.0664 L11.7564103,13.0666667 C12.1493889,13.0666667 12.4593699,13.3881303 12.4564935,13.7706767 L12.4510048,13.853491 L11.7416,19.524 L14.8296,15.8192 L7.7832,8.7728 Z M20.8025641,9.04615385 C21.3666916,9.04615385 21.6873959,9.67147367 21.391726,10.1247959 L21.3398647,10.1948275 L18.8974032,13.1197506 C18.6496075,13.4164935 18.2081718,13.4561731 17.9114289,13.2083775 C17.6394145,12.9812315 17.5834048,12.5913741 17.7668245,12.2994076 L17.822802,12.2224032 L19.3056,10.4456 L15.4351795,10.4461538 C15.0783186,10.4461538 14.7838281,10.1791142 14.7406335,9.83396036 L14.7351795,9.74615385 C14.7351795,9.38929293 15.0022191,9.09480246 15.347373,9.05160784 L15.4351795,9.04615385 L20.8025641,9.04615385 Z M13.4620803,1.7063996 L13.4562003,1.79141251 L12.8631746,6.56577149 C12.8155211,6.94942261 12.4658796,7.22180249 12.0822285,7.17414898 C11.728089,7.13016113 11.4687605,6.82885808 11.4684401,6.48101205 L11.473851,6.39320287 L11.772,3.9872 L10.8571338,5.08786905 C10.6304471,5.36026626 10.2406847,5.41693373 9.94840914,5.23400685 L9.87131044,5.17815941 C9.59891323,4.95147269 9.54224576,4.56171029 9.72517264,4.26943478 L9.78102007,4.19233608 L12.2234816,1.25736172 C12.6519437,0.742501876 13.4704432,1.06791369 13.4620803,1.7063996 Z" id="Shape"></path>
                </g>
                <text id="Text-Copy-3" font-family="Lato-Regular, Lato" font-size="11.2" font-weight="normal" line-spacing="17.6" letter-spacing="0.4" fill="#000000">
                    <tspan x="40" y="28.6">Once activated, this  user will  be able to sign into </tspan>
                    <tspan x="40" y="46.2">My Account.   </tspan>
                </text>
                <text id="Deactivate-this-User" font-family="Lato-Regular, Lato" font-size="11.2" font-weight="normal" line-spacing="17.6" letter-spacing="0.4" fill="#2E68B9" text-decoration="underline">
                    <tspan x="40" y="71.8">Deactivate this User</tspan>
                </text>
            </g>
            <g id="TITLE" transform="translate(32, 27.2)">
                <text id="Manage-User" font-family="Montserrat-Bold, Montserrat" font-size="19.2" font-weight="bold" line-spacing="25.6" fill="#000000">
                    <tspan x="0" y="19">Manage User</tspan>
                </text>
                <rect id="HR-Copy" fill="#E5E5E5" x="0" y="40" width="864" height="1"></rect>
            </g>
        </g>
        <g id="tabs" transform="translate(206.1, 339.8)">
            <text id="NOTIFICATION-PREFERE" font-family="Montserrat-Bold, Montserrat" font-size="14.4" font-weight="bold" line-spacing="17.6" letter-spacing="1.2" fill="#757575">
                <tspan x="332.3" y="14">NOTIFICATION PREFERENCES</tspan>
            </text>
            <text id="ACCESS-DETAILS" font-family="Montserrat-Bold, Montserrat" font-size="14.4" font-weight="bold" line-spacing="17.6" letter-spacing="1.2" fill="#757575">
                <tspan x="155.1" y="14">ACCESS DETAILS</tspan>
            </text>
            <text id="USER-DETAILS" font-family="Montserrat-Bold, Montserrat" font-size="14.4" font-weight="bold" line-spacing="17.6" letter-spacing="1.2" fill="#000000">
                <tspan x="0" y="14">USER DETAILS</tspan>
            </text>
            <polygon id="Line-Copy" fill="#1471DA" points="1.52 28 120.72 28 120.72 31.2 1.52 31.2"></polygon>
        </g>
        <g id="Name-Card" transform="translate(171.2, 252.6)">
            <text id="Title" font-family="Montserrat-Bold, Montserrat" font-size="28.8" font-weight="bold" line-spacing="25.6" fill="#000000">
                <tspan x="66.4" y="28">Betsy Braddox</tspan>
            </text>
            <text id="bbraddox@company.com" font-family="Lato-Regular, Lato" font-size="12.8" font-weight="normal" line-spacing="17.6" letter-spacing="0.457142878" fill="#414141">
                <tspan x="68.8" y="49.8">bbraddox@company.com</tspan>
            </text>
            <text id="703-993-3890-Ext.-34" font-family="Lato-Regular, Lato" font-size="12.8" font-weight="normal" line-spacing="17.6" letter-spacing="0.457142878" fill="#414141">
                <tspan x="236" y="49.8">703-993-3890   Ext. 343</tspan>
            </text>
            <circle id="Oval-Copy" fill="#000000" cx="227.6" cy="46.8" r="1.2"></circle>
            <g id="Group-Copy-6" transform="translate(0, 0.8)">
                <mask id="mask-4" fill="white">
                    <use xlink:href="#path-3"></use>
                </mask>
                <use id="Avatar" fill="#303030" xlink:href="#path-3"></use>
                <text id="SM" font-family="Montserrat-Bold, Montserrat" font-size="20" font-weight="bold" line-spacing="18.0869565" fill="#FFFFFF">
                    <tspan x="10.9" y="35">BB</tspan>
                </text>
            </g>
        </g>
        <g id="FOOTER" transform="translate(0, 1447)">
            <mask id="mask-6" fill="white">
                <use xlink:href="#path-5"></use>
            </mask>
            <use id="Rectangle-2" fill="#000000" xlink:href="#path-5"></use>
            <g id="Global/Footer/Desktop" mask="url(#mask-6)">
                <g transform="translate(64, -338.4)">
                    <rect id="Rectangle" fill="#191919" x="0" y="0" width="1152" height="464"></rect>
                    <rect id="Background" fill="#000000" x="0" y="0" width="1152" height="464"></rect>
                    <g id="Global-Footer" stroke-width="1" fill="none" transform="translate(79.3, 337.6)">
                        <g id="Social-Icons" transform="translate(442.3, 72.7998)" fill-rule="nonzero">
                            <g id="Facebook" transform="translate(0, 0.0002)">
                                <path d="M18.1406897,0 L1.05931034,0 C0.474269396,0 0,0.474269396 0,1.05931034 L0,18.1406897 C0,18.7257306 0.474269396,19.2 1.05931034,19.2 L10.262069,19.2 L10.262069,11.7748966 L7.76275862,11.7748966 L7.76275862,8.86841379 L10.262069,8.86841379 L10.262069,6.72993103 C10.262069,4.25048276 11.7782069,2.89986207 13.9895172,2.89986207 C14.7347003,2.89823697 15.4794531,2.9358061 16.2206897,3.01241379 L16.2206897,5.60441379 L14.697931,5.60441379 C13.4929655,5.60441379 13.257931,6.1737931 13.257931,7.01462069 L13.257931,8.86510345 L16.137931,8.86510345 L15.7638621,11.7715862 L13.2413793,11.7715862 L13.2413793,19.2 L18.1406897,19.2 C18.7257306,19.2 19.2,18.7257306 19.2,18.1406897 L19.2,1.05931034 C19.2,0.474269396 18.7257306,0 18.1406897,0 Z" id="Shape" fill="#4267B2"></path>
                                <path d="M13.2413793,19.2 L13.2413793,11.7748966 L15.7473103,11.7748966 L16.1213793,8.86841379 L13.2413793,8.86841379 L13.2413793,7.01793103 C13.2413793,6.17710345 13.4764138,5.60772414 14.6813793,5.60772414 L16.2206897,5.60772414 L16.2206897,3.01241379 C15.4783548,2.93569008 14.732494,2.8981208 13.9862069,2.89980422 C11.7715862,2.89980422 10.262069,4.25048276 10.262069,6.72993103 L10.262069,8.86841379 L7.76275862,8.86841379 L7.76275862,11.7748966 L10.262069,11.7748966 L10.262069,19.2 L13.2413793,19.2 Z" id="f" fill="#FFFFFF"></path>
                            </g>
                            <g id="Linkedin" transform="translate(44.8, 0)">
                                <path d="M17.7765931,0.000207527401 L1.42340691,0.000207527401 C1.05087644,-0.00620603267 0.691169288,0.136264064 0.423985607,0.396050785 C0.156801925,0.655837507 0.00420296302,1.01149037 0,1.38420753 L0,17.8162075 C0.00420296302,18.1889247 0.156801925,18.5445775 0.423985607,18.8043643 C0.691169288,19.064151 1.05087644,19.2066211 1.42340691,19.2002075 L17.7765931,19.2002075 C18.550829,19.2091216 19.1868532,18.5907057 19.2,17.8162075 L19.2,1.38420753 C19.1868532,0.609709391 18.550829,-0.00870652265 17.7765931,0.000207527401" id="Path" fill="#006087"></path>
                                <circle id="Oval" fill="#FFFFFF" cx="4.272" cy="4.29620753" r="1.648"></circle>
                                <rect id="Rectangle" fill="#FFFFFF" x="2.848" y="7.20020753" width="2.848" height="9.16"></rect>
                                <path d="M7.488,7.20020753 L10.216,7.20020753 L10.216,8.44820753 L10.216,8.44820753 C10.7729319,7.49540567 11.8091537,6.92655986 12.912,6.96820753 C15.792,6.96820753 16.328,8.86420753 16.328,11.3362075 L16.328,16.3602075 L13.552,16.3602075 L13.552,11.9042075 C13.552,10.8402075 13.552,9.50420753 12.072,9.50420753 C10.592,9.50420753 10.352,10.6322075 10.352,11.8322075 L10.352,16.3602075 L7.488,16.3602075 L7.488,7.20020753" id="Path" fill="#FFFFFF"></path>
                            </g>
                            <g id="Twitter" transform="translate(89.6, 0.0002)">
                                <polygon id="Path" fill="#1DA1F2" points="19.2 19.2 0 19.2 0 0 19.2 0"></polygon>
                                <path d="M7.376,14.48 C9.23717659,14.4907411 11.0251187,13.7555915 12.3404394,12.4387676 C13.65576,11.1219437 14.3888669,9.3331631 14.376,7.472 C14.376,7.368 14.376,7.256 14.376,7.152 C14.8562106,6.80394843 15.2706686,6.37323719 15.6,5.88 C15.1499257,6.0782801 14.6725851,6.20772842 14.184,6.264 C14.6966338,5.95620415 15.0803297,5.47303158 15.264,4.904 C14.7695344,5.19535097 14.2281158,5.39838294 13.664,5.504 C12.9000575,4.69483203 11.6885687,4.49813745 10.7078658,5.02404874 C9.72716293,5.54996003 9.22067792,6.66793447 9.472,7.752 C7.50684917,7.63990023 5.67997089,6.70467796 4.44,5.176 C3.79292798,6.31078525 4.14391469,7.75334062 5.24,8.464 C4.84975437,8.45017831 4.46847725,8.34320128 4.128,8.152 C4.128,8.152 4.128,8.152 4.128,8.152 C4.13519982,9.3189994 4.96009082,10.3208913 6.104,10.552 C5.89285019,10.6099005 5.67494395,10.6394927 5.456,10.64 C5.30018454,10.6383345 5.14485677,10.6222661 4.992,10.592 C5.31400191,11.5972745 6.2405714,12.2857671 7.296,12.304 C6.26142577,13.1102149 4.95037926,13.4753528 3.648,13.32 C4.75473425,14.0540245 6.04818223,14.4564922 7.376,14.48" id="Path" fill="#FFFFFF"></path>
                            </g>
                        </g>
                        <g transform="translate(0, 38.4)" fill="#FFFFFF" font-family="Lato-Regular, Lato" font-size="11.2" font-weight="normal" line-spacing="16">
                            <text id="©2020-Comcast-Corpor">
                                <tspan x="851.3" y="11">©2020 Comcast Corporation</tspan>
                            </text>
                            <text id="Contact-Us">
                                <tspan x="0.2056" y="11">Contact Us</tspan>
                            </text>
                            <text id="Community">
                                <tspan x="74.3584" y="11">Community</tspan>
                            </text>
                            <text id="Privacy-Policy">
                                <tspan x="151.2536" y="11">Privacy Policy</tspan>
                            </text>
                            <text id="Cal.-Civ.-Code-§1798">
                                <tspan x="239.2992" y="11">Cal. Civ. Code §1798.135: Do Not Sell My Info</tspan>
                            </text>
                            <text id="Visitor-Agreement">
                                <tspan x="482.3448" y="11">Visitor Agreement</tspan>
                            </text>
                            <text id="Open-Source">
                                <tspan x="768.2296" y="11">Open Source</tspan>
                            </text>
                            <text id="Terms-&amp;-Conditions">
                                <tspan x="592.2912" y="11">Terms &amp; Conditions</tspan>
                            </text>
                            <text id="Sitemap">
                                <tspan x="708.7672" y="11">Sitemap</tspan>
                            </text>
                        </g>
                        <rect id="Rule" fill="#FFFFFF" x="68.72" y="0" width="856" height="1"></rect>
                    </g>
                    <g id="Partners" stroke-width="1" fill="none" transform="translate(843.2, 36)">
                        <text id="Solution-Providers-A" font-family="Lato-Regular, Lato" font-size="11.2" font-weight="normal" line-spacing="24" fill="#FFFFFF">
                            <tspan x="0" y="47">Solution Providers</tspan>
                            <tspan x="0" y="79">Authorized Connectors</tspan>
                            <tspan x="0" y="111">Alliance</tspan>
                        </text>
                        <line x1="0" y1="19.2" x2="116" y2="19.2" id="Line-Copy-8" stroke="#FFFFFF" stroke-width="0.8" stroke-linecap="square"></line>
                        <text font-family="Lato-Bold, Lato" font-size="14.4" font-weight="bold" line-spacing="17.6" fill="#FFFFFF">
                            <tspan x="0" y="14">Partners</tspan>
                        </text>
                    </g>
                    <g id="About-Us" stroke-width="1" fill="none" transform="translate(704, 36)">
                        <text id="Why-Comcast-Our-Hist" font-family="Lato-Regular, Lato" font-size="11.2" font-weight="normal" line-spacing="24" fill="#FFFFFF">
                            <tspan x="0" y="47">Why Comcast</tspan>
                            <tspan x="0" y="79">Our History</tspan>
                            <tspan x="0" y="111">Our Network</tspan>
                            <tspan x="0" y="143">Press Releases</tspan>
                            <tspan x="0" y="175">Advertising</tspan>
                            <tspan x="0" y="207">Comcast Business</tspan>
                        </text>
                        <text id="Promise-Careers" font-family="Lato-Regular, Lato" font-size="11.2" font-weight="normal" line-spacing="24" fill="#FFFFFF">
                            <tspan x="0" y="219.8">Promise</tspan>
                            <tspan x="0" y="251.8">Careers</tspan>
                        </text>
                        <line x1="0.8" y1="19.2" x2="116.8" y2="19.2" id="Line-Copy-7" stroke="#FFFFFF" stroke-width="0.8" stroke-linecap="square"></line>
                        <text font-family="Lato-Bold, Lato" font-size="14.4" font-weight="bold" line-spacing="17.6" fill="#FFFFFF">
                            <tspan x="0" y="14">About Us</tspan>
                        </text>
                    </g>
                    <g id="My-Account" stroke-width="1" fill="none" transform="translate(567.2, 36)">
                        <text id="My-Account-Cloud-Sol" font-family="Lato-Regular, Lato" font-size="11.2" font-weight="normal" line-spacing="24" fill="#FFFFFF">
                            <tspan x="0" y="47">My Account</tspan>
                            <tspan x="0" y="79">Cloud Solutions </tspan>
                        </text>
                        <line x1="0" y1="19.2" x2="116" y2="19.2" id="Line-Copy-6" stroke="#FFFFFF" stroke-width="0.8" stroke-linecap="square"></line>
                        <text font-family="Lato-Bold, Lato" font-size="14.4" font-weight="bold" line-spacing="17.6" fill="#FFFFFF">
                            <tspan x="0" y="14">My Account</tspan>
                        </text>
                    </g>
                    <g id="Support" stroke-width="1" fill="none" transform="translate(430.4, 36)">
                        <text id="Help-&amp;-Support-Forum" font-family="Lato-Regular, Lato" font-size="11.2" font-weight="normal" line-spacing="24" fill="#FFFFFF">
                            <tspan x="0" y="47">Help &amp; Support</tspan>
                            <tspan x="0" y="79">Forums</tspan>
                        </text>
                        <line x1="0" y1="19.2" x2="116" y2="19.2" id="Line-Copy-5" stroke="#FFFFFF" stroke-width="0.8" stroke-linecap="square"></line>
                        <text font-family="Lato-Bold, Lato" font-size="14.4" font-weight="bold" line-spacing="17.6" fill="#FFFFFF">
                            <tspan x="0" y="14">Support</tspan>
                        </text>
                    </g>
                    <g id="Shop" stroke-width="1" fill="none" transform="translate(292, 36)">
                        <text id="Business-Internet-Bu" font-family="Lato-Regular, Lato" font-size="11.2" font-weight="normal" line-spacing="24" fill="#FFFFFF">
                            <tspan x="0" y="47">Business Internet</tspan>
                            <tspan x="0" y="79">Business Phone</tspan>
                            <tspan x="0" y="111">Business TV</tspan>
                            <tspan x="0" y="143">Cloud Solutions</tspan>
                            <tspan x="0" y="175">Bundles</tspan>
                            <tspan x="0" y="207">Resources</tspan>
                        </text>
                        <line x1="0.8" y1="19.2" x2="116.8" y2="19.2" id="Line" stroke="#FFFFFF" stroke-width="0.8" stroke-linecap="square"></line>
                        <text font-family="Lato-Bold, Lato" font-size="14.4" font-weight="bold" line-spacing="17.6" fill="#FFFFFF">
                            <tspan x="0" y="14">Shop</tspan>
                        </text>
                    </g>
                </g>
            </g>
            <rect id="Rectangle" fill="#000000" mask="url(#mask-6)" x="571.2" y="66.4" width="138.4" height="34.4"></rect>
        </g>
        <g id="User-Details" transform="translate(176, 422.2)">
            <path d="M928,0 L928,290.4 L0,290.4 L0,0 L928,0 Z" id="Rectangle-3" fill="#FFFFFF"></path>
            <rect id="Box" fill="#F7F7F7" opacity="0.98999995" x="32" y="72.8" width="864" height="185.6"></rect>
            <g id="Email-Copy" transform="translate(612.8, 172)" fill="#000000" letter-spacing="0.4">
                <text id="Time-Zone" font-family="Lato-Bold, Lato" font-size="11.2" font-weight="bold" line-spacing="17.6">
                    <tspan x="0" y="11">Time Zone</tspan>
                </text>
                <text id="Eastern-Time-(GMT-4:" font-family="Lato-Regular, Lato" font-size="12.8" font-weight="normal" line-spacing="19.2">
                    <tspan x="0" y="44.2">Eastern Time (GMT 4:00)</tspan>
                </text>
            </g>
            <g id="Email-Copy" transform="translate(612.8, 95.2)" fill="#000000" letter-spacing="0.4">
                <text id="Role" font-family="Lato-Bold, Lato" font-size="11.2" font-weight="bold" line-spacing="17.6">
                    <tspan x="0" y="11">Role</tspan>
                </text>
                <text id="Service-&amp;-Billing-Ma" font-family="Lato-Regular, Lato" font-size="12.8" font-weight="normal" line-spacing="19.2">
                    <tspan x="0" y="44.2">Service &amp; Billing Manager</tspan>
                </text>
            </g>
            <text id="TextLink/Black/Default" font-family="Montserrat-Bold, Montserrat" font-size="11.2" font-weight="bold" line-spacing="17.6" letter-spacing="1.2" fill="#2E68B9">
                <tspan x="720.7136" y="47">EDIT USER INFORMATION</tspan>
            </text>
            <g id="TITLE" transform="translate(32, 32)" fill="#000000" font-family="Montserrat-Bold, Montserrat" font-size="19.2" font-weight="bold" line-spacing="25.6">
                <text id="User-Information">
                    <tspan x="0" y="19">User Information</tspan>
                </text>
            </g>
            <g id="First-Name" transform="translate(56, 95.2)" fill="#000000" letter-spacing="0.4">
                <text font-family="Lato-Bold, Lato" font-size="11.2" font-weight="bold" line-spacing="17.6">
                    <tspan x="0" y="11">First Name</tspan>
                </text>
                <text id="John" font-family="Lato-Regular, Lato" font-size="12.8" font-weight="normal" line-spacing="19.2">
                    <tspan x="0" y="44.2">John</tspan>
                </text>
            </g>
            <g id="First-Name-Copy" transform="translate(334.4, 95.2)" fill="#000000" letter-spacing="0.4">
                <text id="Last-Name" font-family="Lato-Bold, Lato" font-size="11.2" font-weight="bold" line-spacing="17.6">
                    <tspan x="0" y="11">Last Name</tspan>
                </text>
                <text id="Smith" font-family="Lato-Regular, Lato" font-size="12.8" font-weight="normal" line-spacing="19.2">
                    <tspan x="0" y="44.2">Smith</tspan>
                </text>
            </g>
            <g id="Mobile-Number" transform="translate(56, 172)">
                <text id="Mobile-Phone-Number" font-family="Lato-Bold, Lato" font-size="11.2" font-weight="bold" line-spacing="17.6" letter-spacing="0.4" fill="#000000">
                    <tspan x="0" y="11">Mobile Phone Number </tspan>
                </text>
                <text id="(703)-909-2019" font-family="Lato-Regular, Lato" font-size="12.8" font-weight="normal" line-spacing="19.2" letter-spacing="0.4" fill="#000000">
                    <tspan x="0" y="45">(703) 909-2019</tspan>
                </text>
                <text id="Verified" font-family="Lato-Italic, Lato" font-size="12.8" font-style="italic" font-weight="normal" line-spacing="19.2" letter-spacing="0.4" fill="#000000">
                    <tspan x="0" y="67.4">Verified</tspan>
                </text>
                <g id="30x30/Verification-Check" transform="translate(112, 32.8)" fill="#1471DA" fill-rule="nonzero">
                    <path d="M8,0 C8.99363898,0 9.96305701,0.18146716 10.8716524,0.531009813 C11.1465626,0.636769623 11.2836862,0.945363707 11.1779264,1.22027399 C11.0721666,1.49518428 10.7635725,1.63230783 10.4886622,1.52654802 C9.70180532,1.22383896 8.8621732,1.06666667 8,1.06666667 C4.17082573,1.06666667 1.06666667,4.17082573 1.06666667,8 C1.06666667,11.8291743 4.17082573,14.9333333 8,14.9333333 C11.8291743,14.9333333 14.9333333,11.8291743 14.9333333,8 C14.9333333,7.78042838 14.9231436,7.56217807 14.9028999,7.34569491 C14.8754754,7.05242251 15.0909877,6.79244632 15.3842601,6.76502183 C15.6775325,6.73759735 15.9375087,6.95310966 15.9649332,7.24638206 C15.988263,7.49586749 16,7.74725801 16,8 C16,12.418278 12.418278,16 8,16 C3.581722,16 0,12.418278 0,8 C0,3.581722 3.581722,0 8,0 Z M15.0806095,0.883750384 C15.2838355,0.670536897 15.6214264,0.662440447 15.8346399,0.865666456 C16.0478534,1.06889247 16.0559498,1.40648338 15.8527238,1.61969687 L8.03050154,9.82633979 C7.82291037,10.044133 7.4763599,10.0471959 7.26495158,9.83310601 L5.0840821,7.62457358 C4.87711921,7.41498549 4.87924735,7.07730421 5.08883543,6.87034132 C5.29842351,6.66337843 5.63610479,6.66550657 5.84306768,6.87509465 L7.63767505,8.69246548 Z" id="Combined-Shape"></path>
                </g>
            </g>
            <g id="Email" transform="translate(334.4, 172)" fill="#000000" letter-spacing="0.4">
                <text id="Email-Address" font-family="Lato-Bold, Lato" font-size="11.2" font-weight="bold" line-spacing="17.6">
                    <tspan x="0" y="11">Email Address</tspan>
                </text>
                <text id="jsmith@company.com" font-family="Lato-Regular, Lato" font-size="12.8" font-weight="normal" line-spacing="19.2">
                    <tspan x="0" y="44.2">jsmith@company.com</tspan>
                </text>
            </g>
        </g>
        <g id="User-Details" transform="translate(176, 422.2)">
            <path d="M928,0 L928,290.4 L0,290.4 L0,0 L928,0 Z" id="Rectangle-3" fill="#FFFFFF"></path>
            <rect id="Box" fill="#F7F7F7" opacity="0.98999995" x="32" y="72.8" width="864" height="185.6"></rect>
            <g id="Email-Copy" transform="translate(612.8, 95.2)" fill="#000000" letter-spacing="0.4">
                <text id="Role" font-family="Lato-Bold, Lato" font-size="11.2" font-weight="bold" line-spacing="17.6">
                    <tspan x="0" y="11">Role</tspan>
                </text>
                <text id="Services-Manager" font-family="Lato-Regular, Lato" font-size="12.8" font-weight="normal" line-spacing="19.2">
                    <tspan x="0" y="44.2">Services Manager</tspan>
                </text>
            </g>
            <text id="TextLink/Black/Default" font-family="Montserrat-Bold, Montserrat" font-size="11.2" font-weight="bold" line-spacing="17.6" letter-spacing="1.2" fill="#2E68B9">
                <tspan x="720.7136" y="47">EDIT USER INFORMATION</tspan>
            </text>
            <g id="TITLE" transform="translate(32, 32)" fill="#000000" font-family="Montserrat-Bold, Montserrat" font-size="19.2" font-weight="bold" line-spacing="25.6">
                <text id="User-Information">
                    <tspan x="0" y="19">User Information</tspan>
                </text>
            </g>
            <g id="First-Name" transform="translate(56, 95.2)" fill="#000000" letter-spacing="0.4">
                <text font-family="Lato-Bold, Lato" font-size="11.2" font-weight="bold" line-spacing="17.6">
                    <tspan x="0" y="11">First Name</tspan>
                </text>
                <text id="Betsy" font-family="Lato-Regular, Lato" font-size="12.8" font-weight="normal" line-spacing="19.2">
                    <tspan x="0" y="44.2">Betsy</tspan>
                </text>
            </g>
            <g id="First-Name-Copy" transform="translate(334.4, 95.2)" fill="#000000" letter-spacing="0.4">
                <text id="Last-Name" font-family="Lato-Bold, Lato" font-size="11.2" font-weight="bold" line-spacing="17.6">
                    <tspan x="0" y="11">Last Name</tspan>
                </text>
                <text id="Bradox" font-family="Lato-Regular, Lato" font-size="12.8" font-weight="normal" line-spacing="19.2">
                    <tspan x="0" y="44.2">Bradox</tspan>
                </text>
            </g>
            <g id="Mobile-Number" transform="translate(56, 172)">
                <text id="Mobile-Phone-Number" font-family="Lato-Bold, Lato" font-size="11.2" font-weight="bold" line-spacing="17.6" letter-spacing="0.4" fill="#000000">
                    <tspan x="0" y="11">Mobile Phone Number </tspan>
                </text>
                <text id="(703)-909-2019" font-family="Lato-Regular, Lato" font-size="12.8" font-weight="normal" line-spacing="19.2" letter-spacing="0.4" fill="#000000">
                    <tspan x="0" y="45">(703) 909-2019</tspan>
                </text>
                <text id="Verified" font-family="Lato-Italic, Lato" font-size="12.8" font-style="italic" font-weight="normal" line-spacing="19.2" letter-spacing="0.4" fill="#000000">
                    <tspan x="0" y="67.4">Verified</tspan>
                </text>
                <g id="30x30/Verification-Check" transform="translate(112, 32.8)" fill="#1471DA" fill-rule="nonzero">
                    <path d="M8,0 C8.99363898,0 9.96305701,0.18146716 10.8716524,0.531009813 C11.1465626,0.636769623 11.2836862,0.945363707 11.1779264,1.22027399 C11.0721666,1.49518428 10.7635725,1.63230783 10.4886622,1.52654802 C9.70180532,1.22383896 8.8621732,1.06666667 8,1.06666667 C4.17082573,1.06666667 1.06666667,4.17082573 1.06666667,8 C1.06666667,11.8291743 4.17082573,14.9333333 8,14.9333333 C11.8291743,14.9333333 14.9333333,11.8291743 14.9333333,8 C14.9333333,7.78042838 14.9231436,7.56217807 14.9028999,7.34569491 C14.8754754,7.05242251 15.0909877,6.79244632 15.3842601,6.76502183 C15.6775325,6.73759735 15.9375087,6.95310966 15.9649332,7.24638206 C15.988263,7.49586749 16,7.74725801 16,8 C16,12.418278 12.418278,16 8,16 C3.581722,16 0,12.418278 0,8 C0,3.581722 3.581722,0 8,0 Z M15.0806095,0.883750384 C15.2838355,0.670536897 15.6214264,0.662440447 15.8346399,0.865666456 C16.0478534,1.06889247 16.0559498,1.40648338 15.8527238,1.61969687 L8.03050154,9.82633979 C7.82291037,10.044133 7.4763599,10.0471959 7.26495158,9.83310601 L5.0840821,7.62457358 C4.87711921,7.41498549 4.87924735,7.07730421 5.08883543,6.87034132 C5.29842351,6.66337843 5.63610479,6.66550657 5.84306768,6.87509465 L7.63767505,8.69246548 Z" id="Combined-Shape"></path>
                </g>
            </g>
            <g id="Email" transform="translate(334.4, 172)" fill="#000000" letter-spacing="0.4">
                <text id="Email-Address" font-family="Lato-Bold, Lato" font-size="11.2" font-weight="bold" line-spacing="17.6">
                    <tspan x="0" y="11">Email Address</tspan>
                </text>
                <text id="bbraddox@company.com" font-family="Lato-Regular, Lato" font-size="12.8" font-weight="normal" line-spacing="19.2">
                    <tspan x="0" y="44.2">bbraddox@company.com</tspan>
                </text>
            </g>
        </g>
        <g id="TOP" transform="translate(0, 79)">
            <g id="Navigation/L2/Overview" transform="translate(0, 74.4)">
                <rect id="Rectangle-14" fill="#F7F7F7" x="0" y="0" width="1280" height="40"></rect>
                <g id="acct-selector" transform="translate(68, 0)">
                    <g id="account-selector">
                        <rect id="Rectangle-4" fill="#E5E5E5" x="294.4" y="0" width="1" height="40"></rect>
                        <rect id="Rectangle-4" fill="#E5E5E5" x="0" y="0" width="1" height="40"></rect>
                        <text id="Astronoodle-North,-8" font-family="Lato-Regular, Lato" font-size="9.6" font-weight="normal" line-spacing="17.6" letter-spacing="0.671999979" fill="#4A4A4A">
                            <tspan x="44" y="12.2">Astronoodle North, 8210100201051817</tspan>
                        </text>
                        <text id="CHANGE-ACCOUNT" font-family="Montserrat-Bold, Montserrat" font-size="8" font-weight="bold" line-spacing="14.4" letter-spacing="1.2" fill="#1471DA">
                            <tspan x="44" y="27.2">CHANGE ACCOUNT</tspan>
                        </text>
                        <g id="blue-down-arrow" transform="translate(145.6, 24.8)" stroke="#1471DA" stroke-width="1.2">
                            <path d="M0,0 C2.65673159,2.66666667 4.01424246,4 4.07253262,4 C4.13082277,4 5.43997857,2.71416053 8,0.142481591" id="Path-2"></path>
                        </g>
                        <g id="Icon/Stack/20x20" transform="translate(16.2679, 11.468)" fill="#000000">
                            <path d="M0.697139085,10.8261663 L0.770034171,10.8561647 L7.73211654,14.3368 L14.6941989,10.8561647 C14.9569955,10.7247665 15.2765535,10.8312858 15.4079518,11.0940824 C15.5274048,11.3329883 15.4502316,11.6188046 15.23777,11.7675183 L15.1700342,11.8078353 L7.97003417,15.4078353 C7.84522365,15.4702405 7.70199827,15.4806414 7.57104947,15.4390379 L7.49419891,15.4078353 L0.294198905,11.8078353 C0.0314023447,11.676437 -0.0751170078,11.3568789 0.0562812725,11.0940824 C0.175734255,10.8551764 0.450691185,10.7454252 0.697139085,10.8261663 Z M0.697139085,7.22616629 L0.770034171,7.25616473 L7.73211654,10.7368 L14.6941989,7.25616473 C14.9569955,7.12476645 15.2765535,7.23128581 15.4079518,7.49408237 C15.5274048,7.73298833 15.4502316,8.01880462 15.23777,8.16751827 L15.1700342,8.20783527 L7.97003417,11.8078353 C7.84522365,11.8702405 7.70199827,11.8806414 7.57104947,11.8390379 L7.49419891,11.8078353 L0.294198905,8.20783527 C0.0314023447,8.07643699 -0.0751170078,7.75687893 0.0562812725,7.49408237 C0.175734255,7.2551764 0.450691185,7.14542516 0.697139085,7.22616629 Z M7.97003417,0.0561647344 L15.1700342,3.65616473 C15.562144,3.85221965 15.562144,4.41178035 15.1700342,4.60783527 L7.97003417,8.20783527 C7.82026155,8.28272158 7.64397153,8.28272158 7.49419891,8.20783527 L0.294198905,4.60783527 C-0.0979109176,4.41178035 -0.0979109176,3.85221965 0.294198905,3.65616473 L7.49419891,0.0561647344 C7.64397153,-0.0187215781 7.82026155,-0.0187215781 7.97003417,0.0561647344 Z M7.73211654,1.1264 L1.72091654,4.132 L7.73211654,7.1368 L13.7425165,4.132 L7.73211654,1.1264 Z" id="Combined-Shape"></path>
                        </g>
                    </g>
                    <rect id="HR" fill="#E5E5E5" x="0" y="39.2" width="292" height="1"></rect>
                </g>
                <g id="mag" transform="translate(1176.8, 8.8)">
                    <mask id="mask-8" fill="white">
                        <use xlink:href="#path-7"></use>
                    </mask>
                    <g id="Clip-2"></g>
                </g>
                <g id="ACTIVE-" transform="translate(360, 0)">
                    <rect id="Rectangle-Copy-2" fill="#FFFFFF" x="236" y="0" width="57.6" height="40"></rect>
                    <rect id="Rectangle-4" fill="#E5E5E5" x="235.2" y="0" width="1" height="40"></rect>
                    <rect id="Rectangle-4" fill="#E5E5E5" x="293.6" y="0" width="1" height="40"></rect>
                    <rect id="HR" fill="#E5E5E5" x="0" y="39.2" width="80.8" height="1"></rect>
                </g>
                <g id="SECTIONS" transform="translate(374.4, 12.8)" fill="#000000">
                    <g id="nav-down-arrow" transform="translate(202.4, 6.4)">
                        <polygon id="Page-1" points="7.62175037 0 3.99995946 3.23835794 0.37816855 0 0 0.423495051 3.99995946 4 8 0.423495051"></polygon>
                    </g>
                    <text id="SERVICES" font-family="Montserrat-SemiBold, Montserrat" font-size="8" font-weight="500" line-spacing="14.4" letter-spacing="1.2">
                        <tspan x="146.4" y="8">SERVICES</tspan>
                    </text>
                    <text id="USERS" font-family="Montserrat-SemiBold, Montserrat" font-size="8" font-weight="500" line-spacing="14.4" letter-spacing="1.2">
                        <tspan x="234.4" y="8">USERS</tspan>
                    </text>
                    <text id="account-details" font-family="Montserrat-SemiBold, Montserrat" font-size="8" font-weight="500" line-spacing="14.4" letter-spacing="1.2">
                        <tspan x="292" y="8">ACCOUNT DETAILS</tspan>
                    </text>
                    <text id="BILLING" font-family="Montserrat-SemiBold, Montserrat" font-size="8" font-weight="500" line-spacing="14.4" letter-spacing="1.2">
                        <tspan x="80" y="8">BILLING</tspan>
                    </text>
                    <text id="OVERVIEW" font-family="Montserrat-SemiBold, Montserrat" font-size="8" font-weight="500" line-spacing="14.4" letter-spacing="1.2">
                        <tspan x="0" y="8">OVERVIEW</tspan>
                    </text>
                </g>
                <text id="SEARCH" font-family="Montserrat-Bold, Montserrat" font-size="8" font-weight="bold" line-spacing="14.4" letter-spacing="1.2" fill="#000000">
                    <tspan x="1112.8" y="20.8">SEARCH</tspan>
                </text>
                <path d="M1182.5985,18.060356 C1182.5985,19.8960282 1181.88592,21.6255864 1180.59218,22.9346556 L1180.52672,22.9996132 C1179.2186,24.2888481 1177.49244,24.9984232 1175.66067,24.9984232 C1171.83497,24.9984232 1168.72284,21.8859126 1168.72284,18.060356 C1168.72284,14.2347994 1171.83497,11.1227847 1175.66067,11.1227847 C1179.48637,11.1227847 1182.5985,14.2347994 1182.5985,18.060356 M1182.14874,23.4716715 C1183.42215,21.9473992 1184.12085,20.0348688 1184.12085,18.060356 C1184.12085,13.3953092 1180.32589,9.6 1175.66067,9.6 C1170.99545,9.6 1167.2,13.3953092 1167.2,18.060356 C1167.2,22.7254029 1170.99545,26.5202162 1175.66067,26.5202162 C1177.63575,26.5202162 1179.54835,25.8215501 1181.07219,24.5476868 L1185.90154,29.3778549 C1186.04535,29.5211583 1186.23676,29.6 1186.43908,29.6 C1186.64189,29.6 1186.8333,29.5211583 1186.9776,29.3773591 C1187.27413,29.0798433 1187.27413,28.5973719 1186.9776,28.3008479 L1182.14874,23.4716715 Z" id="Fill-1" fill="#000000"></path>
            </g>
            <g id="Navigation/Top/My-Account">
                <g id="L1-MY-ACCOUNT" transform="translate(0, 18.4)">
                    <rect id="Rectangle-2" fill="#191919" x="0" y="0" width="1280" height="56"></rect>
                    <g id="Group" transform="translate(954.4, 21.6)">
                        <g id="Group-2" transform="translate(0, 1.6)">
                            <path d="M224.8,5.6 C227.722405,8.8 229.215667,10.4 229.279786,10.4 C229.343905,10.4 230.783976,8.85699264 233.6,5.77097791" id="Path-2" stroke="#FFFFFF" stroke-width="1.6"></path>
                            <text id="Jason-Abrams" font-family="Montserrat-SemiBold, Montserrat" font-size="11.2" font-weight="500" line-spacing="14.4" letter-spacing="1.2" fill="#FFFFFF">
                                <tspan x="86.0096" y="11">JASON ABRAMS</tspan>
                            </text>
                        </g>
                        <g id="Group-3" transform="translate(200.8, 0)">
                            <rect id="Rectangle" fill="#1471DA" x="0" y="0.8" width="16" height="16" rx="8"></rect>
                            <text id="Eco-Bill:-Off-Copy" font-family="Montserrat-SemiBold, Montserrat" font-size="11.2" font-weight="500" line-spacing="17.6" letter-spacing="1.2" fill="#FFFFFF">
                                <tspan x="4.8" y="11">2</tspan>
                            </text>
                        </g>
                    </g>
                    <g id="L1-Links-My-Account" transform="translate(204.6334, 19.2)">
                        <polygon id="Rectangle-4" fill="#1471DA" points="176.966569 19.2 270.334568 19.2 270.334568 22.4 176.966569 22.4"></polygon>
                        <g id="Links" fill="#FFFFFF" font-family="Montserrat-Bold, Montserrat" font-size="11.2" font-weight="bold" letter-spacing="1.2">
                            <g id="Link">
                                <text id="SHOP">
                                    <tspan x="0" y="11">SHOP</tspan>
                                </text>
                            </g>
                            <g id="Link" transform="translate(75.9327, 0)">
                                <text id="SUPPORT">
                                    <tspan x="0" y="11">SUPPOR</tspan>
                                    <tspan x="57.1408" y="11">T</tspan>
                                </text>
                            </g>
                            <g id="Link" transform="translate(177.4209, 0)">
                                <text id="MY-ACCOUNT">
                                    <tspan x="0" y="11">MY ACCOUN</tspan>
                                    <tspan x="84.1152" y="11">T</tspan>
                                </text>
                            </g>
                        </g>
                    </g>
                    <g id="Comcast_Business_v_w" transform="translate(84, 12.3332)">
                        <path d="M17.7740252,10.5083183 C15.1929087,10.5083183 13.0924305,8.40770689 13.0924305,5.82738951 C13.0924305,3.24827074 15.1929087,1.14819204 17.7740252,1.14819204 C20.3551416,1.14819204 22.4552203,3.24827074 22.4552203,5.82738951 C22.4552203,8.40770689 20.3551416,10.5083183 17.7740252,10.5083183 M17.7740252,6.73368359e-05 C14.5608475,6.73368359e-05 11.9471025,2.61394549 11.9471025,5.82738951 C11.9471025,9.04070036 14.5608475,11.656443 17.7740252,11.656443 C20.9872028,11.656443 23.6008146,9.04070036 23.6008146,5.82738951 C23.6008146,2.61394549 20.9872028,6.73368359e-05 17.7740252,6.73368359e-05" id="Fill-1" fill="#FEFEFE"></path>
                        <path d="M68.0199761,5.90171597 C67.7064759,5.73764108 65.8060305,4.75785296 65.5319509,4.61615191 C64.5344501,4.10754639 64.1807302,3.6559409 64.1807302,2.89190061 C64.1807302,1.83193952 65.0513127,1.14687358 66.4017343,1.14687358 C67.1946741,1.14687358 67.9615111,1.49539955 68.4101867,1.74830394 C68.4923573,1.79318482 68.5883784,1.81795587 68.6889276,1.81795587 C69.0045587,1.81795587 69.2615916,1.56145567 69.2615916,1.24542506 C69.2615916,1.0334062 69.1462597,0.84842242 68.9745937,0.749205055 C68.4084554,0.433840329 67.4427841,8.06546032e-05 66.4017343,8.06546032e-05 C64.4187187,8.06546032e-05 63.0332714,1.18975679 63.0332714,2.89190061 C63.0332714,4.42144616 64.0382301,5.1428696 65.0221468,5.64521578 C65.2971586,5.78531869 67.2206437,6.77722598 67.5093729,6.92918171 C68.2692847,7.32711659 68.6889276,7.9234862 68.6889276,8.61015027 C68.6889276,9.53054116 67.909705,10.5089975 66.4663254,10.5089975 C65.0630323,10.5089975 63.9728399,9.56729819 63.6714588,9.27803629 L63.5827625,9.19187034 L62.7337548,9.96470036 L62.8339044,10.0635182 C63.2101314,10.4378806 64.5867889,11.6564563 66.4663254,11.6564563 C68.5742616,11.6564563 69.8342555,10.1070673 69.8342555,8.61015027 C69.8342555,7.4922569 69.1738275,6.50447811 68.0199761,5.90171597" id="Fill-3" fill="#FEFEFE"></path>
                        <path d="M5.82652311,1.1481654 C7.07772733,1.1481654 8.25368617,1.63453026 9.13652095,2.5176314 C9.34640896,2.72645398 9.74048169,2.72645398 9.94717343,2.5176314 C10.0566455,2.41029019 10.1153768,2.26659149 10.1153768,2.11250492 C10.1153768,1.96041602 10.0566455,1.81511918 9.94717343,1.70804433 L9.87778787,1.63586204 C8.78586414,0.58109488 7.34621352,4.07013013e-05 5.82652311,4.07013013e-05 C2.61374497,4.07013013e-05 0,2.61391885 0,5.82736288 C0,9.04067373 2.61374497,11.6564164 5.82652311,11.6564164 C7.52254075,11.6564164 9.05022182,10.928334 10.1151105,9.76835652 L9.30432482,8.95610591 C8.44679379,9.90872579 7.20571107,10.5082917 5.82652311,10.5082917 C3.24567302,10.5082917 1.14559433,8.40768026 1.14559433,5.82736288 C1.14559433,3.24837728 3.24567302,1.1481654 5.82652311,1.1481654" id="Fill-5" fill="#FEFEFE"></path>
                        <path d="M45.3299636,1.1481654 C46.5802356,1.1481654 47.7568603,1.63453026 48.6395619,2.5176314 C48.8493167,2.72645398 49.243789,2.72645398 49.4507471,2.5176314 C49.5598196,2.41029019 49.6196164,2.26659149 49.6196164,2.11250492 C49.6196164,1.96041602 49.5598196,1.81511918 49.4507471,1.70804433 L49.3808288,1.63586204 C48.2883724,0.58109488 46.8499204,4.07013013e-05 45.3299636,4.07013013e-05 C42.1169191,4.07013013e-05 39.5026414,2.61391885 39.5026414,5.82736288 C39.5026414,9.04067373 42.1169191,11.6564164 45.3299636,11.6564164 C47.025049,11.6564164 48.5531296,10.928334 49.6188173,9.76835652 L48.8072326,8.95610591 C47.9502343,9.90872579 46.7088852,10.5082917 45.3299636,10.5082917 C42.748714,10.5082917 40.6486353,8.40768026 40.6486353,5.82736288 C40.6486353,3.24837728 42.748714,1.1481654 45.3299636,1.1481654" id="Fill-7" fill="#FEFEFE"></path>
                        <path d="M35.4590876,2.73835358e-05 C35.2437394,2.73835358e-05 35.0746037,0.138665339 34.9812462,0.318455195 C34.8872227,0.49717963 31.5524538,8.74633776 31.5523207,8.74633776 C31.5523207,8.74633776 28.2172854,0.49717963 28.1231288,0.318455195 C28.0297713,0.138665339 27.860902,2.73835358e-05 27.6454205,2.73835358e-05 C27.3942474,2.73835358e-05 27.2047356,0.184212103 27.1382799,0.417938916 C27.0719575,0.652065261 25.1904233,11.034996 25.1904233,11.034996 C25.1838976,11.0685568 25.1801686,11.1033162 25.1801686,11.139141 C25.1801686,11.4249403 25.4126968,11.656403 25.6974307,11.656403 C25.9490033,11.656403 26.1595572,11.4762137 26.205104,11.2379588 L27.8343996,2.35580721 C27.8343996,2.35580721 30.9783249,10.1231285 31.0707502,10.3079791 C31.1630423,10.4926966 31.3336429,10.635463 31.5524538,10.635463 C31.7708652,10.635463 31.941599,10.4926966 32.0336248,10.3079791 C32.1260501,10.1231285 35.2699754,2.35580721 35.2699754,2.35580721 L36.9638622,11.5916787 L38.0147672,11.5916787 C38.0147672,11.5916787 36.0326839,0.652065261 35.9663614,0.417938916 C35.8996394,0.184212103 35.7103939,2.73835358e-05 35.4590876,2.73835358e-05" id="Fill-9" fill="#FEFEFE"></path>
                        <g id="Group-13" transform="translate(51.3407, 0)" fill="#FEFEFE">
                            <path d="M3.10450469,6.14947971 L4.83687984,1.88819377 L6.57125265,6.14947971 L3.10450469,6.14947971 Z M4.83687984,3.73474904e-07 C4.61873481,-0.000265607341 4.45053141,0.141568612 4.35570891,0.326818753 C4.2615523,0.511536183 0.0398201237,10.9377497 0.0398201237,10.9377497 C0.0141168331,10.9996773 0,11.0678643 0,11.1391143 C0,11.4249136 0.23159597,11.6565096 0.517128897,11.6565096 C0.734874389,11.6565096 0.921855839,11.520402 0.997633934,11.3283598 L2.63705107,7.29693853 L7.03817356,7.29693853 L8.7861305,11.5916521 L9.90255891,11.5916521 C9.90255891,11.5916521 5.41007653,0.511536183 5.31778441,0.326818753 C5.22522593,0.141568612 5.05529122,-0.000265607341 4.83687984,3.73474904e-07 L4.83687984,3.73474904e-07 Z" id="Fill-11"></path>
                        </g>
                        <g id="Group-16" transform="translate(71.2277, 0.0622)">
                            <mask id="mask-10" fill="white">
                                <use xlink:href="#path-9"></use>
                            </mask>
                            <g id="Clip-15"></g>
                            <path d="M7.63507589,0.573329874 C7.63507589,0.256233839 7.3767112,0 7.06081377,0 L0.572264453,0 C0.256233839,0 0,0.256233839 0,0.573329874 C0,0.889360488 0.256233839,1.14586068 0.572264453,1.14586068 L3.29255156,1.14586068 L3.29255156,11.5295905 L4.34252432,11.5295905 L4.34252432,1.14586068 L7.06081377,1.14586068 C7.3767112,1.14586068 7.63507589,0.889360488 7.63507589,0.573329874" id="Fill-14" fill="#FEFEFE" mask="url(#mask-10)"></path>
                        </g>
                        <path d="M34.4789133,15.6761047 C33.9047844,15.6761047 33.5494663,16.0805653 33.5494663,16.5766521 L33.5494663,27.2662911 L35.407428,27.2662911 L35.407428,16.5766521 C35.407428,16.0805653 35.053575,15.6761047 34.4789133,15.6761047" id="Fill-17" fill="#FEFEFE"></path>
                        <path d="M13.4019887,22.6864042 L13.4029209,16.5795421 C13.4029209,16.0834552 13.0381473,15.6793942 12.4741398,15.6793942 C11.9021417,15.6793942 11.5434943,16.0834552 11.5434943,16.5795421 L11.5434943,22.6312686 C11.5434943,25.222107 13.369227,27.3281787 16.2752969,27.3281787 C19.1760398,27.3281787 21.0060342,25.222107 21.0060342,22.6312686 L21.0077655,15.7383919 L19.1459416,15.7383919 L19.1459416,22.6864042 C19.1459416,24.2152838 18.1291301,25.5827522 16.2752969,25.5827522 C14.4194661,25.5827522 13.4019887,24.2152838 13.4019887,22.6864042" id="Fill-19" fill="#FEFEFE"></path>
                        <path d="M58.4045216,17.5556811 C59.0131436,17.5556811 59.3872397,17.1645383 59.3872397,16.6470099 C59.3872397,16.1288156 59.0144754,15.7375396 58.4045216,15.7375396 L52.7155711,15.7375396 C52.186323,15.7375396 51.8143578,16.1125679 51.8143578,16.6368884 L51.8143578,26.3713771 C51.8143578,26.8795831 52.1935146,27.2669969 52.7155711,27.2669969 L59.3261111,27.2669969 L59.3261111,25.454582 L53.6696559,25.454582 L53.6696559,22.1080935 L57.9353367,22.1080935 C58.5821807,22.1080935 58.9396295,21.7236095 58.9396295,21.2018194 C58.9396295,20.6804288 58.5855101,20.2956785 57.9353367,20.2956785 L53.6696559,20.2956785 L53.6696559,17.5556811 L58.4045216,17.5556811 Z" id="Fill-21" fill="#FEFEFE"></path>
                        <path d="M5.33199447,25.4880762 L2.42525862,25.4880762 L2.42525862,22.040639 L5.33199447,22.0413049 C6.66789968,22.0413049 7.30475531,22.817198 7.30475531,23.7642244 C7.30475531,24.7120499 6.62807956,25.4880762 5.33199447,25.4880762 L5.33199447,25.4880762 Z M2.42525862,17.5398996 L5.21266727,17.5398996 C6.26024283,17.5398996 6.76911471,18.1649024 6.76911471,18.9417277 C6.76911471,19.7126933 6.21056756,20.3444881 5.21266727,20.3444881 L2.42525862,20.3444881 L2.42525862,17.5398996 Z M7.48694236,21.0254256 C7.79498232,20.8289885 8.65011614,20.1564413 8.65011614,18.6621878 C8.65011614,16.8946538 7.38559415,15.7378725 5.44812539,15.7378725 L1.46531396,15.7378725 C0.927675704,15.7378725 0.567296926,16.1050433 0.567296926,16.6361559 L0.567296926,27.2662644 L5.6813195,27.2662644 C7.7532977,27.2662644 9.18522402,25.7580273 9.18522402,23.8285492 C9.18522402,21.773085 7.81495897,21.1772481 7.48694236,21.0254256 L7.48694236,21.0254256 Z" id="Fill-23" fill="#FEFEFE"></path>
                        <path d="M40.0062395,15.6761047 C39.4442297,15.6761047 39.0810542,16.0760372 39.0810542,16.5674628 L39.0810542,26.4306012 C39.0810542,26.9276202 39.5178769,27.3258215 40.0144965,27.3258215 C40.5001954,27.3258215 40.9366187,26.9276202 40.9366187,26.4306012 L40.9366187,19.3141191 C40.9366187,19.3141191 45.4577343,25.0962941 46.6596627,26.623842 C46.9593125,27.0043306 47.171065,27.3258215 47.7071051,27.3258215 C48.2460752,27.3258215 48.6076525,26.9356109 48.6076525,26.4299353 L48.6076525,15.7365674 L46.7527539,15.7365674 L46.7527539,23.717772 C46.7527539,23.717772 41.7113132,17.2510638 41.0078687,16.355444 C40.687976,15.9449904 40.4336066,15.6761047 40.0062395,15.6761047" id="Fill-25" fill="#FEFEFE"></path>
                        <path d="M23.1684933,25.6178711 C23.4048836,25.9255115 24.4913471,27.3358631 26.8896106,27.3358631 C29.2381988,27.3358631 30.8399267,25.9822452 30.8399267,24.0963162 C30.8399267,22.857098 30.3510314,21.8568005 28.5161095,20.9738325 C28.0252166,20.7354445 26.6426992,20.0727524 26.6426992,20.0727524 C25.9063598,19.7167685 25.5835372,19.2939294 25.5835372,18.7240621 C25.5835372,18.1173047 26.0828203,17.466199 27.2948702,17.466199 C27.9849969,17.466199 28.5197053,17.688073 28.8056377,17.8179213 C28.9457406,17.8818466 29.2778858,18.0411271 29.5896547,18.0411271 C29.9973115,18.0411271 30.4399941,17.7511993 30.4399941,17.1621544 C30.4399941,16.6689975 30.0862742,16.4011772 29.7781011,16.2553477 C29.2812152,16.0206886 28.5075861,15.682151 27.2089706,15.682151 C25.1563032,15.682151 23.6339492,16.98343 23.6339492,18.7803963 C23.6339492,20.4339303 24.7410552,21.2533725 26.0858833,21.8980856 C26.3406522,22.0224735 27.3308282,22.5011141 27.602777,22.6325604 C28.4481889,23.0419486 28.8930023,23.4322924 28.8930023,24.1433279 C28.8930023,24.9148262 28.1771723,25.5554108 27.0880453,25.5554108 C25.5288011,25.5554108 24.6984384,24.5324731 24.5459499,24.3601412 L23.1684933,25.6178711 Z" id="Fill-27" fill="#FEFEFE"></path>
                        <path d="M61.2199908,25.6178711 C61.4571803,25.9255115 62.5499031,27.3358631 64.9476338,27.3358631 C67.2928926,27.3358631 68.8919569,25.9822452 68.8919569,24.0963162 C68.8919569,22.857098 68.4121178,21.8568005 66.567607,20.9738325 C66.0791113,20.7354445 64.6971266,20.0727524 64.6971266,20.0727524 C63.9586565,19.7167685 63.635967,19.2939294 63.635967,18.7240621 C63.635967,18.1173047 64.1343178,17.466199 65.3528935,17.466199 C66.040623,17.466199 66.5716024,17.688073 66.8600652,17.8179213 C67.0012335,17.8818466 67.3324464,18.0411271 67.648477,18.0411271 C68.0557343,18.0411271 68.5008141,17.7511993 68.5008141,17.1621544 C68.5008141,16.6689975 68.1473606,16.4011772 67.8365239,16.2553477 C67.3360422,16.0206886 66.5598827,15.682151 65.2679261,15.682151 C63.2181886,15.682151 61.6894421,16.98343 61.6894421,18.7803963 C61.6894421,20.4339303 62.7996112,21.2533725 64.1379136,21.8980856 C64.3960119,22.0224735 65.3893842,22.5011141 65.6639965,22.6325604 C66.5004855,23.0419486 66.9479625,23.4322924 66.9479625,24.1433279 C66.9479625,24.9148262 66.2284035,25.5554108 65.1460686,25.5554108 C63.5802987,25.5554108 62.7561953,24.5324731 62.6047723,24.3601412 L61.2199908,25.6178711 Z" id="Fill-29" fill="#FEFEFE"></path>
                        <path d="M70.6540174,25.6178711 C70.8912068,25.9255115 71.9704787,27.3358631 74.3684758,27.3358631 C76.7146668,27.3358631 78.3255839,25.9822452 78.3255839,24.0963162 C78.3255839,22.857098 77.8333593,21.8568005 76.0021663,20.9738325 C75.507944,20.7354445 74.119034,20.0727524 74.119034,20.0727524 C73.3924167,19.7167685 73.0694608,19.2939294 73.0694608,18.7240621 C73.0694608,18.1173047 73.5683444,17.466199 74.7744013,17.466199 C75.4674579,17.466199 76.0057621,17.688073 76.2924936,17.8179213 C76.4287344,17.8818466 76.7536879,18.0411271 77.0691858,18.0411271 C77.4767095,18.0411271 77.9228547,17.7511993 77.9228547,17.1621544 C77.9228547,16.6689975 77.5680694,16.4011772 77.2577654,16.2553477 C76.7572837,16.0206886 75.9939093,15.682151 74.6886349,15.682151 C72.6396965,15.682151 71.121471,16.98343 71.121471,18.7803963 C71.121471,20.4339303 72.2201868,21.2533725 73.5719402,21.8980856 C73.8245782,22.0224735 74.8106257,22.5011141 75.085238,22.6325604 C75.934512,23.0419486 76.3770614,23.4322924 76.3770614,24.1433279 C76.3770614,24.9148262 75.6629628,25.5554108 74.567976,25.5554108 C73.0135262,25.5554108 72.1773036,24.5324731 72.0261469,24.3601412 L70.6540174,25.6178711 Z" id="Fill-31" fill="#FEFEFE"></path>
                    </g>
                </g>
                <g id="L0">
                    <rect id="Rectangle-2" fill="#000000" x="0" y="0" width="1280" height="20"></rect>
                    <rect id="Rectangle-2-Copy" fill="#3B3B3B" x="0" y="19.2" width="1280" height="1"></rect>
                    <text id="XFINITY" font-family="XFINITYStandard-Medium, XFINITY Standard" font-size="8.8" font-weight="400" letter-spacing="0.4" fill="#A9AFB0">
                        <tspan x="85.6" y="13">XFINIT</tspan>
                        <tspan x="115.7112" y="13">Y</tspan>
                    </text>
                    <text id="ENTERPRISE" font-family="XFINITYStandard-Medium, XFINITY Standard" font-size="8.8" font-weight="400" letter-spacing="0.4" fill="#A9AFB0">
                        <tspan x="248.8" y="13">ENTERPRIS</tspan>
                        <tspan x="300.4568" y="13">E</tspan>
                    </text>
                    <text id="SMALL-BUSINESS" font-family="XFINITYStandard-Medium, XFINITY Standard" font-size="8.8" font-weight="400" letter-spacing="0.4" fill="#FFFFFF">
                        <tspan x="144.8" y="13">SMALL BUSINES</tspan>
                        <tspan x="217.6808" y="13">S</tspan>
                    </text>
                </g>
            </g>
        </g>
        <g id="Browser" transform="translate(0, -0)" fill-rule="nonzero">
            <polygon id="Icon-new-tab" fill="#5F6368" points="340 25 340 20 342 20 342 25 347 25 347 27 342 27 342 32 340 32 340 27 335 27 335 25"></polygon>
            <g id="Tab" transform="translate(0, 9)">
                <path d="M0,34 L71,34 C75.418278,34 79,30.418278 79,26 L79,8 C79,3.581722 82.581722,8.8817842e-16 87,0 L311,0 C315.418278,0 319,3.581722 319,8 L319,26 C319,30.418278 322.581722,34 327,34 L1280,34 L1280,34 L1280,70 L0,70 L0,34 Z" id="Tab-background" fill="#FFFFFF"></path>
                <path d="M1258.5,59 C1257.67157,59 1257,58.3284271 1257,57.5 C1257,56.6715729 1257.67157,56 1258.5,56 C1259.32843,56 1260,56.6715729 1260,57.5 C1260,58.3284271 1259.32843,59 1258.5,59 Z M1258.5,49 C1257.67157,49 1257,48.3284271 1257,47.5 C1257,46.6715729 1257.67157,46 1258.5,46 C1259.32843,46 1260,46.6715729 1260,47.5 C1260,48.3284271 1259.32843,49 1258.5,49 Z M1258.5,54 C1257.67157,54 1257,53.3284271 1257,52.5 C1257,51.6715729 1257.67157,51 1258.5,51 C1259.32843,51 1260,51.6715729 1260,52.5 C1260,53.3284271 1259.32843,54 1258.5,54 Z" id="Icon-more" fill="#5F6368"></path>
                <circle id="User-picture" fill="#DEE1E6" cx="1225" cy="52" r="10"></circle>
                <g id="Url" transform="translate(110, 38)">
                    <rect id="Url-background" fill="#F1F3F4" x="0" y="0" width="1093" height="28" rx="14"></rect>
                    <path d="M1072.02464,13.3918378 L1069.47729,13.3918378 L1071.41688,15.4007085 L1070.73753,18.2151894 L1073.5,16.7846212 L1076.26247,18.2151894 L1075.58312,15.4007085 L1077.52271,13.3918378 L1074.97536,13.3918378 L1073.5,10.3357252 L1072.02464,13.3918378 Z M1073.5,7 L1075.86554,11.9000562 L1081,11.9000562 L1077.17824,15.8583121 L1078.41934,21 L1073.5,18.4524838 L1068.58066,21 L1069.82176,15.8583121 L1066,11.9000562 L1071.13446,11.9000562 L1073.5,7 Z" id="Icon-favorites" fill="#5F6368"></path>
                    <path d="M16,12 L20,12 L20,11 C20,9.8954305 19.1045695,9 18,9 C16.8954305,9 16,9.8954305 16,11 L16,12 Z M21,12 C21.5522847,12 22,12.4477153 22,13 L22,18 C22,18.5522847 21.5522847,19 21,19 L15,19 C14.4477153,19 14,18.5522847 14,18 L14,13 C14,12.4477153 14.4477153,12 15,12 L15,11 C15,9.34314575 16.3431458,8 18,8 C19.6568542,8 21,9.34314575 21,11 L21,12 Z" id="Icon-lock" fill="#5F6368"></path>
                </g>
                <g id="Icon-refresh" transform="translate(78, 43)">
                    <rect id="Background" x="0" y="0" width="18" height="18"></rect>
                    <path d="M13.9497475,4.05025253 L16,2 L16,8 L10,8 L12.5355339,5.46446609 C11.6307119,4.55964406 10.3807119,4 9,4 C6.23857625,4 4,6.23857625 4,9 C4,11.7614237 6.23857625,14 9,14 C11.4189579,14 13.4367116,12.2822403 13.8999819,10 L15.9291111,10 C15.4438815,13.3922941 12.5264719,16 9,16 C5.13400675,16 2,12.8659932 2,9 C2,5.13400675 5.13400675,2 9,2 C10.9329966,2 12.6829966,2.78350169 13.9497475,4.05025253 L13.9497475,4.05025253 Z" id="Refresh" fill="#5F6368"></path>
                </g>
                <g id="Icon-forward" transform="translate(46, 43)">
                    <rect id="Background" x="0" y="0" width="18" height="18"></rect>
                    <polygon id="Forward" fill="#BABCBE" points="12.3809524 8 8 3.4 9.33333333 2 16 9 9.33333333 16 8 14.6 12.3809524 10 2 10 2 8"></polygon>
                </g>
                <g id="Icon-back" transform="translate(14, 43)">
                    <rect id="Background" x="0" y="0" width="18" height="18"></rect>
                    <polygon id="Back" fill="#5F6368" points="5.61904762 8 16 8 16 10 5.61904762 10 10 14.6 8.66666667 16 2 9 8.66666667 2 10 3.4"></polygon>
                </g>
                <g id="Current-tab" transform="translate(299, 13)" fill="#5F6368" fill-opacity="0.8">
                    <polygon id="Close-tab" points="2.66666667 4 0 1.33333333 1.33333333 0 4 2.66666667 6.66666667 0 8 1.33333333 5.33333333 4 8 6.66666667 6.66666667 8 4 5.33333333 1.33333333 8 0 6.66666667"></polygon>
                </g>
            </g>
            <g id="Window-controls" transform="translate(14, 16)">
                <circle id="Close" fill="#FF5F57" cx="6" cy="6" r="6"></circle>
                <circle id="Minimize" fill="#FFBD2E" cx="26" cy="6" r="6"></circle>
                <circle id="Maximize" fill="#27C940" cx="46" cy="6" r="6"></circle>
            </g>
            <path d="M1272,0.5 C1274.07107,0.5 1275.94607,1.33946609 1277.3033,2.69669914 C1278.66053,4.05393219 1279.5,5.92893219 1279.5,8 L1279.5,78.5 L0.5,78.5 L0.5,8 C0.5,5.92893219 1.33946609,4.05393219 2.69669914,2.69669914 C4.05393219,1.33946609 5.92893219,0.5 8,0.5 Z" id="Window-border" stroke="#DEE1E6"></path>
        </g>
    </g>
</svg>