<?xml version="1.0" encoding="UTF-8"?>
<svg width="278px" height="547px" viewBox="0 0 278 547" version="1.1" xmlns="http://www.w3.org/2000/svg" xmlns:xlink="http://www.w3.org/1999/xlink">
    <!-- Generator: Sketch 51.3 (57544) - http://www.bohemiancoding.com/sketch -->
    <title>Group 8</title>
    <desc>Created with Sketch.</desc>
    <defs></defs>
    <g id="Page-1" stroke="none" stroke-width="1" fill="none" fill-rule="evenodd">
        <g id="target" transform="translate(-246.000000, -4316.000000)">
            <g id="Group-13" transform="translate(248.000000, 4269.000000)">
                <g id="Group-9">
                    <g id="Group-8" transform="translate(0.000000, 49.000000)">
                        <g id="Group-5">
                            <path d="M2.7804878,220.519164 L1.3902439,220.477657 C0.622433397,220.454733 -1.85217695e-15,219.803799 -1.85217695e-15,219.050391 L-1.85217695e-15,181.564295 C-1.85217695e-15,180.798962 0.617080363,180.167785 1.3902439,180.154314 L2.7804878,180.13009 L2.7804878,156.41135 L2.07885333,156.410675 C0.930734338,156.40957 -6.46097053e-16,155.473267 -6.81179551e-16,154.330027 L-1.78838971e-15,118.249155 C-1.82361843e-15,117.10115 0.941346331,116.168801 2.07885333,116.166739 L2.7804878,116.165467 L2.7804878,92.6955648 L2.07885333,92.6955654 C0.930734338,92.6955664 -2.46956926e-15,91.7536692 -2.46956926e-15,90.6056804 L-2.46956926e-15,75.2569981 C-2.46956926e-15,74.1027854 0.936973934,73.1671112 2.0881993,73.1671112 L3.2394181,73.1671112 L3.04212695,41.7130462 C2.89762764,18.6755669 21.4566983,0 44.4816422,0 L230.091529,0 C253.12244,0 271.792683,18.6722829 271.792683,41.7002765 L271.792683,116.016629 L272.494317,116.016629 C273.642436,116.016629 274.573171,116.959406 274.573171,118.096457 L274.573171,153.661256 C274.573171,154.809914 273.631824,155.741085 272.494317,155.741085 L271.792683,155.741085 L271.792683,501.780599 C271.792683,524.812101 253.116472,543.482822 230.091529,543.482822 L44.4816422,543.482822 C21.4507306,543.482822 2.7804878,524.811596 2.7804878,501.777857 L2.7804878,220.519164 Z" id="iPhone6-outline" stroke="#AAAAAA" stroke-width="2.08536585" fill="#FFFFFF"></path>
                            <ellipse id="home-button" stroke="#BFBFBF" stroke-width="2.08536585" cx="136.939024" cy="510.123263" rx="20.8536585" ry="20.8497246"></ellipse>
                            <ellipse id="camera" stroke="#BFBFBF" stroke-width="1.3902439" cx="95.2317073" cy="36.8345135" rx="4.17073171" ry="4.16994493"></ellipse>
                            <rect id="speaker" stroke="#BFBFBF" stroke-width="1.3902439" x="117.47561" y="33.3596905" width="50.0487805" height="6.94964595" rx="3.47482297"></rect>
                            <rect id="content" stroke="#BFBFBF" stroke-width="2.7804878" x="21.5487805" y="66.0243902" width="231.47561" height="410.739051" rx="2.7804878"></rect>
                        </g>
                        <g id="Group-4" transform="translate(23.170732, 111.292683)">
                            <g id="Tab-Bar-3" transform="translate(0.000000, 332.000000)">
                                <rect id="Background" opacity="0.95" x="0" y="0" width="227.570384" height="29.7152515"></rect>
                                <g id="Scanner" transform="translate(25.487883, 4.245036)" fill="#4A90E2">
                                    <g id="noun_138360_cc" transform="translate(3.641126, 0.000000)">
                                        <path d="M0.682711152,4.0934275 L0,4.0934275 L0,1.1002792 C0,0.493599133 0.494112196,0 1.10104241,0 L4.08824505,0 L4.08824505,0.682237917 L1.10104241,0.682237917 C0.870456719,0.682237917 0.682711152,0.869853344 0.682711152,1.1002792 L0.682711152,4.0934275 L0.682711152,4.0934275 Z" id="Shape"></path>
                                        <path d="M16.3850676,4.0934275 L15.7023565,4.0934275 L15.7023565,1.1002792 C15.7023565,0.869853344 15.5146109,0.682237917 15.2840252,0.682237917 L12.2888007,0.682237917 L12.2888007,0 L15.2840252,0 C15.8909554,0 16.3850676,0.493599133 16.3850676,1.1002792 L16.3850676,4.0934275 L16.3850676,4.0934275 Z" id="Shape"></path>
                                        <path d="M15.2840252,16.37371 L12.2888007,16.37371 L12.2888007,15.6914721 L15.2840252,15.6914721 C15.5146109,15.6914721 15.7023565,15.5038567 15.7023565,15.2734308 L15.7023565,12.2802825 L16.3850676,12.2802825 L16.3850676,15.2734308 C16.3850676,15.8799403 15.8909554,16.37371 15.2840252,16.37371 L15.2840252,16.37371 Z" id="Shape"></path>
                                        <path d="M4.08824505,16.37371 L1.10104241,16.37371 C0.494112196,16.37371 0,15.8799403 0,15.2734308 L0,12.2802825 L0.682711152,12.2802825 L0.682711152,15.2734308 C0.682711152,15.5038567 0.870456719,15.6914721 1.10104241,15.6914721 L4.08824505,15.6914721 L4.08824505,16.37371 L4.08824505,16.37371 Z" id="Shape"></path>
                                        <path d="M6.48575594,2.72895167 L2.73084461,2.72895167 L2.73084461,6.48126021 L6.48575594,6.48126021 L6.48575594,2.72895167 L6.48575594,2.72895167 Z M6.14440037,6.14014125 L3.07220018,6.14014125 L3.07220018,3.07007063 L6.14440037,3.07007063 L6.14440037,6.14014125 L6.14440037,6.14014125 Z" id="Shape"></path>
                                        <rect id="Rectangle-path" x="3.75491134" y="3.75230854" width="1.70677788" height="1.70559479"></rect>
                                        <path d="M2.73084461,13.6447583 L6.48575594,13.6447583 L6.48575594,9.8924498 L2.73084461,9.8924498 L2.73084461,13.6447583 L2.73084461,13.6447583 Z M3.07220018,10.2335688 L6.14440037,10.2335688 L6.14440037,13.3036394 L3.07220018,13.3036394 L3.07220018,10.2335688 L3.07220018,10.2335688 Z" id="Shape"></path>
                                        <rect id="Rectangle-path" x="3.75491134" y="10.9158067" width="1.70677788" height="1.70559479"></rect>
                                        <path d="M9.8993117,2.72895167 L9.8993117,6.48126021 L13.654223,6.48126021 L13.654223,2.72895167 L9.8993117,2.72895167 L9.8993117,2.72895167 Z M13.3128675,6.14014125 L10.2406673,6.14014125 L10.2406673,3.07007063 L13.3128675,3.07007063 L13.3128675,6.14014125 L13.3128675,6.14014125 Z" id="Shape"></path>
                                        <rect id="Rectangle-path" x="10.9233784" y="3.75230854" width="1.70677788" height="1.70559479"></rect>
                                        <rect id="Rectangle-path" x="8.5338894" y="2.72895167" width="1.02406673" height="1"></rect>
                                        <rect id="Rectangle-path" x="8.19253382" y="3.41118959" width="1" height="1"></rect>
                                        <rect id="Rectangle-path" x="6.82711152" y="2.72895167" width="1" height="1.02335688"></rect>
                                        <rect id="Rectangle-path" x="7.50982267" y="3.75230854" width="1" height="1"></rect>
                                        <polygon id="Shape" points="9.21660055 5.79902229 9.21660055 4.77566542 9.55795613 4.77566542 9.55795613 3.75230854 9.21660055 3.75230854 9.21660055 4.0934275 8.5338894 4.0934275 8.5338894 4.77566542 6.82711152 4.77566542 6.82711152 7.50461709 6.48575594 7.50461709 6.48575594 8.186855 5.80304479 8.186855 5.80304479 8.52797396 6.48575594 8.52797396 6.48575594 9.21021188 5.80304479 9.21021188 5.80304479 9.55133084 6.82711152 9.55133084 6.82711152 9.21021188 7.85117825 9.21021188 7.85117825 8.86909292 6.82711152 8.86909292 6.82711152 8.186855 7.50982267 8.186855 7.50982267 5.79902229 7.85117825 5.79902229 7.85117825 5.11678438 8.5338894 5.11678438 8.5338894 5.79902229 8.87524497 5.79902229 8.87524497 6.14014125 8.5338894 6.14014125 8.5338894 6.48126021 8.87524497 6.48126021 8.87524497 6.82237917 9.55795613 6.82237917 9.55795613 5.79902229"></polygon>
                                        <polygon id="Rectangle-path" points="8.19253382 5.79902229 8.53377169 5.79902229 8.53377169 6.14026016 8.19253382 6.14026016"></polygon>
                                        <rect id="Rectangle-path" x="6.82711152" y="9.8924498" width="1.02406673" height="1"></rect>
                                        <rect id="Rectangle-path" x="7.85117825" y="10.2335688" width="1" height="1"></rect>
                                        <rect id="Rectangle-path" x="6.82711152" y="10.9158067" width="1" height="1"></rect>
                                        <rect id="Rectangle-path" x="7.50982267" y="11.5980446" width="1.02406673" height="1"></rect>
                                        <rect id="Rectangle-path" x="6.82711152" y="12.2802825" width="1" height="1.36447583"></rect>
                                        <polygon id="Shape" points="11.6060896 11.5980446 11.6060896 10.2335688 12.2888007 10.2335688 12.2888007 9.55133084 11.264734 9.55133084 11.264734 10.9158067 10.5820229 10.9158067 10.5820229 11.5980446"></polygon>
                                        <rect id="Rectangle-path" x="10.2406673" y="12.6214015" width="1" height="1"></rect>
                                        <polygon id="Shape" points="11.9474452 11.9391635 11.6060896 11.9391635 11.6060896 12.9625204 10.9233784 12.9625204 10.9233784 13.6447583 12.6301563 13.6447583 12.6301563 12.2802825 12.9715119 12.2802825 12.9715119 11.9391635 12.6301563 11.9391635 12.6301563 11.5980446 11.9474452 11.5980446"></polygon>
                                        <rect id="Rectangle-path" x="12.9715119" y="12.9625204" width="1" height="1"></rect>
                                        <rect id="Rectangle-path" x="7.85117825" y="6.82237917" width="1" height="1"></rect>
                                        <rect id="Rectangle-path" x="8.19253382" y="7.84573605" width="1" height="1"></rect>
                                        <polygon id="Shape" points="12.6301563 7.84573605 13.3128675 7.84573605 13.3128675 8.86909292 11.9474452 8.86909292 11.9474452 7.84573605 12.2888007 7.84573605 12.2888007 7.50461709 11.9474452 7.50461709 11.9474452 6.82237917 9.55795613 6.82237917 9.55795613 7.50461709 9.21660055 7.50461709 9.21660055 8.86909292 8.5338894 8.86909292 8.5338894 9.21021188 7.85117825 9.21021188 7.85117825 9.8924498 9.21660055 9.8924498 9.21660055 11.5980446 9.8993117 11.5980446 9.8993117 11.9391635 9.21660055 11.9391635 9.21660055 12.6214015 7.85117825 12.6214015 7.85117825 12.9625204 9.55795613 12.9625204 9.55795613 13.6447583 10.2406673 13.6447583 10.2406673 12.9625204 9.8993117 12.9625204 9.8993117 12.6214015 10.2406673 12.6214015 10.2406673 10.5746877 9.8993117 10.5746877 9.8993117 10.9158067 9.55795613 10.9158067 9.55795613 9.21021188 10.2406673 9.21021188 10.2406673 8.52797396 9.55795613 8.52797396 9.55795613 8.186855 10.2406673 8.186855 10.2406673 8.52797396 10.9233784 8.52797396 10.9233784 7.50461709 11.264734 7.50461709 11.264734 7.84573605 11.6060896 7.84573605 11.6060896 8.86909292 10.9233784 8.86909292 10.9233784 9.21021188 13.3128675 9.21021188 13.3128675 9.8924498 12.6301563 9.8924498 12.6301563 10.5746877 13.3128675 10.5746877 13.3128675 10.9158067 12.6301563 10.9158067 12.6301563 11.5980446 13.654223 11.5980446 13.654223 6.82237917 12.6301563 6.82237917"></polygon>
                                        <rect id="Rectangle-path" x="2.73084461" y="6.82237917" width="1.3654223" height="1"></rect>
                                        <polygon id="Shape" points="4.43762249 7.84573605 2.73084461 7.84573605 2.73084461 8.52797396 4.09626691 8.52797396 4.09626691 9.55133084 4.77897806 9.55133084 4.77897806 7.50461709 4.43762249 7.50461709"></polygon>
                                        <rect id="Rectangle-path" x="4.77897806" y="6.82237917" width="1.70677788" height="1"></rect>
                                    </g>
                                    <text font-family="HelveticaNeue-Medium, Helvetica Neue" font-size="6.09756098" font-weight="400" letter-spacing="0.0609756107">
                                        <tspan x="0.303184437" y="23.3203984">Scanne</tspan>
                                        <tspan x="21.7909893" y="23.3203984">r</tspan>
                                    </text>
                                </g>
                                <g id="Camera" transform="translate(102.439024, 6.097561)" fill="#9B9B9B">
                                    <text font-family="HelveticaNeue-Medium, Helvetica Neue" font-size="6.09756098" font-weight="400" letter-spacing="0.121951221">
                                        <tspan x="0" y="21.5010973">Camer</tspan>
                                        <tspan x="19.2439024" y="21.5010973">a</tspan>
                                    </text>
                                    <g id="noun_476_cc" transform="translate(3.034272, 0.000000)">
                                        <path d="M8.19253418,5.23958743 C7.01805248,5.23958743 6.0624753,6.19450224 6.0624753,7.36816983 C6.0624753,8.54183741 7.01805248,9.49675222 8.19253418,9.49675222 C9.36701588,9.49675222 10.3225931,8.54183741 10.3225931,7.36816983 C10.3225931,6.19450224 9.36701588,5.23958743 8.19253418,5.23958743 L8.19253418,5.23958743 Z" id="Shape"></path>
                                        <path d="M14.2550095,2.12858239 L11.7972492,2.12858239 C11.7972492,0.952949965 10.8436382,-1.13686838e-13 9.66719034,-1.13686838e-13 L6.71787803,-1.13686838e-13 C5.54143012,-1.13686838e-13 4.58781914,0.952949965 4.58781914,2.12858239 L2.13005889,2.12858239 C0.953610979,2.12858239 0,3.08153236 0,4.25716479 L0,10.4791749 C0,11.6548073 0.953610979,12.6077573 2.13005889,12.6077573 L14.2550095,12.6077573 C15.4314574,12.6077573 16.3850684,11.6548073 16.3850684,10.4791749 L16.3850684,4.25716479 C16.3850684,3.08153236 15.4314574,2.12858239 14.2550095,2.12858239 L14.2550095,2.12858239 Z M8.19253418,11.1341233 C6.11441596,11.1341233 4.42396846,9.44468382 4.42396846,7.36816983 C4.42396846,5.29165583 6.11441596,3.60221636 8.19253418,3.60221636 C10.2706524,3.60221636 11.9610999,5.29165583 11.9610999,7.36816983 C11.9610999,9.44468382 10.2706524,11.1341233 8.19253418,11.1341233 L8.19253418,11.1341233 Z" id="Shape"></path>
                                    </g>
                                </g>
                                <g id="Counter" transform="translate(177.368097, 4.245036)" fill="#9B9B9B">
                                    <text id="Upload" font-family="HelveticaNeue-Medium, Helvetica Neue" font-size="6.09756098" font-weight="400" letter-spacing="0.243902443">
                                        <tspan x="1.07926828" y="23.3203984">Upload</tspan>
                                    </text>
                                    <g id="noun_94593_cc" transform="translate(4.297966, 0.000000)">
                                        <path d="M0.108372575,0.0258150909 L0.108372575,16.3447303 L14.383309,16.3447303 L14.383309,0.0258150909 L0.108372575,0.0258150909 L0.108372575,0.0258150909 Z M13.4120513,0.996399544 L13.4120513,2.93379063 L13.0141601,2.93379063 L13.0141601,1.42958936 L12.0060431,1.42958936 L12.0060431,2.93379063 L11.5851543,2.93379063 L11.5851543,1.42958936 L10.5767223,1.42958936 L10.5767223,2.93379063 L10.1558334,2.93379063 L10.1558334,1.42958936 L9.14740142,1.42958936 L9.14740142,2.93379063 L8.78542442,2.93379063 L8.78542442,1.42958936 L7.7769924,1.42958936 L7.7769924,2.93379063 L3.09208379,2.93379063 L3.09208379,1.42958936 L2.08365178,1.42958936 L2.08365178,2.93379063 L1.07963027,2.93379063 L1.07963027,0.996399544 L13.4120513,0.996399544 L13.4120513,0.996399544 Z M12.0028928,11.8359043 L12.0028928,13.3401056 L11.6680089,13.3401056 L11.6680089,11.8359043 L10.6595769,11.8359043 L10.6595769,13.3401056 L10.3250081,13.3401056 L10.3250081,11.8359043 L9.31657605,11.8359043 L9.31657605,13.3401056 L4.52140464,13.3401056 L4.52140464,11.8359043 L3.51297263,11.8359043 L3.51297263,13.3401056 L3.09208379,13.3401056 L3.09208379,11.8359043 L2.08365178,11.8359043 L2.08365178,13.3401056 L1.07963027,13.3401056 L1.07963027,9.9684029 L2.08365178,9.9684029 L2.08365178,11.4726042 L3.09208379,11.4726042 L3.09208379,9.9684029 L3.51297263,9.9684029 L3.51297263,11.4726042 L4.52140464,11.4726042 L4.52140464,9.9684029 L4.94229348,9.9684029 L4.94229348,11.4726042 L5.95072549,11.4726042 L5.95072549,9.9684029 L10.5767223,9.9684029 L10.5767223,11.4726042 L11.5851543,11.4726042 L11.5851543,9.9684029 L12.0028928,9.9684029 L12.0028928,11.4726042 L13.0113248,11.4726042 L13.0113248,9.9684029 L13.4120513,9.9684029 L13.4120513,13.3401056 L13.0113248,13.3401056 L13.0113248,11.8359043 L12.0028928,11.8359043 L12.0028928,11.8359043 Z M13.0113248,9.8714389 L13.0113248,8.36723762 L12.0028928,8.36723762 L12.0028928,9.8714389 L11.5851543,9.8714389 L11.5851543,8.36723762 L10.5767223,8.36723762 L10.5767223,9.8714389 L5.95072549,9.8714389 L5.95072549,8.36723762 L4.94229348,8.36723762 L4.94229348,9.8714389 L4.52140464,9.8714389 L4.52140464,8.36723762 L3.51297263,8.36723762 L3.51297263,9.8714389 L3.09208379,9.8714389 L3.09208379,8.36723762 L2.08365178,8.36723762 L2.08365178,9.8714389 L1.07963027,9.8714389 L1.07963027,6.49942135 L2.08365178,6.49942135 L2.08365178,8.00362263 L3.09208379,8.00362263 L3.09208379,6.49942135 L3.51297263,6.49942135 L3.51297263,8.00362263 L4.52140464,8.00362263 L4.52140464,6.49942135 L4.94229348,6.49942135 L4.94229348,8.00362263 L5.95072549,8.00362263 L5.95072549,6.49942135 L12.0028928,6.49942135 L12.0028928,8.00362263 L13.0113248,8.00362263 L13.0113248,6.49942135 L13.4120513,6.49942135 L13.4120513,9.8714389 L13.0113248,9.8714389 L13.0113248,9.8714389 Z M13.0113248,6.40245735 L13.0113248,4.89825608 L12.0028928,4.89825608 L12.0028928,6.40245735 L5.95072549,6.40245735 L5.95072549,4.89825608 L4.94229348,4.89825608 L4.94229348,6.40245735 L4.52140464,6.40245735 L4.52140464,4.89825608 L3.51297263,4.89825608 L3.51297263,6.40245735 L3.09208379,6.40245735 L3.09208379,4.89825608 L2.08365178,4.89825608 L2.08365178,6.40245735 L1.07963027,6.40245735 L1.07963027,3.03075463 L2.08365178,3.03075463 L2.08365178,4.5349559 L3.09208379,4.5349559 L3.09208379,3.03075463 L7.7769924,3.03075463 L7.7769924,4.5349559 L8.78542442,4.5349559 L8.78542442,3.03075463 L9.14740142,3.03075463 L9.14740142,4.5349559 L10.1558334,4.5349559 L10.1558334,3.03075463 L10.5767223,3.03075463 L10.5767223,4.5349559 L11.5851543,4.5349559 L11.5851543,3.03075463 L12.0060431,3.03075463 L12.0060431,4.5349559 L13.0141601,4.5349559 L13.0141601,3.03075463 L13.4120513,3.03075463 L13.4120513,6.40245735 L13.0113248,6.40245735 L13.0113248,6.40245735 Z M1.07963027,15.3744607 L1.07963027,13.4367548 L2.08365178,13.4367548 L2.08365178,14.9409561 L3.09208379,14.9409561 L3.09208379,13.4367548 L3.51297263,13.4367548 L3.51297263,14.9409561 L4.52140464,14.9409561 L4.52140464,13.4367548 L9.31657605,13.4367548 L9.31657605,14.9409561 L10.3250081,14.9409561 L10.3250081,13.4367548 L10.6595769,13.4367548 L10.6595769,14.9409561 L11.6680089,14.9409561 L11.6680089,13.4367548 L12.0028928,13.4367548 L12.0028928,14.9409561 L13.0113248,14.9409561 L13.0113248,13.4367548 L13.4120513,13.4367548 L13.4120513,15.3744607 L1.07963027,15.3744607 L1.07963027,15.3744607 Z" id="Shape"></path>
                                    </g>
                                </g>
                            </g>
                            <path d="M0,0.902439024 L228.658537,0.902439024" id="Line" stroke="#9B9B9B" stroke-width="0.606645097" stroke-linecap="square"></path>
                            <path d="M0,331.996678 L227.570384,331.996678" id="Line" stroke="#9B9B9B" stroke-width="0.606645097" stroke-linecap="square"></path>
                            <g id="Segmented-Controler" transform="translate(25.219512, 8.219512)">
                                <g id="Background" transform="translate(88.609756, 9.037013) rotate(180.000000) translate(-88.609756, -9.037013) translate(0.609756, 0.537013)">
                                    <rect stroke="#9B9B9B" stroke-width="0.606645097" x="0.303322549" y="0.303322549" width="175.003111" height="16.3734986" rx="3.03322549"></rect>
                                    <path d="M170.988447,0 L87.804878,0 L87.804878,16.9801437 L170.988447,16.9801437 C173.57638,16.9801437 175.609756,15.7349332 175.609756,14.1501198 L175.609756,2.83002395 C175.609756,1.24521054 173.57638,0 170.988447,0 L170.988447,0 Z" id="Right-Tab" fill="#9B9B9B"></path>
                                </g>
                                <text id="PIN-Input" font-family="Helvetica" font-size="8.53658537" font-weight="normal" fill="#9B9B9B">
                                    <tspan x="115.57717" y="12.6585366">PIN Input</tspan>
                                </text>
                                <text id="QR-Input" font-family="Helvetica" font-size="8.53658537" font-weight="normal" fill="#FFFFFF">
                                    <tspan x="28.3440797" y="12.6585366">QR Input</tspan>
                                </text>
                            </g>
                            <path d="M0,170.414634 L228.658537,170.414634" id="Line" stroke="#9B9B9B" stroke-width="0.606645097" stroke-linecap="square"></path>
                            <path d="M0,199.682927 L228.658537,199.682927" id="Line" stroke="#9B9B9B" stroke-width="0.606645097" stroke-linecap="square"></path>
                            <path d="M0,228.95122 L228.658537,228.95122" id="Line" stroke="#9B9B9B" stroke-width="0.606645097" stroke-linecap="square"></path>
                            <path d="M0,258.219512 L228.658537,258.219512" id="Line" stroke="#9B9B9B" stroke-width="0.606645097" stroke-linecap="square"></path>
                            <path d="M0,287.487805 L228.658537,287.487805" id="Line" stroke="#9B9B9B" stroke-width="0.606645097" stroke-linecap="square"></path>
                            <text id="Tap-here-and-scan-a" font-family="HelveticaNeue-Medium, Helvetica Neue" font-size="10.9756098" font-weight="400" fill="#9B9B9B">
                                <tspan x="50.6097561" y="188.731707">Tap here and scan a user</tspan>
                            </text>
                            <text id="Tap-here-and-scan-a" font-family="HelveticaNeue-Medium, Helvetica Neue" font-size="10.9756098" font-weight="400" fill="#9B9B9B">
                                <tspan x="50.6097561" y="218">Tap here and scan a user</tspan>
                            </text>
                            <text id="Tap-here-and-scan-a-" font-family="HelveticaNeue-Medium, Helvetica Neue" font-size="10.9756098" font-weight="400" fill="#9B9B9B">
                                <tspan x="50.6097561" y="247.268293">Tap here and scan a user</tspan>
                            </text>
                            <text id="Tap-here-and-scan-a-" font-family="HelveticaNeue-Medium, Helvetica Neue" font-size="10.9756098" font-weight="400" fill="#9B9B9B">
                                <tspan x="50.6097561" y="275.317073">Tap here and scan a user</tspan>
                            </text>
                            <g id="Group-2" transform="translate(27.439024, 297.243902)">
                                <rect id="Rectangle-25" fill="#00A4FF" transform="translate(36.585366, 12.195122) scale(1, -1) translate(-36.585366, -12.195122) " x="0" y="0" width="73.1707317" height="24.3902439" rx="4.66650075"></rect>
                                <text id="Remove-" font-family="HelveticaNeue, Helvetica Neue" font-size="8.53658537" font-weight="normal" fill="#FFFFFF">
                                    <tspan x="20.852439" y="10.4390244">Remove </tspan>
                                    <tspan x="17.220122" y="20.4390244">All Guests</tspan>
                                </text>
                            </g>
                            <g id="Group-3" transform="translate(128.048780, 297.243902)">
                                <rect id="Rectangle-25" fill="#00A4FF" transform="translate(36.585366, 12.195122) scale(1, -1) translate(-36.585366, -12.195122) " x="0" y="0" width="73.1707317" height="24.3902439" rx="4.66650075"></rect>
                                <text id="Remove-" font-family="HelveticaNeue, Helvetica Neue" font-size="8.53658537" font-weight="normal" fill="#FFFFFF">
                                    <tspan x="20.802663" y="10.4390244">Remove </tspan>
                                    <tspan x="12.1892484" y="20.4390244">Single Guest</tspan>
                                </text>
                            </g>
                            <g id="noun_138360_cc" transform="translate(61.585366, 45.414634)" fill="#9B9B9B">
                                <path d="M4.3699187,26.2013376 L0,26.2013376 L0,7.04270121 C0,3.15944463 3.16272866,0 7.04758638,0 L26.1681657,0 L26.1681657,4.3668896 L7.04758638,4.3668896 C5.57164634,4.3668896 4.3699187,5.56778424 4.3699187,7.04270121 L4.3699187,26.2013376 L4.3699187,26.2013376 Z" id="Shape"></path>
                                <path d="M104.878049,26.2013376 L100.50813,26.2013376 L100.50813,7.04270121 C100.50813,5.56778424 99.3064024,4.3668896 97.8304624,4.3668896 L78.6585366,4.3668896 L78.6585366,0 L97.8304624,0 C101.71532,0 104.878049,3.15944463 104.878049,7.04270121 L104.878049,26.2013376 L104.878049,26.2013376 Z" id="Shape"></path>
                                <path d="M97.8304624,104.80535 L78.6585366,104.80535 L78.6585366,100.438461 L97.8304624,100.438461 C99.3064024,100.438461 100.50813,99.2375662 100.50813,97.7626493 L100.50813,78.6040129 L104.878049,78.6040129 L104.878049,97.7626493 C104.878049,101.644814 101.71532,104.80535 97.8304624,104.80535 L97.8304624,104.80535 Z" id="Shape"></path>
                                <path d="M26.1681657,104.80535 L7.04758638,104.80535 C3.16272866,104.80535 0,101.644814 0,97.7626493 L0,78.6040129 L4.3699187,78.6040129 L4.3699187,97.7626493 C4.3699187,99.2375662 5.57164634,100.438461 7.04758638,100.438461 L26.1681657,100.438461 L26.1681657,104.80535 L26.1681657,104.80535 Z" id="Shape"></path>
                                <path d="M41.5142276,17.4675584 L17.4796748,17.4675584 L17.4796748,41.4854512 L41.5142276,41.4854512 L41.5142276,17.4675584 L41.5142276,17.4675584 Z M39.3292683,39.3020064 L19.6646341,39.3020064 L19.6646341,19.6510032 L39.3292683,19.6510032 L39.3292683,39.3020064 L39.3292683,39.3020064 Z" id="Shape"></path>
                                <rect id="Rectangle-path" x="24.0345528" y="24.0178928" width="10.9247967" height="10.917224"></rect>
                                <path d="M17.4796748,87.3377921 L41.5142276,87.3377921 L41.5142276,63.3198992 L17.4796748,63.3198992 L17.4796748,87.3377921 L17.4796748,87.3377921 Z M19.6646341,65.5033441 L39.3292683,65.5033441 L39.3292683,85.1543473 L19.6646341,85.1543473 L19.6646341,65.5033441 L19.6646341,65.5033441 Z" id="Shape"></path>
                                <rect id="Rectangle-path" x="24.0345528" y="69.8702337" width="10.9247967" height="10.917224"></rect>
                                <rect id="Rectangle-path" x="69.9186992" y="24.0178928" width="10.9247967" height="10.917224"></rect>
                                <rect id="Rectangle-path" x="54.6239837" y="17.4675584" width="6.55487805" height="4.3668896"></rect>
                                <rect id="Rectangle-path" x="52.4390244" y="21.834448" width="2.13470528" height="2.1834448"></rect>
                                <rect id="Rectangle-path" x="43.699187" y="17.4675584" width="2.18495935" height="6.55033441"></rect>
                                <rect id="Rectangle-path" x="48.0691057" y="24.0178928" width="4.3699187" height="4.3668896"></rect>
                                <polygon id="Shape" points="58.9939024 37.1185616 58.9939024 30.5682272 61.1788618 30.5682272 61.1788618 24.0178928 58.9939024 24.0178928 58.9939024 26.2013376 54.6239837 26.2013376 54.6239837 30.5682272 43.699187 30.5682272 43.699187 48.0357856 41.5142276 48.0357856 41.5142276 52.4026752 37.1443089 52.4026752 37.1443089 54.58612 41.5142276 54.58612 41.5142276 58.9530096 37.1443089 58.9530096 37.1443089 61.1364544 43.699187 61.1364544 43.699187 58.9530096 50.254065 58.9530096 50.254065 56.7695648 43.699187 56.7695648 43.699187 52.4026752 48.0691057 52.4026752 48.0691057 37.1185616 50.254065 37.1185616 50.254065 32.751672 54.6239837 32.751672 54.6239837 37.1185616 56.8089431 37.1185616 56.8089431 39.3020064 54.6239837 39.3020064 54.6239837 41.4854512 56.8089431 41.4854512 56.8089431 43.668896 61.1788618 43.668896 61.1788618 37.1185616"></polygon>
                                <polygon id="Rectangle-path" points="52.4390244 37.1185616 54.6239837 37.1185616 54.6239837 39.3020064 52.4390244 39.3020064"></polygon>
                                <rect id="Rectangle-path" x="43.699187" y="63.3198992" width="6.55487805" height="2.1834448"></rect>
                                <rect id="Rectangle-path" x="50.254065" y="65.5033441" width="4.3699187" height="4.3668896"></rect>
                                <rect id="Rectangle-path" x="43.699187" y="69.8702337" width="4.3699187" height="4.3668896"></rect>
                                <rect id="Rectangle-path" x="48.0691057" y="74.2371233" width="6.55487805" height="4.3668896"></rect>
                                <rect id="Rectangle-path" x="43.699187" y="78.6040129" width="4.3699187" height="8.73377921"></rect>
                                <polygon id="Shape" points="74.2886179 74.2371233 74.2886179 65.5033441 78.6585366 65.5033441 78.6585366 61.1364544 72.1036585 61.1364544 72.1036585 69.8702337 67.7337398 69.8702337 67.7337398 74.2371233"></polygon>
                                <rect id="Rectangle-path" x="65.5487805" y="80.7874577" width="2.18495935" height="2.1834448"></rect>
                                <polygon id="Shape" points="76.4735772 76.4205681 74.2886179 76.4205681 74.2886179 82.9709025 69.9186992 82.9709025 69.9186992 87.3377921 80.8434959 87.3377921 80.8434959 78.6040129 83.0284553 78.6040129 83.0284553 76.4205681 80.8434959 76.4205681 80.8434959 74.2371233 76.4735772 74.2371233"></polygon>
                                <rect id="Rectangle-path" x="83.0284553" y="82.9709025" width="4.3699187" height="4.3668896"></rect>
                                <rect id="Rectangle-path" x="50.254065" y="43.668896" width="4.3699187" height="4.3668896"></rect>
                                <rect id="Rectangle-path" x="52.4390244" y="50.2192304" width="4.3699187" height="4.3668896"></rect>
                                <polygon id="Shape" points="80.8434959 50.2192304 85.2134146 50.2192304 85.2134146 56.7695648 76.4735772 56.7695648 76.4735772 50.2192304 78.6585366 50.2192304 78.6585366 48.0357856 76.4735772 48.0357856 76.4735772 43.668896 61.1788618 43.668896 61.1788618 48.0357856 58.9939024 48.0357856 58.9939024 56.7695648 54.6239837 56.7695648 54.6239837 58.9530096 50.254065 58.9530096 50.254065 63.3198992 58.9939024 63.3198992 58.9939024 74.2371233 63.3638211 74.2371233 63.3638211 76.4205681 58.9939024 76.4205681 58.9939024 80.7874577 50.254065 80.7874577 50.254065 82.9709025 61.1788618 82.9709025 61.1788618 87.3377921 65.5487805 87.3377921 65.5487805 82.9709025 63.3638211 82.9709025 63.3638211 80.7874577 65.5487805 80.7874577 65.5487805 67.6867889 63.3638211 67.6867889 63.3638211 69.8702337 61.1788618 69.8702337 61.1788618 58.9530096 65.5487805 58.9530096 65.5487805 54.58612 61.1788618 54.58612 61.1788618 52.4026752 65.5487805 52.4026752 65.5487805 54.58612 69.9186992 54.58612 69.9186992 48.0357856 72.1036585 48.0357856 72.1036585 50.2192304 74.2886179 50.2192304 74.2886179 56.7695648 69.9186992 56.7695648 69.9186992 58.9530096 85.2134146 58.9530096 85.2134146 63.3198992 80.8434959 63.3198992 80.8434959 67.6867889 85.2134146 67.6867889 85.2134146 69.8702337 80.8434959 69.8702337 80.8434959 74.2371233 87.398374 74.2371233 87.398374 43.668896 80.8434959 43.668896"></polygon>
                                <rect id="Rectangle-path" x="17.4796748" y="43.668896" width="8.7398374" height="4.3668896"></rect>
                                <polygon id="Shape" points="28.4044715 50.2192304 17.4796748 50.2192304 17.4796748 54.58612 26.2195122 54.58612 26.2195122 61.1364544 30.5894309 61.1364544 30.5894309 48.0357856 28.4044715 48.0357856"></polygon>
                                <rect id="Rectangle-path" x="30.5894309" y="43.668896" width="10.9247967" height="4.3668896"></rect>
                            </g>
                        </g>
                        <g id="Navigation-Bar" transform="translate(27.000000, 70.000000)">
                            <text id="A-Beautiful-Story" font-family="Helvetica" font-size="10.9756098" font-weight="normal" fill="#9B9B9B">
                                <tspan x="70.3902439" y="29.1219512">A Beautiful Story</tspan>
                            </text>
                            <g id="Categories" transform="translate(201.116773, 20.225180)" fill="#9B9B9B">
                                <path d="M2.42741743,0.656969846 L2.42741743,1.31393969 L12.7439415,1.31393969 L12.7439415,0.656969846 L2.42741743,0.656969846 L2.42741743,0.656969846 Z M0,1.31393969 L1.21370871,1.31393969 L1.21370871,0 L0,0 L0,1.31393969 L0,1.31393969 Z M0,4.59878892 L1.21370871,4.59878892 L1.21370871,3.28484923 L0,3.28484923 L0,4.59878892 L0,4.59878892 Z M0,7.88363815 L1.21370871,7.88363815 L1.21370871,6.56969846 L0,6.56969846 L0,7.88363815 L0,7.88363815 Z M2.42741743,4.59878892 L12.7439415,4.59878892 L12.7439415,3.94181908 L2.42741743,3.94181908 L2.42741743,4.59878892 L2.42741743,4.59878892 Z M2.42741743,7.88363815 L12.7439415,7.88363815 L12.7439415,7.22666831 L2.42741743,7.22666831 L2.42741743,7.88363815 L2.42741743,7.88363815 Z" id="Shape"></path>
                            </g>
                            <text id="100%" font-family="Helvetica" font-size="7.31707317" font-weight="normal" fill="#9B9B9B">
                                <tspan x="184.752017" y="8.82926829">100%</tspan>
                            </text>
                            <g id="battery" transform="translate(205.385065, 2.042136)" fill="#9B9B9B">
                                <path d="M13.0473687,0.667077074 C13.229425,0.667077074 13.3507959,0.788363815 13.3507959,1.0309373 L13.3507959,5.09404311 C13.3507959,5.27597323 13.229425,5.45790334 13.0473687,5.45790334 L1.21370871,5.45790334 C1.03165241,5.45790334 0.910281536,5.3366166 0.910281536,5.09404311 L0.910281536,1.0309373 C0.910281536,0.849007186 1.03165241,0.667077074 1.21370871,0.667077074 L13.0473687,0.667077074 L13.0473687,0.667077074 Z M13.0473687,0.0606433704 C13.5328522,0.0606433704 13.9576502,0.485146963 13.9576502,1.0309373 L13.9576502,5.09404311 C13.9576502,5.63983345 13.5328522,6.06433704 13.0473687,6.06433704 L1.21370871,6.06433704 C0.728225229,6.06433704 0.303427179,5.63983345 0.303427179,5.09404311 L0.303427179,1.0309373 C0.303427179,0.485146963 0.728225229,0.0606433704 1.21370871,0.0606433704 L13.0473687,0.0606433704 Z M14.2610774,1.94058785 C14.8679318,1.94058785 15.1713589,2.42573482 15.1713589,3.03216852 C15.1713589,3.63860222 14.8679318,4.12374919 14.2610774,4.12374919 L14.2610774,1.94058785 Z" id="Shape"></path>
                                <rect id="Path" x="1.21370871" y="1.21286741" width="11.5302328" height="3.63860222"></rect>
                            </g>
                            <text id="9:40-PM" font-family="Helvetica" font-size="7.31707317" font-weight="normal" fill="#9B9B9B">
                                <tspan x="96.6097561" y="8.82926829">9:40 PM</tspan>
                            </text>
                            <g id="Bluetooth" opacity="0.4" transform="translate(177.188282, 0.829268)" fill="#000000">
                                <path d="M3.09495722,4.24503593 L4.79414942,2.48637819 L2.48810286,4.4408921e-16 L2.42741743,4.4408921e-16 L2.42741743,3.51731548 L0.667539793,1.69801437 L0.242741743,2.12251796 L2.24536112,4.3056793 L0.242741743,6.48884063 L0.667539793,6.91334423 L2.42741743,5.09404311 L2.42741743,8.6113586 L2.5487883,8.6113586 L4.85483486,6.18562378 L3.09495722,4.24503593 L3.09495722,4.24503593 Z M3.03427179,1.57672763 L3.94455332,2.48637819 L3.03427179,3.45667211 L3.03427179,1.57672763 L3.03427179,1.57672763 Z M3.03427179,5.03339974 L4.00523876,6.06433704 L3.03427179,6.91334423 L3.03427179,5.03339974 L3.03427179,5.03339974 Z" id="Shape"></path>
                            </g>
                            <g id="Wifi" transform="translate(24.592452, 2.042136)" fill="#9B9B9B">
                                <path d="M4.01593893,0 C2.6201739,0 1.34577975,0.606433704 0.374812782,1.51608426 L0.920981703,2.18316133 C1.7705778,1.45544089 2.80223021,0.970293926 4.01593893,0.970293926 C5.1689622,0.970293926 6.26130005,1.45544089 7.11089615,2.18316133 L7.65706507,1.51608426 C6.6860981,0.667077074 5.41170395,0 4.01593893,0 L4.01593893,0 Z M1.5885215,2.91088178 L2.19537585,3.63860222 C2.68085934,3.21409863 3.34839913,2.91088178 4.01593893,2.91088178 C4.74416415,2.91088178 5.35101851,3.15345526 5.836502,3.63860222 L6.44335635,2.91088178 C5.77581656,2.30444808 4.92622046,1.94058785 4.01593893,1.94058785 C3.10565739,1.94058785 2.25606129,2.30444808 1.5885215,2.91088178 L1.5885215,2.91088178 Z M2.80223021,4.3056793 L4.01593893,5.76112019 L5.22964764,4.3056793 C4.86553503,4.00246245 4.44073698,3.82053234 4.01593893,3.82053234 C3.59114088,3.82053234 3.10565739,4.00246245 2.80223021,4.3056793 L2.80223021,4.3056793 Z" id="Shape"></path>
                            </g>
                            <g id="Reception" transform="translate(0.268293, 3.255003)" fill="#9B9B9B">
                                <ellipse id="Oval" cx="10.1951532" cy="1.75865774" rx="1.6991922" ry="1.75865774"></ellipse>
                                <ellipse id="Oval" cx="14.4431337" cy="1.75865774" rx="1.6991922" ry="1.75865774"></ellipse>
                                <ellipse id="Oval" cx="18.6911142" cy="1.75865774" rx="1.6991922" ry="1.75865774"></ellipse>
                                <ellipse id="Oval" cx="5.88648726" cy="1.75865774" rx="1.63850676" ry="1.75865774"></ellipse>
                                <ellipse id="Oval" cx="1.6991922" cy="1.75865774" rx="1.6991922" ry="1.75865774"></ellipse>
                            </g>
                        </g>
                    </g>
                </g>
            </g>
        </g>
    </g>
</svg>