<?xml version="1.0" encoding="UTF-8"?>
<svg width="903px" height="196px" viewBox="0 0 903 196" version="1.1" xmlns="http://www.w3.org/2000/svg" xmlns:xlink="http://www.w3.org/1999/xlink">
    <!-- Generator: Sketch 51.3 (57544) - http://www.bohemiancoding.com/sketch -->
    <title>Group 4</title>
    <desc>Created with Sketch.</desc>
    <defs></defs>
    <g id="Page-1" stroke="none" stroke-width="1" fill="none" fill-rule="evenodd">
        <g id="target" transform="translate(-248.000000, -3611.000000)">
            <g id="Group-14" transform="translate(248.000000, 3611.000000)">
                <g id="Group-4">
                    <g id="Group" transform="translate(187.000000, 7.000000)" fill="#6B6B6B">
                        <g id="arrow">
                            <polygon id="Triangle" transform="translate(45.000000, 3.000000) rotate(90.000000) translate(-45.000000, -3.000000) " points="45 4.02455846e-16 48 6 42 6"></polygon>
                            <rect id="Rectangle-3" x="3" y="2" width="40" height="2"></rect>
                            <circle id="Oval-2" cx="3" cy="3" r="3"></circle>
                        </g>
                    </g>
                    <g id="Group" transform="translate(187.000000, 51.000000)" fill="#6B6B6B">
                        <g id="arrow">
                            <polygon id="Triangle" transform="translate(45.000000, 3.000000) rotate(90.000000) translate(-45.000000, -3.000000) " points="45 4.02455846e-16 48 6 42 6"></polygon>
                            <rect id="Rectangle-3" x="3" y="2" width="40" height="2"></rect>
                            <circle id="Oval-2" cx="3" cy="3" r="3"></circle>
                        </g>
                    </g>
                    <g id="Group" transform="translate(187.000000, 95.000000)" fill="#6B6B6B">
                        <g id="arrow">
                            <polygon id="Triangle" transform="translate(45.000000, 3.000000) rotate(90.000000) translate(-45.000000, -3.000000) " points="45 4.02455846e-16 48 6 42 6"></polygon>
                            <rect id="Rectangle-3" x="3" y="2" width="40" height="2"></rect>
                            <circle id="Oval-2" cx="3" cy="3" r="3"></circle>
                        </g>
                    </g>
                    <g id="Group" transform="translate(363.000000, 7.000000)" fill="#6B6B6B">
                        <g id="arrow">
                            <polygon id="Triangle" transform="translate(45.000000, 3.000000) rotate(90.000000) translate(-45.000000, -3.000000) " points="45 4.02455846e-16 48 6 42 6"></polygon>
                            <rect id="Rectangle-3" x="3" y="2" width="40" height="2"></rect>
                            <circle id="Oval-2" cx="3" cy="3" r="3"></circle>
                        </g>
                    </g>
                    <g id="Group" transform="translate(363.000000, 51.000000)" fill="#6B6B6B">
                        <g id="arrow">
                            <polygon id="Triangle" transform="translate(45.000000, 3.000000) rotate(90.000000) translate(-45.000000, -3.000000) " points="45 4.02455846e-16 48 6 42 6"></polygon>
                            <rect id="Rectangle-3" x="3" y="2" width="40" height="2"></rect>
                            <circle id="Oval-2" cx="3" cy="3" r="3"></circle>
                        </g>
                    </g>
                    <g id="Group" transform="translate(541.000000, 7.000000)" fill="#6B6B6B">
                        <g id="arrow">
                            <polygon id="Triangle" transform="translate(45.000000, 3.000000) rotate(90.000000) translate(-45.000000, -3.000000) " points="45 4.02455846e-16 48 6 42 6"></polygon>
                            <rect id="Rectangle-3" x="3" y="2" width="40" height="2"></rect>
                            <circle id="Oval-2" cx="3" cy="3" r="3"></circle>
                        </g>
                    </g>
                    <g id="Group" transform="translate(541.000000, 51.000000)" fill="#6B6B6B">
                        <g id="arrow">
                            <polygon id="Triangle" transform="translate(45.000000, 3.000000) rotate(90.000000) translate(-45.000000, -3.000000) " points="45 4.02455846e-16 48 6 42 6"></polygon>
                            <rect id="Rectangle-3" x="3" y="2" width="40" height="2"></rect>
                            <circle id="Oval-2" cx="3" cy="3" r="3"></circle>
                        </g>
                    </g>
                    <g id="Group-2">
                        <rect id="Rectangle" stroke="#4A4A4A" x="0.5" y="0.5" width="54" height="19" rx="4"></rect>
                        <text id="Flow-1" font-family="HelveticaNeue-Medium, Helvetica Neue" font-size="14" font-weight="400" fill="#4A4A4A">
                            <tspan x="6.727" y="15">Flow 1</tspan>
                        </text>
                    </g>
                    <g id="Group-2" transform="translate(0.000000, 44.000000)">
                        <rect id="Rectangle" stroke="#4A4A4A" x="0.5" y="0.5" width="54" height="19" rx="4"></rect>
                        <text id="Flow-2" font-family="HelveticaNeue-Medium, Helvetica Neue" font-size="14" font-weight="400" fill="#4A4A4A">
                            <tspan x="6.727" y="15">Flow 2</tspan>
                        </text>
                    </g>
                    <g id="Group-2" transform="translate(75.000000, 0.000000)">
                        <rect id="Rectangle" fill="#9686B1" x="0" y="0" width="96" height="20" rx="4"></rect>
                        <text id="Take-Photo" font-family="HelveticaNeue-Medium, Helvetica Neue" font-size="14" font-weight="400" fill="#FFFFFF">
                            <tspan x="11.74" y="15">Take Photo</tspan>
                        </text>
                    </g>
                    <g id="Group-2" transform="translate(427.000000, 0.000000)">
                        <rect id="Rectangle" fill="#9686B1" x="0" y="0" width="98" height="20" rx="4"></rect>
                        <text id="Take-Photo" font-family="HelveticaNeue-Medium, Helvetica Neue" font-size="14" font-weight="400" fill="#FFFFFF">
                            <tspan x="12.74" y="15">Take Photo</tspan>
                        </text>
                    </g>
                    <g id="Group-2" transform="translate(427.000000, 44.000000)">
                        <rect id="Rectangle" fill="#9686B1" x="0" y="0" width="98" height="20" rx="4"></rect>
                        <text id="Take-Photo" font-family="HelveticaNeue-Medium, Helvetica Neue" font-size="14" font-weight="400" fill="#FFFFFF">
                            <tspan x="12.74" y="15">Take Photo</tspan>
                        </text>
                    </g>
                    <g id="Group" transform="translate(363.000000, 95.000000)" fill="#6B6B6B">
                        <g id="arrow">
                            <polygon id="Triangle" transform="translate(45.000000, 3.000000) rotate(90.000000) translate(-45.000000, -3.000000) " points="45 4.02455846e-16 48 6 42 6"></polygon>
                            <rect id="Rectangle-3" x="3" y="2" width="40" height="2"></rect>
                            <circle id="Oval-2" cx="3" cy="3" r="3"></circle>
                        </g>
                    </g>
                    <g id="Group" transform="translate(541.000000, 95.000000)" fill="#6B6B6B">
                        <g id="arrow">
                            <polygon id="Triangle" transform="translate(45.000000, 3.000000) rotate(90.000000) translate(-45.000000, -3.000000) " points="45 4.02455846e-16 48 6 42 6"></polygon>
                            <rect id="Rectangle-3" x="3" y="2" width="40" height="2"></rect>
                            <circle id="Oval-2" cx="3" cy="3" r="3"></circle>
                        </g>
                    </g>
                    <g id="Group-2" transform="translate(603.000000, 88.000000)">
                        <rect id="Rectangle" fill="#9686B1" x="0" y="0" width="98" height="20" rx="4"></rect>
                        <text id="Take-Photo" font-family="HelveticaNeue-Medium, Helvetica Neue" font-size="14" font-weight="400" fill="#FFFFFF">
                            <tspan x="12.74" y="15">Take Photo</tspan>
                        </text>
                    </g>
                    <g id="Group-2" transform="translate(603.000000, 176.000000)">
                        <rect id="Rectangle" fill="#9686B1" x="0" y="0" width="98" height="20" rx="4"></rect>
                        <text id="Take-Photo" font-family="HelveticaNeue-Medium, Helvetica Neue" font-size="14" font-weight="400" fill="#FFFFFF">
                            <tspan x="12.74" y="15">Take Photo</tspan>
                        </text>
                    </g>
                    <g id="Group-2" transform="translate(251.000000, 88.000000)">
                        <rect id="Rectangle" fill="#9686B1" x="0" y="0" width="98" height="20" rx="4"></rect>
                        <text id="Take-Photo" font-family="HelveticaNeue-Medium, Helvetica Neue" font-size="14" font-weight="400" fill="#FFFFFF">
                            <tspan x="12.74" y="15">Take Photo</tspan>
                        </text>
                    </g>
                    <g id="Group-2" transform="translate(605.000000, 44.000000)">
                        <rect id="Rectangle" fill="#9686B1" x="0" y="0" width="98" height="20" rx="4"></rect>
                        <text id="Take-Photo" font-family="HelveticaNeue-Medium, Helvetica Neue" font-size="14" font-weight="400" fill="#FFFFFF">
                            <tspan x="12.74" y="15">Take Photo</tspan>
                        </text>
                    </g>
                    <g id="Group-2" transform="translate(605.000000, 0.000000)">
                        <rect id="Rectangle" fill="#42CEBA" x="0" y="0" width="120" height="20" rx="4"></rect>
                        <text id="Upload-Photos" font-family="HelveticaNeue-Medium, Helvetica Neue" font-size="14" font-weight="400" fill="#FFFFFF">
                            <tspan x="11.3249835" y="15">Upload Photos</tspan>
                        </text>
                    </g>
                    <g id="Group" transform="translate(719.000000, 51.000000)" fill="#6B6B6B">
                        <g id="arrow">
                            <polygon id="Triangle" transform="translate(45.000000, 3.000000) rotate(90.000000) translate(-45.000000, -3.000000) " points="45 4.02455846e-16 48 6 42 6"></polygon>
                            <rect id="Rectangle-3" x="3" y="2" width="40" height="2"></rect>
                            <circle id="Oval-2" cx="3" cy="3" r="3"></circle>
                        </g>
                    </g>
                    <g id="Group-2" transform="translate(783.000000, 44.000000)">
                        <rect id="Rectangle" fill="#42CEBA" x="0" y="0" width="120" height="20" rx="4"></rect>
                        <text id="Upload-Photos" font-family="HelveticaNeue-Medium, Helvetica Neue" font-size="14" font-weight="400" fill="#FFFFFF">
                            <tspan x="11.3249835" y="15">Upload Photos</tspan>
                        </text>
                    </g>
                    <g id="Group" transform="translate(719.000000, 95.000000)" fill="#6B6B6B">
                        <g id="arrow">
                            <polygon id="Triangle" transform="translate(45.000000, 3.000000) rotate(90.000000) translate(-45.000000, -3.000000) " points="45 4.02455846e-16 48 6 42 6"></polygon>
                            <rect id="Rectangle-3" x="3" y="2" width="40" height="2"></rect>
                            <circle id="Oval-2" cx="3" cy="3" r="3"></circle>
                        </g>
                    </g>
                    <g id="Group-2" transform="translate(783.000000, 88.000000)">
                        <rect id="Rectangle" fill="#42CEBA" x="0" y="0" width="120" height="20" rx="4"></rect>
                        <text id="Upload-Photos" font-family="HelveticaNeue-Medium, Helvetica Neue" font-size="14" font-weight="400" fill="#FFFFFF">
                            <tspan x="11.3249835" y="15">Upload Photos</tspan>
                        </text>
                    </g>
                    <g id="Group-2" transform="translate(251.000000, 0.000000)">
                        <rect id="Rectangle" fill="#5FADCA" x="0" y="0" width="96" height="20" rx="4"></rect>
                        <text id="Scan-Guest" font-family="HelveticaNeue-Medium, Helvetica Neue" font-size="14" font-weight="400" fill="#FFFFFF">
                            <tspan x="10.529" y="15">Scan Guest</tspan>
                        </text>
                    </g>
                    <g id="Group" transform="translate(187.000000, 139.000000)" fill="#6B6B6B">
                        <g id="arrow">
                            <polygon id="Triangle" transform="translate(45.000000, 3.000000) rotate(90.000000) translate(-45.000000, -3.000000) " points="45 4.02455846e-16 48 6 42 6"></polygon>
                            <rect id="Rectangle-3" x="3" y="2" width="40" height="2"></rect>
                            <circle id="Oval-2" cx="3" cy="3" r="3"></circle>
                        </g>
                    </g>
                    <g id="Group" transform="translate(363.000000, 139.000000)" fill="#6B6B6B">
                        <g id="arrow">
                            <polygon id="Triangle" transform="translate(45.000000, 3.000000) rotate(90.000000) translate(-45.000000, -3.000000) " points="45 4.02455846e-16 48 6 42 6"></polygon>
                            <rect id="Rectangle-3" x="3" y="2" width="40" height="2"></rect>
                            <circle id="Oval-2" cx="3" cy="3" r="3"></circle>
                        </g>
                    </g>
                    <g id="Group" transform="translate(541.000000, 139.000000)" fill="#6B6B6B">
                        <g id="arrow">
                            <polygon id="Triangle" transform="translate(45.000000, 3.000000) rotate(90.000000) translate(-45.000000, -3.000000) " points="45 4.02455846e-16 48 6 42 6"></polygon>
                            <rect id="Rectangle-3" x="3" y="2" width="40" height="2"></rect>
                            <circle id="Oval-2" cx="3" cy="3" r="3"></circle>
                        </g>
                    </g>
                    <g id="Group-2" transform="translate(75.000000, 132.000000)">
                        <rect id="Rectangle" fill="#9686B1" x="0" y="0" width="96" height="20" rx="4"></rect>
                        <text id="Take-Photo" font-family="HelveticaNeue-Medium, Helvetica Neue" font-size="14" font-weight="400" fill="#FFFFFF">
                            <tspan x="11.74" y="15">Take Photo</tspan>
                        </text>
                    </g>
                    <g id="Group-2" transform="translate(427.000000, 132.000000)">
                        <rect id="Rectangle" fill="#9686B1" x="0" y="0" width="98" height="20" rx="4"></rect>
                        <text id="Take-Photo" font-family="HelveticaNeue-Medium, Helvetica Neue" font-size="14" font-weight="400" fill="#FFFFFF">
                            <tspan x="12.74" y="15">Take Photo</tspan>
                        </text>
                    </g>
                    <g id="Group-2" transform="translate(251.000000, 132.000000)">
                        <rect id="Rectangle" fill="#5FADCA" x="0" y="0" width="96" height="20" rx="4"></rect>
                        <text id="Scan-Guest" font-family="HelveticaNeue-Medium, Helvetica Neue" font-size="14" font-weight="400" fill="#FFFFFF">
                            <tspan x="10.529" y="15">Scan Guest</tspan>
                        </text>
                    </g>
                    <g id="Group-2" transform="translate(251.000000, 44.000000)">
                        <rect id="Rectangle" fill="#5FADCA" x="0" y="0" width="96" height="20" rx="4"></rect>
                        <text id="Scan-Guest" font-family="HelveticaNeue-Medium, Helvetica Neue" font-size="14" font-weight="400" fill="#FFFFFF">
                            <tspan x="10.529" y="15">Scan Guest</tspan>
                        </text>
                    </g>
                    <g id="Group-2" transform="translate(75.000000, 44.000000)">
                        <rect id="Rectangle" fill="#5FADCA" x="0" y="0" width="96" height="20" rx="4"></rect>
                        <text id="Scan-Guest" font-family="HelveticaNeue-Medium, Helvetica Neue" font-size="14" font-weight="400" fill="#FFFFFF">
                            <tspan x="10.529" y="15">Scan Guest</tspan>
                        </text>
                    </g>
                    <g id="Group-2" transform="translate(75.000000, 88.000000)">
                        <rect id="Rectangle" fill="#5FADCA" x="0" y="0" width="96" height="20" rx="4"></rect>
                        <text id="Scan-Guest" font-family="HelveticaNeue-Medium, Helvetica Neue" font-size="14" font-weight="400" fill="#FFFFFF">
                            <tspan x="10.529" y="15">Scan Guest</tspan>
                        </text>
                    </g>
                    <g id="Group-2" transform="translate(0.000000, 88.000000)">
                        <rect id="Rectangle" stroke="#4A4A4A" x="0.5" y="0.5" width="54" height="19" rx="4"></rect>
                        <text id="Flow-3" font-family="HelveticaNeue-Medium, Helvetica Neue" font-size="14" font-weight="400" fill="#4A4A4A">
                            <tspan x="6.727" y="15">Flow 3</tspan>
                        </text>
                    </g>
                    <g id="Group-2" transform="translate(0.000000, 132.000000)">
                        <rect id="Rectangle" stroke="#4A4A4A" x="0.5" y="0.5" width="54" height="19" rx="4"></rect>
                        <text id="Flow-4" font-family="HelveticaNeue-Medium, Helvetica Neue" font-size="14" font-weight="400" fill="#4A4A4A">
                            <tspan x="6.727" y="15">Flow 4</tspan>
                        </text>
                    </g>
                    <g id="Group-2" transform="translate(427.000000, 88.000000)">
                        <rect id="Rectangle" fill="#5FADCA" x="0" y="0" width="96" height="20" rx="4"></rect>
                        <text id="Scan-Guest" font-family="HelveticaNeue-Medium, Helvetica Neue" font-size="14" font-weight="400" fill="#FFFFFF">
                            <tspan x="10.529" y="15">Scan Guest</tspan>
                        </text>
                    </g>
                    <g id="Group" transform="translate(719.000000, 139.000000)" fill="#6B6B6B">
                        <g id="arrow">
                            <polygon id="Triangle" transform="translate(45.000000, 3.000000) rotate(90.000000) translate(-45.000000, -3.000000) " points="45 4.02455846e-16 48 6 42 6"></polygon>
                            <rect id="Rectangle-3" x="3" y="2" width="40" height="2"></rect>
                            <circle id="Oval-2" cx="3" cy="3" r="3"></circle>
                        </g>
                    </g>
                    <g id="Group-2" transform="translate(783.000000, 132.000000)">
                        <rect id="Rectangle" fill="#42CEBA" x="0" y="0" width="120" height="20" rx="4"></rect>
                        <text id="Upload-Photos" font-family="HelveticaNeue-Medium, Helvetica Neue" font-size="14" font-weight="400" fill="#FFFFFF">
                            <tspan x="11.3249835" y="15">Upload Photos</tspan>
                        </text>
                    </g>
                    <g id="Group-2" transform="translate(605.000000, 132.000000)">
                        <rect id="Rectangle" fill="#5FADCA" x="0" y="0" width="96" height="20" rx="4"></rect>
                        <text id="Scan-Guest" font-family="HelveticaNeue-Medium, Helvetica Neue" font-size="14" font-weight="400" fill="#FFFFFF">
                            <tspan x="10.529" y="15">Scan Guest</tspan>
                        </text>
                    </g>
                    <g id="Group" transform="translate(187.000000, 183.000000)" fill="#6B6B6B">
                        <g id="arrow">
                            <polygon id="Triangle" transform="translate(45.000000, 3.000000) rotate(90.000000) translate(-45.000000, -3.000000) " points="45 4.02455846e-16 48 6 42 6"></polygon>
                            <rect id="Rectangle-3" x="3" y="2" width="40" height="2"></rect>
                            <circle id="Oval-2" cx="3" cy="3" r="3"></circle>
                        </g>
                    </g>
                    <g id="Group" transform="translate(363.000000, 183.000000)" fill="#6B6B6B">
                        <g id="arrow">
                            <polygon id="Triangle" transform="translate(45.000000, 3.000000) rotate(90.000000) translate(-45.000000, -3.000000) " points="45 4.02455846e-16 48 6 42 6"></polygon>
                            <rect id="Rectangle-3" x="3" y="2" width="40" height="2"></rect>
                            <circle id="Oval-2" cx="3" cy="3" r="3"></circle>
                        </g>
                    </g>
                    <g id="Group" transform="translate(541.000000, 183.000000)" fill="#6B6B6B">
                        <g id="arrow">
                            <polygon id="Triangle" transform="translate(45.000000, 3.000000) rotate(90.000000) translate(-45.000000, -3.000000) " points="45 4.02455846e-16 48 6 42 6"></polygon>
                            <rect id="Rectangle-3" x="3" y="2" width="40" height="2"></rect>
                            <circle id="Oval-2" cx="3" cy="3" r="3"></circle>
                        </g>
                    </g>
                    <g id="Group-2" transform="translate(427.000000, 176.000000)">
                        <rect id="Rectangle" fill="#9686B1" x="0" y="0" width="98" height="20" rx="4"></rect>
                        <text id="Take-Photo" font-family="HelveticaNeue-Medium, Helvetica Neue" font-size="14" font-weight="400" fill="#FFFFFF">
                            <tspan x="12.74" y="15">Take Photo</tspan>
                        </text>
                    </g>
                    <g id="Group-2" transform="translate(251.000000, 176.000000)">
                        <rect id="Rectangle" fill="#5FADCA" x="0" y="0" width="96" height="20" rx="4"></rect>
                        <text id="Scan-Guest" font-family="HelveticaNeue-Medium, Helvetica Neue" font-size="14" font-weight="400" fill="#FFFFFF">
                            <tspan x="10.529" y="15">Scan Guest</tspan>
                        </text>
                    </g>
                    <g id="Group-2" transform="translate(0.000000, 176.000000)">
                        <rect id="Rectangle" stroke="#4A4A4A" x="0.5" y="0.5" width="54" height="19" rx="4"></rect>
                        <text id="Flow-5" font-family="HelveticaNeue-Medium, Helvetica Neue" font-size="14" font-weight="400" fill="#4A4A4A">
                            <tspan x="6.727" y="15">Flow 5</tspan>
                        </text>
                    </g>
                    <g id="Group" transform="translate(719.000000, 183.000000)" fill="#6B6B6B">
                        <g id="arrow">
                            <polygon id="Triangle" transform="translate(45.000000, 3.000000) rotate(90.000000) translate(-45.000000, -3.000000) " points="45 4.02455846e-16 48 6 42 6"></polygon>
                            <rect id="Rectangle-3" x="3" y="2" width="40" height="2"></rect>
                            <circle id="Oval-2" cx="3" cy="3" r="3"></circle>
                        </g>
                    </g>
                    <g id="Group-2" transform="translate(783.000000, 176.000000)">
                        <rect id="Rectangle" fill="#42CEBA" x="0" y="0" width="120" height="20" rx="4"></rect>
                        <text id="Upload-Photos" font-family="HelveticaNeue-Medium, Helvetica Neue" font-size="14" font-weight="400" fill="#FFFFFF">
                            <tspan x="11.3249835" y="15">Upload Photos</tspan>
                        </text>
                    </g>
                    <g id="Group-2" transform="translate(75.000000, 176.000000)">
                        <rect id="Rectangle" fill="#5FADCA" x="0" y="0" width="96" height="20" rx="4"></rect>
                        <text id="Scan-Guest" font-family="HelveticaNeue-Medium, Helvetica Neue" font-size="14" font-weight="400" fill="#FFFFFF">
                            <tspan x="10.529" y="15">Scan Guest</tspan>
                        </text>
                    </g>
                </g>
            </g>
        </g>
    </g>
</svg>